{
.appVersion = "1356";
DisplayStrings = (
"/gha-deva",
"/ka-deva",
"/candraBindu-deva.imatra",
"/candraBindu-deva",
"/anusvara-deva.imatra",
"/eCandraMatra-deva",
"/rakar-deva",
"¨",
"/ch-deva",
"/brevecomb_acutecomb",
"/Lcaron/lcaron/tcaron/aShort-deva/eShort-deva/oShort-deva/oShortMatra-deva/zha-deva/t_n_ya-deva/f-deva",
"/sha-deva.loclMAR",
"/jha-deva",
"/nga-deva",
"/j-deva/z-deva",
"/l-deva.loclMAR",
"/la-deva",
"/t_ra-deva",
"/oldt_rakar-deva",
"/invertedCandraBindu-deva",
"/rakar_ra-deva",
"/eLongCandra-deva",
"/zero-deva"
);
classes = (
{
automatic = 1;
code = "iMatra-deva iMatra-deva.0 iMatra-deva.01 iMatra-deva.02 iMatra-deva.03 iMatra-deva.05 iMatra-deva.08 iMatra-deva.10 iMatra-deva.15 iMatra-deva.20 iMatra-deva.25 iMatra-deva.30 iMatra-deva.35";
name = DevaIMatras;
},
{
automatic = 1;
code = "iMatra_reph-deva iMatra_reph-deva.0 iMatra_reph-deva.01 iMatra_reph-deva.02 iMatra_reph-deva.03 iMatra_reph-deva.05 iMatra_reph-deva.08 iMatra_reph-deva.10 iMatra_reph-deva.15 iMatra_reph-deva.20 iMatra_reph-deva.25 iMatra_reph-deva.30 iMatra_reph-deva.35";
name = DevaIMatraRephs;
},
{
automatic = 1;
code = "iMatra_reph_anusvara-deva iMatra_reph_anusvara-deva.0 iMatra_reph_anusvara-deva.01 iMatra_reph_anusvara-deva.02 iMatra_reph_anusvara-deva.03 iMatra_reph_anusvara-deva.05 iMatra_reph_anusvara-deva.08 iMatra_reph_anusvara-deva.10 iMatra_reph_anusvara-deva.15 iMatra_reph_anusvara-deva.20 iMatra_reph_anusvara-deva.25 iMatra_reph_anusvara-deva.30 iMatra_reph_anusvara-deva.35";
name = DevaIMatraRephAnusvaras;
},
{
automatic = 1;

glyphs = (
{
glyphname = A;
lastChange = "2021-08-22 03:02:32 +0000";
layers = (
{
anchors = (
{
name = btm;
position = "{590, -297}";
},
{
name = top;
position = "{598, 1515}";
}
);
layerId = "81641B54-5DFF-4E7E-9A9F-73CB636BC82D";
paths = (
{
closed = 1;
nodes = (
"751 406 LINE SMOOTH",
"825 406 OFFCURVE",
"831 368 OFFCURVE",
"877 205 CURVE",
"895 129 OFFCURVE",
"942 -23 OFFCURVE",
"1002 -23 CURVE SMOOTH",
"1030 -23 OFFCURVE",
"1094 -18 OFFCURVE",
"1094 74 CURVE SMOOTH",
"1094 146 OFFCURVE",
"1080 149 OFFCURVE",
"1038 200 CURVE SMOOTH",
"946 313 OFFCURVE",
"833 1231 OFFCURVE",
"590 1231 CURVE SMOOTH",
"533 1231 OFFCURVE",
"483 1114 OFFCURVE",
"450 1047 CURVE",
"260 600 LINE",
"215 571 OFFCURVE",
"205 535 OFFCURVE",
"205 476 CURVE SMOOTH",
"205 471 OFFCURVE",
"205 458 OFFCURVE",
"208 448 CURVE",
"169 344 OFFCURVE",
"144 263 OFFCURVE",
"122 200 CURVE",
"101 163 OFFCURVE",
"88 116 OFFCURVE",
"88 67 CURVE SMOOTH",
"88 4 OFFCURVE",
"114 -12 OFFCURVE",
"159 -12 CURVE SMOOTH",
"173 -12 OFFCURVE",
"237 8 OFFCURVE",
"244 122 CURVE",
"311 315 LINE SMOOTH",
"339 397 OFFCURVE",
"344 406 OFFCURVE",
"384 406 CURVE SMOOTH"
);
},
{
closed = 1;
nodes = (
"582 994 CURVE",
"661 822 LINE SMOOTH",
"697 745 OFFCURVE",
"732 661 OFFCURVE",
"751 605 CURVE",
"709 602 OFFCURVE",
"671 602 OFFCURVE",
"635 602 CURVE SMOOTH",
"560 602 OFFCURVE",
"499 605 OFFCURVE",
"416 607 CURVE",
"454 719 OFFCURVE",
"553 977 OFFCURVE"
);
}
);
width = 1188;
}
);
unicode = 0041;
userData = {
com.typemytype.robofont.mark = (
1,
0.6,
0.6,
1
);
};
},
{
glyphname = Aogonek;
lastChange = "2021-08-22 03:02:32 +0000";
layers = (
{
components = (
{
name = A;
}
);
layerId = "81641B54-5DFF-4E7E-9A9F-73CB636BC82D";
paths = (
{
closed = 1;
nodes = (
"970 -293 CURVE SMOOTH",
"934 -293 OFFCURVE",
"889 -260 OFFCURVE",
"871 -208 CURVE",
"871 -8 OFFCURVE",
"1102 -35 OFFCURVE",
"1102 74 CURVE SMOOTH",
"1102 129 OFFCURVE",
"1060 153 OFFCURVE",
"1047 153 CURVE",
"1002 124 OFFCURVE",
"993 105 OFFCURVE",
"930 60 CURVE SMOOTH",
"846 4 OFFCURVE",
"729 -59 OFFCURVE",
"729 -248 CURVE SMOOTH",
"729 -377 OFFCURVE",
"831 -466 OFFCURVE",
"958 -466 CURVE SMOOTH",
"1038 -466 OFFCURVE",
"1139 -450 OFFCURVE",
"1139 -309 CURVE SMOOTH",
"1139 -270 OFFCURVE",
"1126 -230 OFFCURVE",
"1099 -230 CURVE SMOOTH",
"1040 -230 OFFCURVE",
"1033 -293 OFFCURVE"
);
}
);
width = 1188;
}
);
unicode = 0104;
},
{
glyphname = AE;
lastChange = "2021-08-22 03:02:32 +0000";
layers = (
{
anchors = (
{
name = btm;
position = "{792, -297}";
},
{
name = top;
position = "{1093, 1497}";
}
);
layerId = "81641B54-5DFF-4E7E-9A9F-73CB636BC82D";
paths = (
{
closed = 1;
nodes = (
"26 67 CURVE SMOOTH",
"26 8 OFFCURVE",
"81 -36 OFFCURVE",
"103 -36 CURVE SMOOTH",
"149 -36 OFFCURVE",
"177 5 OFFCURVE",
"198 39 CURVE",
"244 126 LINE",
"426 436 OFFCURVE",
"571 823 OFFCURVE",
"705 1035 CURVE SMOOTH",
"716 1057 OFFCURVE",
"729 1078 OFFCURVE",
"732 1104 CURVE SMOOTH",
"732 1112 LINE SMOOTH",
"732 1174 OFFCURVE",
"697 1192 OFFCURVE",
"668 1192 CURVE SMOOTH",
"643 1192 OFFCURVE",
"582 1147 OFFCURVE",
"565 1121 CURVE SMOOTH",
"334 709 OFFCURVE",
"317 525 OFFCURVE",
"36 124 CURVE",
"26 101 OFFCURVE",
"26 81 OFFCURVE"
);
},
{
closed = 1;
nodes = (
"1421 -23 CURVE SMOOTH",
"1456 -23 OFFCURVE",
"1504 2 OFFCURVE",
"1504 84 CURVE SMOOTH",
"1504 136 OFFCURVE",
"1496 208 OFFCURVE",
"1394 208 CURVE SMOOTH",
"1278 208 OFFCURVE",
"1111 200 OFFCURVE",
"994 200 CURVE SMOOTH",
"901 200 LINE",
"901 495 LINE",
"899 726 LINE SMOOTH",
"897 844 OFFCURVE",
"895 948 OFFCURVE",
"897 980 CURVE SMOOTH",
"897 985 OFFCURVE",
"899 994 OFFCURVE",
"899 999 CURVE",
"1491 994 LINE SMOOTH",
"1526 994 OFFCURVE",
"1557 1050 OFFCURVE",
"1557 1099 CURVE SMOOTH",
"1557 1196 OFFCURVE",
"1522 1201 OFFCURVE",
"1417 1201 CURVE",
"973 1192 LINE",
"967 1191 OFFCURVE",
"958 1191 OFFCURVE",
"952 1191 CURVE SMOOTH",
"897 1191 OFFCURVE",
"859 1231 OFFCURVE",
"829 1231 CURVE SMOOTH",
"765 1231 OFFCURVE",
"765 1144 OFFCURVE",
"765 1066 CURVE SMOOTH",
"765 988 LINE",
"760 968 OFFCURVE",
"760 944 OFFCURVE",
"760 920 CURVE SMOOTH",
"760 843 OFFCURVE",
"767 777 OFFCURVE",
"767 716 CURVE SMOOTH",
"767 706 OFFCURVE",
"767 696 OFFCURVE",
"767 688 CURVE SMOOTH",
"757 119 LINE SMOOTH",
"755 43 OFFCURVE",
"790 -8 OFFCURVE",
"839 -8 CURVE SMOOTH",
"988 -8 OFFCURVE",
"1109 8 OFFCURVE",
"1204 8 CURVE SMOOTH",
"1309 8 OFFCURVE",
"1337 -23 OFFCURVE"
);
},
{
closed = 1;
nodes = (
"497 655 CURVE",
"495 655 LINE",
"466 655 OFFCURVE",
"347 655 OFFCURVE",
"347 553 CURVE SMOOTH",
"347 473 OFFCURVE",
"349 462 OFFCURVE",
"384 462 CURVE SMOOTH",
"443 463 OFFCURVE",
"678 458 OFFCURVE",
"859 458 CURVE SMOOTH",
"930 458 LINE SMOOTH",
"1089 458 OFFCURVE",
"1231 450 OFFCURVE",
"1276 454 CURVE SMOOTH",
"1302 454 OFFCURVE",
"1330 502 OFFCURVE",
"1330 560 CURVE SMOOTH",
"1330 598 OFFCURVE",
"1302 666 OFFCURVE",
"1262 666 CURVE SMOOTH",
"1262 666 OFFCURVE",
"1171 652 OFFCURVE",
"1133 652 CURVE SMOOTH",
"885 652 OFFCURVE",
"497 655 OFFCURVE"
);
},
{
closed = 1;
nodes = (
"454 1047 CURVE SMOOTH",
"476 1047 OFFCURVE",
"631 1031 OFFCURVE",
"729 1031 CURVE SMOOTH",
"757 1031 OFFCURVE",
"779 1038 OFFCURVE",
"779 1099 CURVE SMOOTH",
"779 1159 OFFCURVE",
"850 1184 OFFCURVE",
"850 1191 CURVE SMOOTH",
"850 1192 OFFCURVE",
"533 1204 OFFCURVE",
"466 1204 CURVE SMOOTH",
"426 1204 OFFCURVE",
"371 1194 OFFCURVE",
"371 1133 CURVE SMOOTH",
"371 1064 OFFCURVE",
"436 1047 OFFCURVE"
);
}
);
width = 1662;
}
);
unicode = 00C6;
userData = {
com.typemytype.robofont.mark = (
1,
0.6,
0.6,
1
);
};
},
{
glyphname = B;
lastChange = "2021-08-22 03:02:32 +0000";
layers = (
{
anchors = (
{
name = btm;
position = "{540, -297}";
},
{
name = top;
position = "{478, 1429}";
}
);
layerId = "81641B54-5DFF-4E7E-9A9F-73CB636BC82D";
paths = (
{
closed = 1;
nodes = (
"359 -5 CURVE SMOOTH",
"661 -5 OFFCURVE",
"936 142 OFFCURVE",
"936 476 CURVE SMOOTH",
"936 660 OFFCURVE",
"836 773 OFFCURVE",
"691 829 CURVE",
"720 871 OFFCURVE",
"755 936 OFFCURVE",
"755 1030 CURVE SMOOTH",
"755 1152 OFFCURVE",
"631 1221 OFFCURVE",
"550 1221 CURVE SMOOTH",
"463 1221 OFFCURVE",
"344 1206 OFFCURVE",
"244 1174 CURVE SMOOTH",
"173 1149 OFFCURVE",
"157 940 OFFCURVE",
"157 802 CURVE",
"150 139 OFFCURVE",
"144 112 OFFCURVE",
"144 85 CURVE SMOOTH",
"144 14 OFFCURVE",
"220 -20 OFFCURVE",
"258 -20 CURVE SMOOTH",
"283 -20 OFFCURVE",
"303 0 OFFCURVE",
"322 0 CURVE SMOOTH",
"339 0 OFFCURVE",
"347 -5 OFFCURVE"
);
},
{
closed = 1;
nodes = (
"518 881 CURVE",
"319 818 OFFCURVE",
"302 818 OFFCURVE",
"277 818 CURVE",
"283 975 LINE SMOOTH",
"285 1021 OFFCURVE",
"450 1033 OFFCURVE",
"492 1033 CURVE SMOOTH",
"570 1033 OFFCURVE",
"641 1021 OFFCURVE",
"641 999 CURVE SMOOTH",
"641 958 OFFCURVE",
"557 905 OFFCURVE"
);
},
{
closed = 1;
nodes = (
"525 678 CURVE SMOOTH",
"652 678 OFFCURVE",
"824 612 OFFCURVE",
"824 491 CURVE SMOOTH",
"824 205 OFFCURVE",
"481 213 OFFCURVE",
"283 195 CURVE",
"272 299 OFFCURVE",
"273 406 OFFCURVE",
"273 505 CURVE SMOOTH",
"273 528 OFFCURVE",
"277 580 OFFCURVE",
"277 602 CURVE",
"389 616 OFFCURVE",
"462 678 OFFCURVE"
);
}
);
width = 1031;
}
);
unicode = 0042;
userData = {
com.typemytype.robofont.mark = (
1,
0.6,
0.6,
1
);
};
},
{
glyphname = C;
lastChange = "2021-08-22 03:02:32 +0000";
layers = (
{
anchors = (
{
name = btm;
position = "{560, -297}";
},
{
name = top;
position = "{600, 1497}";
}
);
layerId = "81641B54-5DFF-4E7E-9A9F-73CB636BC82D";
paths = (
{
closed = 1;
nodes = (
"105 458 CURVE SMOOTH",
"105 71 OFFCURVE",
"354 -14 OFFCURVE",
"580 -14 CURVE SMOOTH",
"745 -14 OFFCURVE",
"1013 31 OFFCURVE",
"1013 183 CURVE SMOOTH",
"1013 240 OFFCURVE",
"985 283 OFFCURVE",
"942 283 CURVE SMOOTH",
"930 283 OFFCURVE",
"907 263 OFFCURVE",
"863 222 CURVE",
"783 187 OFFCURVE",
"641 175 OFFCURVE",
"563 175 CURVE SMOOTH",
"409 175 OFFCURVE",
"240 277 OFFCURVE",
"240 461 CURVE SMOOTH",
"240 612 OFFCURVE",
"349 1038 OFFCURVE",
"596 1038 CURVE SMOOTH",
"891 1038 OFFCURVE",
"720 740 OFFCURVE",
"843 740 CURVE SMOOTH",
"904 740 OFFCURVE",
"930 836 OFFCURVE",
"930 885 CURVE SMOOTH",
"930 1109 OFFCURVE",
"760 1226 OFFCURVE",
"595 1226 CURVE SMOOTH",
"409 1226 OFFCURVE",
"243 1005 OFFCURVE",
"189 856 CURVE SMOOTH",
"144 726 OFFCURVE",
"105 595 OFFCURVE"
);
}
);
width = 1076;
}
);
unicode = 0043;
userData = {
com.typemytype.robofont.mark = (
1,
0.6,
0.6,
1
);
};
},
{
glyphname = D;
lastChange = "2021-08-22 03:02:32 +0000";
layers = (
{
anchors = (
{
name = btm;
position = "{499, -297}";
},
{
name = top;
position = "{466, 1497}";
}
);
layerId = "81641B54-5DFF-4E7E-9A9F-73CB636BC82D";
paths = (
{
closed = 1;
nodes = (
"142 225 LINE SMOOTH",
"139 136 OFFCURVE",
"157 -18 OFFCURVE",
"228 -18 CURVE SMOOTH",
"237 -18 OFFCURVE",
"258 -5 OFFCURVE",
"284 4 CURVE",
"332 -5 OFFCURVE",
"411 -5 OFFCURVE",
"448 -5 CURVE SMOOTH",
"686 -5 OFFCURVE",
"1064 173 OFFCURVE",
"1064 567 CURVE SMOOTH",
"1064 965 OFFCURVE",
"694 1219 OFFCURVE",
"448 1219 CURVE SMOOTH",
"303 1219 LINE SMOOTH",
"240 1219 OFFCURVE",
"159 1194 OFFCURVE",
"157 1050 CURVE SMOOTH"
);
},
{
closed = 1;
nodes = (
"357 189 LINE SMOOTH",
"329 189 OFFCURVE",
"303 192 OFFCURVE",
"299 195 CURVE",
"279 313 OFFCURVE",
"277 511 OFFCURVE",
"277 661 CURVE SMOOTH",
"277 833 LINE SMOOTH",
"277 895 OFFCURVE",
"282 968 OFFCURVE",
"293 1030 CURVE",
"334 1035 OFFCURVE",
"433 1038 OFFCURVE",
"468 1038 CURVE SMOOTH",
"681 1038 OFFCURVE",
"934 815 OFFCURVE",
"934 540 CURVE SMOOTH",
"934 287 OFFCURVE",
"660 189 OFFCURVE",
"483 189 CURVE SMOOTH"
);
}
);
width = 1123;
}
);
unicode = 0044;
userData = {
com.typemytype.robofont.mark = (
1,
0.6,
0.6,
1
);
};
},
{
glyphname = Eth;
lastChange = "2021-08-22 03:02:32 +0000";
layers = (
{
anchors = (
{
name = btm;
position = "{550, -297}";
}
);
components = (
{
name = D;
}
);
layerId = "81641B54-5DFF-4E7E-9A9F-73CB636BC82D";
paths = (
{
closed = 1;
nodes = (
"153 686 CURVE SMOOTH",
"114 686 OFFCURVE",
"130 694 OFFCURVE",
"105 694 CURVE SMOOTH",
"66 694 OFFCURVE",
"36 647 OFFCURVE",
"36 590 CURVE SMOOTH",
"36 499 OFFCURVE",
"79 489 OFFCURVE",
"116 489 CURVE SMOOTH",
"179 489 OFFCURVE",
"229 501 OFFCURVE",
"283 501 CURVE SMOOTH",
"354 501 OFFCURVE",
"418 483 OFFCURVE",
"483 483 CURVE SMOOTH",
"507 483 OFFCURVE",
"574 518 OFFCURVE",
"574 590 CURVE SMOOTH",
"574 652 OFFCURVE",
"550 694 OFFCURVE",
"507 694 CURVE SMOOTH",
"387 694 OFFCURVE",
"268 686 OFFCURVE"
);
}
);
width = 1178;
}
);
unicode = 00D0;
userData = {
com.typemytype.robofont.mark = (
1,
0.6,
0.6,
1
);
};
},
{
glyphname = Dcroat;
lastChange = "2021-08-22 03:02:32 +0000";
layers = (
{
components = (
{
name = D;
}
);
layerId = "81641B54-5DFF-4E7E-9A9F-73CB636BC82D";
paths = (
{
closed = 1;
nodes = (
"153 686 CURVE SMOOTH",
"114 686 OFFCURVE",
"130 694 OFFCURVE",
"105 694 CURVE SMOOTH",
"66 694 OFFCURVE",
"36 661 OFFCURVE",
"36 605 CURVE SMOOTH",
"36 515 OFFCURVE",
"79 502 OFFCURVE",
"116 502 CURVE SMOOTH",
"179 502 OFFCURVE",
"229 517 OFFCURVE",
"283 517 CURVE SMOOTH",
"354 517 OFFCURVE",
"418 499 OFFCURVE",
"483 499 CURVE SMOOTH",
"507 499 OFFCURVE",
"574 518 OFFCURVE",
"574 590 CURVE SMOOTH",
"574 652 OFFCURVE",
"550 694 OFFCURVE",
"507 694 CURVE SMOOTH",
"387 694 OFFCURVE",
"268 686 OFFCURVE"
);
}
);
width = 1178;
}
);
unicode = 0110;
userData = {
com.typemytype.robofont.mark = (
0.6,
0.986,
1,
1
);
};
},
{
glyphname = E;
lastChange = "2021-08-22 03:02:32 +0000";
layers = (
{
anchors = (
{
name = btm;
position = "{557, -297}";
},
{
name = top;
position = "{547, 1497}";
}
);
layerId = "81641B54-5DFF-4E7E-9A9F-73CB636BC82D";
paths = (
{
closed = 1;
nodes = (
"367 1173 CURVE SMOOTH",
"319 1173 OFFCURVE",
"283 1188 OFFCURVE",
"240 1188 CURVE SMOOTH",
"160 1188 OFFCURVE",
"160 1084 OFFCURVE",
"160 1012 CURVE SMOOTH",
"160 856 OFFCURVE",
"163 750 OFFCURVE",
"165 689 CURVE",
"157 668 OFFCURVE",
"153 645 OFFCURVE",
"153 633 CURVE SMOOTH",
"153 605 OFFCURVE",
"163 582 OFFCURVE",
"163 560 CURVE SMOOTH",
"157 116 LINE SMOOTH",
"155 39 OFFCURVE",
"192 -12 OFFCURVE",
"243 -12 CURVE SMOOTH",
"313 -12 OFFCURVE",
"377 -2 OFFCURVE",
"437 -2 CURVE SMOOTH",
"652 -2 OFFCURVE",
"691 -23 OFFCURVE",
"804 -23 CURVE SMOOTH",
"859 -23 OFFCURVE",
"909 2 OFFCURVE",
"909 84 CURVE SMOOTH",
"909 139 OFFCURVE",
"899 200 OFFCURVE",
"843 200 CURVE SMOOTH",
"651 200 OFFCURVE",
"472 215 OFFCURVE",
"299 215 CURVE",
"292 537 LINE",
"299 540 OFFCURVE",
"307 540 OFFCURVE",
"326 540 CURVE SMOOTH",
"367 540 OFFCURVE",
"454 537 OFFCURVE",
"674 537 CURVE SMOOTH",
"720 537 OFFCURVE",
"739 612 OFFCURVE",
"739 635 CURVE SMOOTH",
"739 709 OFFCURVE",
"706 736 OFFCURVE",
"664 736 CURVE SMOOTH",
"289 732 LINE",
"289 802 OFFCURVE",
"293 920 OFFCURVE",
"293 985 CURVE",
"356 983 OFFCURVE",
"505 980 OFFCURVE",
"895 978 CURVE SMOOTH",
"932 978 OFFCURVE",
"963 1040 OFFCURVE",
"963 1087 CURVE SMOOTH",
"963 1173 OFFCURVE",
"934 1176 OFFCURVE",
"846 1176 CURVE SMOOTH",
"720 1176 OFFCURVE",
"492 1173 OFFCURVE"
);
}
);
width = 988;
}
);
unicode = 0045;
userData = {
com.typemytype.robofont.mark = (
1,
0.6,
0.6,
1
);
};
},
{
glyphname = Eogonek;
lastChange = "2021-08-22 03:02:32 +0000";
layers = (
{
components = (
{
name = E;
}
);
layerId = "81641B54-5DFF-4E7E-9A9F-73CB636BC82D";
paths = (
{
closed = 1;
nodes = (
"771 -293 CURVE SMOOTH",
"734 -293 OFFCURVE",
"689 -260 OFFCURVE",
"671 -208 CURVE",
"671 -8 OFFCURVE",
"901 -35 OFFCURVE",
"901 74 CURVE SMOOTH",
"901 129 OFFCURVE",
"860 153 OFFCURVE",
"846 153 CURVE",
"802 124 OFFCURVE",
"794 105 OFFCURVE",
"730 60 CURVE SMOOTH",
"647 4 OFFCURVE",
"528 -59 OFFCURVE",
"528 -248 CURVE SMOOTH",
"528 -377 OFFCURVE",
"631 -466 OFFCURVE",
"760 -466 CURVE SMOOTH",
"839 -466 OFFCURVE",
"940 -450 OFFCURVE",
"940 -309 CURVE SMOOTH",
"940 -270 OFFCURVE",
"926 -230 OFFCURVE",
"899 -230 CURVE SMOOTH",
"841 -230 OFFCURVE",
"834 -293 OFFCURVE"
);
}
);
width = 988;
}
);
unicode = 0118;
},
{
glyphname = F;
lastChange = "2021-08-22 03:02:32 +0000";
layers = (
{
anchors = (
{
name = btm;
position = "{545, -297}";
},
{
name = top;
position = "{582, 1497}";
}
);
layerId = "81641B54-5DFF-4E7E-9A9F-73CB636BC82D";
paths = (
{
closed = 1;
nodes = (
"244 1211 CURVE SMOOTH",
"169 1211 OFFCURVE",
"160 1042 OFFCURVE",
"160 970 CURVE SMOOTH",
"150 263 LINE SMOOTH",
"150 228 OFFCURVE",
"139 198 OFFCURVE",
"139 134 CURVE SMOOTH",
"139 53 OFFCURVE",
"159 -8 OFFCURVE",
"228 -8 CURVE SMOOTH",
"287 -8 OFFCURVE",
"297 71 OFFCURVE",
"297 132 CURVE SMOOTH",
"293 502 LINE",
"344 502 OFFCURVE",
"387 511 OFFCURVE",
"641 540 CURVE SMOOTH",
"736 552 OFFCURVE",
"783 547 OFFCURVE",
"783 655 CURVE SMOOTH",
"783 684 OFFCURVE",
"781 753 OFFCURVE",
"724 753 CURVE SMOOTH",
"706 753 OFFCURVE",
"684 750 OFFCURVE",
"664 743 CURVE",
"476 715 LINE SMOOTH",
"456 710 OFFCURVE",
"382 705 OFFCURVE",
"337 705 CURVE SMOOTH",
"311 705 OFFCURVE",
"293 706 OFFCURVE",
"292 710 CURVE",
"293 849 OFFCURVE",
"297 934 OFFCURVE",
"303 993 CURVE",
"311 988 OFFCURVE",
"339 987 OFFCURVE",
"371 987 CURVE SMOOTH",
"678 987 OFFCURVE",
"734 999 OFFCURVE",
"753 999 CURVE",
"814 983 OFFCURVE",
"868 970 OFFCURVE",
"879 970 CURVE SMOOTH",
"932 970 OFFCURVE",
"952 1008 OFFCURVE",
"952 1074 CURVE SMOOTH",
"952 1132 OFFCURVE",
"894 1202 OFFCURVE",
"850 1202 CURVE SMOOTH",
"818 1202 OFFCURVE",
"790 1196 OFFCURVE",
"765 1191 CURVE",
"397 1191 LINE SMOOTH",
"347 1191 OFFCURVE",
"293 1211 OFFCURVE"
);
}
);
width = 970;
}
);
unicode = 0046;
userData = {
com.typemytype.robofont.mark = (
1,
0.6,
0.6,
1
);
};
},
{
glyphname = G;
lastChange = "2021-08-22 03:02:32 +0000";
layers = (
{
anchors = (
{
name = btm;
position = "{567, -297}";
},
{
name = top;
position = "{645, 1497}";
}
);
layerId = "81641B54-5DFF-4E7E-9A9F-73CB636BC82D";
paths = (
{
closed = 1;
nodes = (
"775 647 CURVE",
"751 649 OFFCURVE",
"709 652 OFFCURVE",
"684 652 CURVE SMOOTH",
"635 652 OFFCURVE",
"588 635 OFFCURVE",
"588 553 CURVE SMOOTH",
"588 483 OFFCURVE",
"645 443 OFFCURVE",
"689 443 CURVE SMOOTH",
"724 443 OFFCURVE",
"779 443 OFFCURVE",
"833 450 CURVE",
"833 329 LINE SMOOTH",
"833 223 OFFCURVE",
"798 175 OFFCURVE",
"615 175 CURVE SMOOTH",
"413 175 OFFCURVE",
"263 289 OFFCURVE",
"263 544 CURVE SMOOTH",
"263 755 OFFCURVE",
"448 1040 OFFCURVE",
"616 1040 CURVE SMOOTH",
"697 1040 OFFCURVE",
"771 1003 OFFCURVE",
"839 932 CURVE SMOOTH",
"859 913 OFFCURVE",
"889 846 OFFCURVE",
"904 846 CURVE SMOOTH",
"934 846 OFFCURVE",
"952 884 OFFCURVE",
"952 967 CURVE SMOOTH",
"952 1132 OFFCURVE",
"798 1231 OFFCURVE",
"626 1231 CURVE SMOOTH",
"317 1231 OFFCURVE",
"132 777 OFFCURVE",
"132 570 CURVE SMOOTH",
"132 200 OFFCURVE",
"282 -12 OFFCURVE",
"592 -12 CURVE SMOOTH",
"689 -12 OFFCURVE",
"804 40 OFFCURVE",
"839 57 CURVE",
"856 35 OFFCURVE",
"875 -10 OFFCURVE",
"913 -10 CURVE SMOOTH",
"946 -10 OFFCURVE",
"967 4 OFFCURVE",
"968 119 CURVE",
"965 167 OFFCURVE",
"963 215 OFFCURVE",
"963 266 CURVE SMOOTH",
"963 337 OFFCURVE",
"968 400 OFFCURVE",
"968 471 CURVE",
"994 486 OFFCURVE",
"1005 517 OFFCURVE",
"1005 565 CURVE SMOOTH",
"1005 610 OFFCURVE",
"970 664 OFFCURVE",
"934 664 CURVE SMOOTH",
"877 664 OFFCURVE",
"829 647 OFFCURVE"
);
}
);
width = 1099;
}
);
unicode = 0047;
userData = {
com.typemytype.robofont.mark = (
1,
0.6,
0.6,
1
);
};
},
{
glyphname = H;
lastChange = "2021-08-22 03:02:32 +0000";
layers = (
{
anchors = (
{
name = btm;
position = "{563, -297}";
},
{
name = top;
position = "{596, 1497}";
}
);
layerId = "81641B54-5DFF-4E7E-9A9F-73CB636BC82D";
paths = (
{
closed = 1;
nodes = (
"305 492 CURVE",
"373 499 OFFCURVE",
"436 501 OFFCURVE",
"615 501 CURVE SMOOTH",
"671 501 OFFCURVE",
"736 501 OFFCURVE",
"818 501 CURVE",
"812 136 LINE SMOOTH",
"810 20 OFFCURVE",
"836 -12 OFFCURVE",
"889 -12 CURVE SMOOTH",
"934 -12 OFFCURVE",
"963 36 OFFCURVE",
"963 94 CURVE SMOOTH",
"963 134 OFFCURVE",
"963 305 OFFCURVE",
"955 544 CURVE",
"968 610 LINE",
"967 641 OFFCURVE",
"958 671 OFFCURVE",
"949 688 CURVE",
"949 942 OFFCURVE",
"952 993 OFFCURVE",
"952 1025 CURVE SMOOTH",
"952 1152 OFFCURVE",
"938 1221 OFFCURVE",
"875 1221 CURVE SMOOTH",
"820 1221 OFFCURVE",
"812 1154 OFFCURVE",
"810 1074 CURVE SMOOTH",
"810 1057 OFFCURVE",
"810 999 OFFCURVE",
"814 696 CURVE",
"305 696 LINE",
"305 822 OFFCURVE",
"307 965 OFFCURVE",
"307 1092 CURVE SMOOTH",
"307 1146 OFFCURVE",
"268 1216 OFFCURVE",
"238 1216 CURVE SMOOTH",
"139 1216 OFFCURVE",
"165 905 OFFCURVE",
"165 483 CURVE SMOOTH",
"165 394 OFFCURVE",
"160 283 OFFCURVE",
"160 146 CURVE SMOOTH",
"160 60 OFFCURVE",
"169 -10 OFFCURVE",
"228 -10 CURVE SMOOTH",
"256 -10 OFFCURVE",
"309 26 OFFCURVE",
"311 69 CURVE SMOOTH",
"311 91 OFFCURVE",
"309 155 OFFCURVE"
);
}
);
width = 1114;
}
);
unicode = 0048;
userData = {
com.typemytype.robofont.mark = (
1,
0.6,
0.6,
1
);
};
},
{
glyphname = Hbar;
lastChange = "2021-08-22 03:02:32 +0000";
layers = (
{
layerId = "81641B54-5DFF-4E7E-9A9F-73CB636BC82D";
paths = (
{
closed = 1;
nodes = (
"120 804 CURVE",
"1099 804 LINE SMOOTH",
"1126 804 OFFCURVE",
"1154 814 OFFCURVE",
"1154 897 CURVE SMOOTH",
"1154 968 OFFCURVE",
"1126 998 OFFCURVE",
"1092 998 CURVE SMOOTH",
"940 998 OFFCURVE",
"223 993 OFFCURVE",
"112 988 CURVE SMOOTH",
"84 987 OFFCURVE",
"49 958 OFFCURVE",
"49 907 CURVE SMOOTH",
"49 866 OFFCURVE",
"69 804 OFFCURVE"
);
},
{
closed = 1;
nodes = (
"364 382 CURVE",
"431 391 OFFCURVE",
"495 392 OFFCURVE",
"674 392 CURVE SMOOTH",
"729 392 OFFCURVE",
"796 392 OFFCURVE",
"877 392 CURVE",
"871 136 LINE",
"871 20 OFFCURVE",
"894 -12 OFFCURVE",
"946 -12 CURVE SMOOTH",
"993 -12 OFFCURVE",
"1021 36 OFFCURVE",
"1021 94 CURVE SMOOTH",
"1021 134 OFFCURVE",
"1021 305 OFFCURVE",
"1013 544 CURVE",
"1028 610 LINE",
"1025 641 OFFCURVE",
"1015 671 OFFCURVE",
"1008 688 CURVE",
"1008 942 OFFCURVE",
"1009 993 OFFCURVE",
"1009 1025 CURVE SMOOTH",
"1009 1152 OFFCURVE",
"998 1221 OFFCURVE",
"934 1221 CURVE SMOOTH",
"879 1221 OFFCURVE",
"871 1154 OFFCURVE",
"868 1074 CURVE SMOOTH",
"868 1057 OFFCURVE",
"868 891 OFFCURVE",
"874 588 CURVE",
"364 588 LINE",
"364 715 OFFCURVE",
"367 965 OFFCURVE",
"367 1092 CURVE SMOOTH",
"367 1146 OFFCURVE",
"326 1216 OFFCURVE",
"297 1216 CURVE SMOOTH",
"198 1216 OFFCURVE",
"223 905 OFFCURVE",
"223 483 CURVE SMOOTH",
"223 394 OFFCURVE",
"220 283 OFFCURVE",
"220 146 CURVE SMOOTH",
"220 60 OFFCURVE",
"228 -10 OFFCURVE",
"287 -10 CURVE SMOOTH",
"315 -10 OFFCURVE",
"368 26 OFFCURVE",
"371 69 CURVE SMOOTH",
"371 91 OFFCURVE",
"368 45 OFFCURVE"
);
}
);
width = 1219;
}
);
unicode = "0126,0127";
},
{
glyphname = I;
lastChange = "2021-08-22 03:02:32 +0000";
layers = (
{
anchors = (
{
name = btm;
position = "{374, -297}";
},
{
name = top;
position = "{377, 1515}";
}
);
layerId = "81641B54-5DFF-4E7E-9A9F-73CB636BC82D";
paths = (
{
closed = 1;
nodes = (
"537 985 CURVE SMOOTH",
"574 985 OFFCURVE",
"645 1023 OFFCURVE",
"645 1107 CURVE SMOOTH",
"645 1138 OFFCURVE",
"602 1206 OFFCURVE",
"570 1206 CURVE SMOOTH",
"552 1206 OFFCURVE",
"501 1192 OFFCURVE",
"478 1192 CURVE SMOOTH",
"392 1192 OFFCURVE",
"349 1191 OFFCURVE",
"254 1191 CURVE SMOOTH",
"163 1191 OFFCURVE",
"136 1157 OFFCURVE",
"136 1080 CURVE SMOOTH",
"136 1076 LINE SMOOTH",
"136 988 OFFCURVE",
"189 987 OFFCURVE",
"232 987 CURVE SMOOTH",
"287 987 LINE",
"273 802 OFFCURVE",
"260 436 OFFCURVE",
"260 248 CURVE SMOOTH",
"260 203 LINE",
"177 210 LINE",
"136 210 OFFCURVE",
"105 153 OFFCURVE",
"105 98 CURVE SMOOTH",
"105 20 OFFCURVE",
"203 0 OFFCURVE",
"238 0 CURVE SMOOTH",
"489 0 LINE SMOOTH",
"523 0 OFFCURVE",
"570 36 OFFCURVE",
"570 91 CURVE SMOOTH",
"570 139 OFFCURVE",
"555 179 OFFCURVE",
"526 200 CURVE",
"491 200 OFFCURVE",
"472 198 OFFCURVE",
"411 198 CURVE",
"403 277 OFFCURVE",
"400 368 OFFCURVE",
"400 450 CURVE SMOOTH",
"400 739 OFFCURVE",
"413 920 OFFCURVE",
"421 1003 CURVE",
"492 1003 LINE SMOOTH",
"515 1003 OFFCURVE",
"521 985 OFFCURVE"
);
}
);
width = 676;
}
);
unicode = 0049;
userData = {
com.typemytype.robofont.mark = (
1,
0.6,
0.6,
1
);
};
},
{
glyphname = IJ;
lastChange = "2021-08-22 03:02:32 +0000";
layers = (
{
layerId = "81641B54-5DFF-4E7E-9A9F-73CB636BC82D";
paths = (
{
closed = 1;
nodes = (
"268 798 CURVE",
"270 850 OFFCURVE",
"277 913 OFFCURVE",
"293 1119 CURVE",
"293 1168 OFFCURVE",
"287 1211 OFFCURVE",
"240 1216 CURVE SMOOTH",
"139 1223 OFFCURVE",
"122 1182 OFFCURVE",
"119 661 CURVE SMOOTH",
"119 545 OFFCURVE",
"130 404 OFFCURVE",
"229 404 CURVE SMOOTH",
"266 404 OFFCURVE",
"299 439 OFFCURVE",
"299 503 CURVE SMOOTH",
"299 616 OFFCURVE",
"268 689 OFFCURVE"
);
},
{
closed = 1;
nodes = (
"411 -18 CURVE SMOOTH",
"582 -18 OFFCURVE",
"720 58 OFFCURVE",
"825 248 CURVE SMOOTH",
"856 305 OFFCURVE",
"864 507 OFFCURVE",
"866 671 CURVE SMOOTH",
"871 936 LINE SMOOTH",
"874 1094 OFFCURVE",
"860 1209 OFFCURVE",
"810 1209 CURVE SMOOTH",
"743 1209 OFFCURVE",
"715 1129 OFFCURVE",
"715 1062 CURVE SMOOTH",
"715 836 OFFCURVE",
"710 602 OFFCURVE",
"710 391 CURVE SMOOTH",
"710 282 OFFCURVE",
"563 187 OFFCURVE",
"437 187 CURVE SMOOTH",
"387 187 OFFCURVE",
"309 193 OFFCURVE",
"297 218 CURVE SMOOTH",
"287 237 OFFCURVE",
"254 268 OFFCURVE",
"243 268 CURVE SMOOTH",
"189 268 OFFCURVE",
"157 193 OFFCURVE",
"157 142 CURVE SMOOTH",
"157 8 OFFCURVE",
"334 -18 OFFCURVE"
);
}
);
width = 973;
}
);
unicode = 0132;
userData = {
com.typemytype.robofont.mark = (
0.6,
0.986,
1,
1
);
};
},
{
glyphname = Iogonek;
lastChange = "2021-08-22 03:02:32 +0000";
layers = (
{
components = (
{
name = I;
}
);
layerId = "81641B54-5DFF-4E7E-9A9F-73CB636BC82D";
paths = (
{
closed = 1;
nodes = (
"436 -293 CURVE SMOOTH",
"399 -293 OFFCURVE",
"354 -260 OFFCURVE",
"337 -208 CURVE",
"337 -8 OFFCURVE",
"565 -35 OFFCURVE",
"565 74 CURVE SMOOTH",
"565 129 OFFCURVE",
"525 153 OFFCURVE",
"511 153 CURVE",
"466 124 OFFCURVE",
"458 105 OFFCURVE",
"394 60 CURVE SMOOTH",
"311 4 OFFCURVE",
"193 -59 OFFCURVE",
"193 -248 CURVE SMOOTH",
"193 -377 OFFCURVE",
"295 -466 OFFCURVE",
"423 -466 CURVE SMOOTH",
"502 -466 OFFCURVE",
"605 -450 OFFCURVE",
"605 -309 CURVE SMOOTH",
"605 -270 OFFCURVE",
"590 -230 OFFCURVE",
"563 -230 CURVE SMOOTH",
"505 -230 OFFCURVE",
"499 -293 OFFCURVE"
);
}
);
width = 676;
}
);
unicode = 012E;
},
{
glyphname = J;
lastChange = "2021-08-22 03:02:32 +0000";
layers = (
{
anchors = (
{
name = btm;
position = "{378, -297}";
},
{
name = top;
position = "{625, 1497}";
}
);
layerId = "81641B54-5DFF-4E7E-9A9F-73CB636BC82D";
paths = (
{
closed = 1;
nodes = (
"146 258 CURVE SMOOTH",
"94 258 OFFCURVE",
"66 189 OFFCURVE",
"66 142 CURVE SMOOTH",
"66 8 OFFCURVE",
"200 -18 OFFCURVE",
"258 -18 CURVE SMOOTH",
"413 -18 OFFCURVE",
"547 58 OFFCURVE",
"645 248 CURVE SMOOTH",
"666 292 OFFCURVE",
"688 565 OFFCURVE",
"688 696 CURVE SMOOTH",
"688 940 OFFCURVE",
"715 1219 OFFCURVE",
"626 1219 CURVE SMOOTH",
"563 1219 OFFCURVE",
"542 1142 OFFCURVE",
"542 1074 CURVE SMOOTH",
"542 820 OFFCURVE",
"535 619 OFFCURVE",
"535 391 CURVE SMOOTH",
"535 277 OFFCURVE",
"400 181 OFFCURVE",
"284 181 CURVE SMOOTH",
"213 181 OFFCURVE",
"193 258 OFFCURVE"
);
}
);
width = 792;
}
);
unicode = 004A;
userData = {
com.typemytype.robofont.mark = (
1,
0.6,
0.6,
1
);
};
},
{
glyphname = K;
lastChange = "2021-08-22 03:02:32 +0000";
layers = (
{
anchors = (
{
name = btm;
position = "{550, -297}";
},
{
name = top;
position = "{518, 1429}";
}
);
layerId = "81641B54-5DFF-4E7E-9A9F-73CB636BC82D";
paths = (
{
closed = 1;
nodes = (
"812 359 CURVE",
"705 590 LINE SMOOTH",
"674 655 OFFCURVE",
"641 726 OFFCURVE",
"602 792 CURVE",
"716 955 OFFCURVE",
"829 975 OFFCURVE",
"829 1126 CURVE SMOOTH",
"829 1191 OFFCURVE",
"792 1216 OFFCURVE",
"775 1216 CURVE SMOOTH",
"694 1213 OFFCURVE",
"679 1146 OFFCURVE",
"626 1083 CURVE SMOOTH",
"588 1035 OFFCURVE",
"590 1035 OFFCURVE",
"515 930 CURVE",
"472 924 OFFCURVE",
"454 894 OFFCURVE",
"427 839 CURVE",
"391 781 OFFCURVE",
"337 729 OFFCURVE",
"305 676 CURVE",
"303 681 OFFCURVE",
"303 706 OFFCURVE",
"303 729 CURVE SMOOTH",
"303 755 OFFCURVE",
"303 779 OFFCURVE",
"303 792 CURVE SMOOTH",
"315 1126 LINE",
"315 1192 OFFCURVE",
"282 1221 OFFCURVE",
"253 1221 CURVE SMOOTH",
"200 1221 OFFCURVE",
"183 1157 OFFCURVE",
"181 1112 CURVE SMOOTH",
"173 909 OFFCURVE",
"169 715 OFFCURVE",
"165 518 CURVE SMOOTH",
"157 192 LINE",
"157 74 OFFCURVE",
"165 -25 OFFCURVE",
"248 -25 CURVE SMOOTH",
"279 -25 OFFCURVE",
"324 8 OFFCURVE",
"322 66 CURVE SMOOTH",
"317 193 LINE SMOOTH",
"315 256 OFFCURVE",
"307 319 OFFCURVE",
"309 436 CURVE",
"352 499 OFFCURVE",
"443 619 OFFCURVE",
"502 676 CURVE",
"489 678 LINE",
"540 616 OFFCURVE",
"715 208 OFFCURVE",
"750 105 CURVE SMOOTH",
"781 12 OFFCURVE",
"820 -104 OFFCURVE",
"860 -104 CURVE SMOOTH",
"924 -104 OFFCURVE",
"942 -49 OFFCURVE",
"942 18 CURVE SMOOTH",
"942 95 OFFCURVE",
"860 254 OFFCURVE"
);
}
);
width = 1005;
}
);
unicode = 004B;
userData = {
com.typemytype.robofont.mark = (
1,
0.6,
0.6,
1
);
};
},
{
glyphname = L;
lastChange = "2021-08-22 03:02:32 +0000";
layers = (
{
anchors = (
{
name = btm;
position = "{501, -297}";
},
{
name = top;
position = "{406, 1429}";
}
);
layerId = "81641B54-5DFF-4E7E-9A9F-73CB636BC82D";
paths = (
{
closed = 1;
nodes = (
"775 -10 CURVE SMOOTH",
"810 -10 OFFCURVE",
"856 53 OFFCURVE",
"856 101 CURVE SMOOTH",
"856 160 OFFCURVE",
"825 213 OFFCURVE",
"788 215 CURVE",
"696 203 OFFCURVE",
"684 200 OFFCURVE",
"671 200 CURVE SMOOTH",
"537 200 OFFCURVE",
"427 208 OFFCURVE",
"301 213 CURVE",
"289 664 LINE SMOOTH",
"287 760 OFFCURVE",
"287 860 OFFCURVE",
"287 952 CURVE",
"293 1023 OFFCURVE",
"297 1047 OFFCURVE",
"297 1102 CURVE SMOOTH",
"297 1162 OFFCURVE",
"254 1217 OFFCURVE",
"218 1217 CURVE SMOOTH",
"157 1217 OFFCURVE",
"150 1144 OFFCURVE",
"150 944 CURVE SMOOTH",
"150 740 OFFCURVE",
"165 533 OFFCURVE",
"165 329 CURVE",
"153 200 OFFCURVE",
"146 144 OFFCURVE",
"146 66 CURVE SMOOTH",
"146 4 OFFCURVE",
"160 0 OFFCURVE",
"181 0 CURVE",
"287 -10 OFFCURVE",
"305 -10 OFFCURVE",
"317 -10 CURVE SMOOTH",
"373 -10 OFFCURVE",
"421 0 OFFCURVE",
"466 0 CURVE SMOOTH",
"582 0 OFFCURVE",
"681 -10 OFFCURVE"
);
}
);
width = 891;
}
);
unicode = 004C;
userData = {
com.typemytype.robofont.mark = (
1,
0.6,
0.6,
1
);
};
},
{
glyphname = Ldot;
lastChange = "2021-08-22 03:02:32 +0000";
layers = (
{
components = (
{
name = L;
},
{
name = dotaccent;
transform = "{1, 0, 0, 1, 472, -588}";
}
);
layerId = "81641B54-5DFF-4E7E-9A9F-73CB636BC82D";
paths = (
{
closed = 1;
nodes = (
"739 213 LINE",
"736 213 OFFCURVE",
"734 212 OFFCURVE",
"732 212 CURVE"
);
}
);
width = 825;
}
);
unicode = 013F;
userData = {
com.typemytype.robofont.mark = (
0.6,
0.986,
1,
1
);
};
},
{
glyphname = Lslash;
lastChange = "2021-08-22 03:02:32 +0000";
layers = (
{
components = (
{
name = L;
}
);
layerId = "81641B54-5DFF-4E7E-9A9F-73CB636BC82D";
paths = (
{
closed = 1;
nodes = (
"586 775 CURVE SMOOTH",
"615 796 OFFCURVE",
"671 836 OFFCURVE",
"671 891 CURVE SMOOTH",
"671 955 OFFCURVE",
"629 973 OFFCURVE",
"585 973 CURVE SMOOTH",
"567 973 OFFCURVE",
"542 963 OFFCURVE",
"532 955 CURVE SMOOTH",
"382 856 OFFCURVE",
"177 702 OFFCURVE",
"36 641 CURVE SMOOTH",
"0 625 OFFCURVE",
"-35 592 OFFCURVE",
"-35 555 CURVE SMOOTH",
"-35 499 OFFCURVE",
"-18 454 OFFCURVE",
"33 454 CURVE SMOOTH",
"88 454 OFFCURVE",
"163 499 OFFCURVE"
);
}
);
width = 920;
}
);
unicode = 0141;
},
{
glyphname = M;
lastChange = "2021-08-22 03:02:32 +0000";
layers = (
{
anchors = (
{
name = btm;
position = "{643, -297}";
},
{
name = top;
position = "{689, 1429}";
}
);
layerId = "81641B54-5DFF-4E7E-9A9F-73CB636BC82D";
paths = (
{
closed = 1;
nodes = (
"955 94 CURVE SMOOTH",
"955 0 OFFCURVE",
"1050 -20 OFFCURVE",
"1054 -20 CURVE SMOOTH",
"1066 -20 OFFCURVE",
"1111 2 OFFCURVE",
"1112 60 CURVE SMOOTH",
"1129 696 LINE SMOOTH",
"1133 834 OFFCURVE",
"1146 958 OFFCURVE",
"1146 1094 CURVE SMOOTH",
"1146 1164 OFFCURVE",
"1117 1209 OFFCURVE",
"1064 1209 CURVE SMOOTH",
"1035 1209 OFFCURVE",
"999 1159 OFFCURVE",
"990 1112 CURVE",
"895 913 OFFCURVE",
"740 570 OFFCURVE",
"700 503 CURVE SMOOTH",
"657 434 OFFCURVE",
"639 417 OFFCURVE",
"620 417 CURVE",
"591 453 OFFCURVE",
"476 696 OFFCURVE",
"439 781 CURVE SMOOTH",
"373 934 OFFCURVE",
"337 1038 OFFCURVE",
"329 1102 CURVE SMOOTH",
"329 1107 OFFCURVE",
"329 1109 OFFCURVE",
"329 1112 CURVE SMOOTH",
"329 1159 OFFCURVE",
"303 1217 OFFCURVE",
"263 1217 CURVE SMOOTH",
"144 1217 OFFCURVE",
"160 926 OFFCURVE",
"149 243 CURVE SMOOTH",
"149 208 OFFCURVE",
"142 160 OFFCURVE",
"142 119 CURVE SMOOTH",
"142 53 OFFCURVE",
"147 -5 OFFCURVE",
"222 -5 CURVE SMOOTH",
"269 -5 OFFCURVE",
"287 55 OFFCURVE",
"287 146 CURVE SMOOTH",
"287 149 OFFCURVE",
"283 155 OFFCURVE",
"273 222 CURVE",
"273 406 OFFCURVE",
"254 662 OFFCURVE",
"263 781 CURVE",
"382 523 LINE SMOOTH",
"416 449 OFFCURVE",
"532 189 OFFCURVE",
"586 189 CURVE SMOOTH",
"681 187 OFFCURVE",
"788 423 OFFCURVE",
"894 612 CURVE SMOOTH",
"930 679 LINE SMOOTH",
"958 724 OFFCURVE",
"973 802 OFFCURVE",
"998 836 CURVE",
"988 266 LINE SMOOTH",
"987 215 OFFCURVE",
"955 157 OFFCURVE"
);
}
);
width = 1276;
}
);
unicode = 004D;
userData = {
com.typemytype.robofont.mark = (
1,
0.6,
0.6,
1
);
};
},
{
glyphname = N;
lastChange = "2021-08-22 03:02:32 +0000";
layers = (
{
anchors = (
{
name = btm;
position = "{552, -297}";
},
{
name = top;
position = "{553, 1515}";
}
);
layerId = "81641B54-5DFF-4E7E-9A9F-73CB636BC82D";
paths = (
{
closed = 1;
nodes = (
"716 23 CURVE",
"724 4 OFFCURVE",
"755 -29 OFFCURVE",
"781 -29 CURVE SMOOTH",
"885 -29 OFFCURVE",
"894 85 OFFCURVE",
"897 187 CURVE SMOOTH",
"897 213 LINE",
"928 540 OFFCURVE",
"955 814 OFFCURVE",
"955 1126 CURVE SMOOTH",
"955 1233 OFFCURVE",
"932 1241 OFFCURVE",
"881 1241 CURVE SMOOTH",
"818 1241 OFFCURVE",
"808 1184 OFFCURVE",
"804 1028 CURVE SMOOTH",
"781 232 OFFCURVE",
"775 243 OFFCURVE",
"767 243 CURVE SMOOTH",
"740 243 OFFCURVE",
"416 706 OFFCURVE",
"352 1021 CURVE SMOOTH",
"332 1123 OFFCURVE",
"303 1216 OFFCURVE",
"225 1216 CURVE SMOOTH",
"184 1216 OFFCURVE",
"163 1128 OFFCURVE",
"163 1089 CURVE SMOOTH",
"163 946 OFFCURVE",
"167 904 OFFCURVE",
"167 868 CURVE SMOOTH",
"167 779 OFFCURVE",
"167 705 OFFCURVE",
"157 491 CURVE",
"153 153 LINE SMOOTH",
"150 66 OFFCURVE",
"140 -5 OFFCURVE",
"220 -5 CURVE SMOOTH",
"272 -5 OFFCURVE",
"291 57 OFFCURVE",
"291 181 CURVE SMOOTH",
"291 248 OFFCURVE",
"293 284 OFFCURVE",
"293 456 CURVE SMOOTH",
"293 501 OFFCURVE",
"293 664 OFFCURVE",
"297 734 CURVE",
"399 492 OFFCURVE",
"560 218 OFFCURVE"
);
}
);
width = 1076;
}
);
unicode = 004E;
userData = {
com.typemytype.robofont.mark = (
1,
0.6,
0.6,
1
);
};
},
{
glyphname = Eng;
lastChange = "2021-08-22 03:02:32 +0000";
layers = (
{
layerId = "81641B54-5DFF-4E7E-9A9F-73CB636BC82D";
paths = (
{
closed = 1;
nodes = (
"743 -53 CURVE",
"743 -59 OFFCURVE",
"743 -66 OFFCURVE",
"743 -71 CURVE SMOOTH",
"743 -208 OFFCURVE",
"657 -352 OFFCURVE",
"507 -352 CURVE SMOOTH",
"408 -352 OFFCURVE",
"409 -268 OFFCURVE",
"371 -268 CURVE SMOOTH",
"313 -268 OFFCURVE",
"289 -342 OFFCURVE",
"289 -387 CURVE SMOOTH",
"289 -517 OFFCURVE",
"421 -545 OFFCURVE",
"478 -545 CURVE SMOOTH",
"635 -545 OFFCURVE",
"745 -471 OFFCURVE",
"836 -293 CURVE SMOOTH",
"914 -144 OFFCURVE",
"885 368 OFFCURVE",
"897 580 CURVE",
"920 1087 OFFCURVE",
"922 1119 OFFCURVE",
"922 1171 CURVE SMOOTH",
"922 1276 OFFCURVE",
"899 1283 OFFCURVE",
"849 1283 CURVE SMOOTH",
"788 1283 OFFCURVE",
"777 1213 OFFCURVE",
"775 1083 CURVE",
"765 975 OFFCURVE",
"769 213 OFFCURVE",
"734 213 CURVE SMOOTH",
"709 213 OFFCURVE",
"382 686 OFFCURVE",
"319 999 CURVE SMOOTH",
"299 1102 OFFCURVE",
"270 1192 OFFCURVE",
"193 1192 CURVE SMOOTH",
"153 1192 OFFCURVE",
"130 1107 OFFCURVE",
"130 1066 CURVE SMOOTH",
"130 987 OFFCURVE",
"134 916 OFFCURVE",
"134 846 CURVE SMOOTH",
"134 661 OFFCURVE",
"124 592 OFFCURVE",
"124 491 CURVE",
"120 212 OFFCURVE",
"120 184 OFFCURVE",
"120 153 CURVE SMOOTH",
"120 66 OFFCURVE",
"129 -5 OFFCURVE",
"208 -5 CURVE SMOOTH",
"258 -5 OFFCURVE",
"259 57 OFFCURVE",
"259 134 CURVE SMOOTH",
"259 334 OFFCURVE",
"260 391 OFFCURVE",
"260 705 CURVE",
"384 466 OFFCURVE",
"592 130 OFFCURVE"
);
}
);
width = 1009;
}
);
unicode = 014A;
userData = {
com.typemytype.robofont.mark = (
0.967,
0.6,
1,
1
);
};
},
{
glyphname = O;
lastChange = "2021-08-22 03:02:32 +0000";
layers = (
{
anchors = (
{
name = btm;
position = "{619, -297}";
},
{
name = top;
position = "{651, 1515}";
}
);
layerId = "81641B54-5DFF-4E7E-9A9F-73CB636BC82D";
paths = (
{
closed = 1;
nodes = (
"115 590 CURVE",
"115 307 OFFCURVE",
"342 -23 OFFCURVE",
"619 -23 CURVE SMOOTH",
"884 -23 OFFCURVE",
"1123 229 OFFCURVE",
"1123 598 CURVE SMOOTH",
"1123 987 OFFCURVE",
"958 1221 OFFCURVE",
"651 1221 CURVE SMOOTH",
"382 1221 OFFCURVE",
"122 1048 OFFCURVE"
);
},
{
closed = 1;
nodes = (
"243 619 CURVE SMOOTH",
"243 899 OFFCURVE",
"454 1033 OFFCURVE",
"666 1033 CURVE SMOOTH",
"860 1033 OFFCURVE",
"1002 864 OFFCURVE",
"1002 592 CURVE SMOOTH",
"1002 315 OFFCURVE",
"812 169 OFFCURVE",
"610 169 CURVE SMOOTH",
"418 169 OFFCURVE",
"243 403 OFFCURVE"
);
}
);
width = 1248;
}
);
unicode = 004F;
userData = {
com.typemytype.robofont.mark = (
1,
0.6,
0.6,
1
);
};
},
{
glyphname = Ohorn;
lastChange = "2021-08-22 03:02:32 +0000";
layers = (
{
anchors = (
{
name = btm;
position = "{616, -297}";
},
{
name = top;
position = "{602, 1515}";
}
);
layerId = "81641B54-5DFF-4E7E-9A9F-73CB636BC82D";
paths = (
{
closed = 1;
nodes = (
"1142 1246 CURVE SMOOTH",
"1178 1246 OFFCURVE",
"1246 1211 OFFCURVE",
"1246 1157 CURVE SMOOTH",
"1246 1018 OFFCURVE",
"985 1030 OFFCURVE",
"985 901 CURVE SMOOTH",
"985 850 OFFCURVE",
"1023 822 OFFCURVE",
"1048 822 CURVE",
"1191 905 LINE",
"1264 965 OFFCURVE",
"1388 1015 OFFCURVE",
"1388 1201 CURVE SMOOTH",
"1388 1328 OFFCURVE",
"1286 1421 OFFCURVE",
"1156 1421 CURVE SMOOTH",
"1080 1421 OFFCURVE",
"955 1404 OFFCURVE",
"955 1264 CURVE SMOOTH",
"955 1223 OFFCURVE",
"965 1181 OFFCURVE",
"993 1181 CURVE SMOOTH",
"1058 1181 OFFCURVE",
"1057 1246 OFFCURVE"
);
},
{
closed = 1;
nodes = (
"105 590 CURVE",
"105 307 OFFCURVE",
"342 -23 OFFCURVE",
"619 -23 CURVE SMOOTH",
"884 -23 OFFCURVE",
"1133 229 OFFCURVE",
"1133 598 CURVE SMOOTH",
"1133 987 OFFCURVE",
"958 1221 OFFCURVE",
"651 1221 CURVE SMOOTH",
"382 1221 OFFCURVE",
"112 1048 OFFCURVE"
);
},
{
closed = 1;
nodes = (
"243 619 CURVE SMOOTH",
"243 899 OFFCURVE",
"454 1033 OFFCURVE",
"666 1033 CURVE SMOOTH",
"860 1033 OFFCURVE",
"1002 864 OFFCURVE",
"1002 592 CURVE SMOOTH",
"1002 315 OFFCURVE",
"812 169 OFFCURVE",
"610 169 CURVE SMOOTH",
"418 169 OFFCURVE",
"243 403 OFFCURVE"
);
}
);
width = 1248;
}
);
unicode = 01A0;
userData = {
com.typemytype.robofont.mark = (
1,
0.6,
0.6,
1
);
};
},
{
glyphname = Oslash;
lastChange = "2021-08-22 03:02:32 +0000";
layers = (
{
layerId = "81641B54-5DFF-4E7E-9A9F-73CB636BC82D";
paths = (
{
closed = 1;
nodes = (
"1102 595 CURVE SMOOTH",
"1102 775 OFFCURVE",
"1054 930 OFFCURVE",
"987 1035 CURVE",
"1025 1083 LINE SMOOTH",
"1035 1094 OFFCURVE",
"1047 1121 OFFCURVE",
"1047 1159 CURVE SMOOTH",
"1047 1216 OFFCURVE",
"1005 1243 OFFCURVE",
"977 1243 CURVE SMOOTH",
"958 1243 OFFCURVE",
"920 1202 OFFCURVE",
"899 1183 CURVE SMOOTH",
"871 1154 LINE",
"868 1154 OFFCURVE",
"863 1157 OFFCURVE",
"860 1157 CURVE SMOOTH",
"790 1192 OFFCURVE",
"705 1221 OFFCURVE",
"619 1221 CURVE SMOOTH",
"354 1221 OFFCURVE",
"76 1052 OFFCURVE",
"76 595 CURVE SMOOTH",
"76 458 OFFCURVE",
"144 287 OFFCURVE",
"218 183 CURVE",
"163 91 LINE",
"159 79 OFFCURVE",
"150 58 OFFCURVE",
"150 49 CURVE SMOOTH",
"150 -5 OFFCURVE",
"213 -66 OFFCURVE",
"238 -66 CURVE SMOOTH",
"273 -66 OFFCURVE",
"313 0 OFFCURVE",
"337 50 CURVE",
"408 14 OFFCURVE",
"508 -23 OFFCURVE",
"586 -23 CURVE SMOOTH",
"856 -23 OFFCURVE",
"1102 229 OFFCURVE"
);
},
{
closed = 1;
nodes = (
"218 616 CURVE SMOOTH",
"218 894 OFFCURVE",
"423 1025 OFFCURVE",
"633 1025 CURVE SMOOTH",
"681 1025 OFFCURVE",
"715 1018 OFFCURVE",
"750 998 CURVE",
"602 792 OFFCURVE",
"418 491 OFFCURVE",
"319 339 CURVE",
"256 418 OFFCURVE",
"218 523 OFFCURVE"
);
},
{
closed = 1;
nodes = (
"437 218 CURVE",
"462 260 OFFCURVE",
"481 297 OFFCURVE",
"523 364 CURVE SMOOTH",
"681 621 LINE SMOOTH",
"736 710 OFFCURVE",
"815 831 OFFCURVE",
"874 899 CURVE",
"922 833 OFFCURVE",
"963 715 OFFCURVE",
"963 602 CURVE SMOOTH",
"963 324 OFFCURVE",
"779 175 OFFCURVE",
"578 175 CURVE SMOOTH",
"528 175 OFFCURVE",
"473 189 OFFCURVE"
);
}
);
width = 1184;
}
);
unicode = 00D8;
},
{
glyphname = OE;
lastChange = "2021-08-22 03:02:32 +0000";
layers = (
{
anchors = (
{
name = btm;
position = "{930, -297}";
}
);
layerId = "81641B54-5DFF-4E7E-9A9F-73CB636BC82D";
paths = (
{
closed = 1;
nodes = (
"1126 208 CURVE",
"1126 274 OFFCURVE",
"1128 368 OFFCURVE",
"1128 532 CURVE",
"1522 532 LINE SMOOTH",
"1565 532 OFFCURVE",
"1583 612 OFFCURVE",
"1583 635 CURVE SMOOTH",
"1583 709 OFFCURVE",
"1551 736 OFFCURVE",
"1516 736 CURVE SMOOTH",
"1471 736 OFFCURVE",
"1435 726 OFFCURVE",
"1400 726 CURVE SMOOTH",
"1335 726 OFFCURVE",
"1297 732 OFFCURVE",
"1121 732 CURVE",
"1121 1012 LINE",
"1681 1003 LINE SMOOTH",
"1713 1003 OFFCURVE",
"1745 1060 OFFCURVE",
"1745 1102 CURVE SMOOTH",
"1745 1191 OFFCURVE",
"1718 1201 OFFCURVE",
"1630 1201 CURVE SMOOTH",
"1444 1201 OFFCURVE",
"1317 1192 OFFCURVE",
"1188 1192 CURVE SMOOTH",
"1144 1192 OFFCURVE",
"1109 1231 OFFCURVE",
"1066 1231 CURVE SMOOTH",
"1021 1231 OFFCURVE",
"1003 1094 OFFCURVE",
"998 1042 CURVE",
"932 1149 OFFCURVE",
"781 1221 OFFCURVE",
"655 1221 CURVE SMOOTH",
"382 1221 OFFCURVE",
"116 1050 OFFCURVE",
"116 590 CURVE SMOOTH",
"116 307 OFFCURVE",
"346 -23 OFFCURVE",
"625 -23 CURVE SMOOTH",
"732 -23 OFFCURVE",
"942 53 OFFCURVE",
"983 136 CURVE",
"983 5 OFFCURVE",
"1021 -12 OFFCURVE",
"1066 -12 CURVE SMOOTH",
"1142 -12 OFFCURVE",
"1201 -2 OFFCURVE",
"1254 -2 CURVE SMOOTH",
"1620 -2 OFFCURVE",
"1565 -29 OFFCURVE",
"1625 -29 CURVE SMOOTH",
"1679 -29 OFFCURVE",
"1728 -5 OFFCURVE",
"1728 76 CURVE SMOOTH",
"1728 155 OFFCURVE",
"1709 193 OFFCURVE",
"1625 193 CURVE SMOOTH",
"1456 193 OFFCURVE",
"1299 208 OFFCURVE"
);
},
{
closed = 1;
nodes = (
"254 616 CURVE SMOOTH",
"254 891 OFFCURVE",
"458 1025 OFFCURVE",
"671 1025 CURVE SMOOTH",
"792 1025 OFFCURVE",
"934 924 OFFCURVE",
"999 814 CURVE",
"999 781 OFFCURVE",
"998 722 OFFCURVE",
"998 691 CURVE",
"987 679 OFFCURVE",
"977 652 OFFCURVE",
"977 626 CURVE SMOOTH",
"977 605 OFFCURVE",
"987 578 OFFCURVE",
"993 555 CURVE",
"993 392 LINE",
"916 260 OFFCURVE",
"743 175 OFFCURVE",
"616 175 CURVE SMOOTH",
"426 175 OFFCURVE",
"254 403 OFFCURVE"
);
}
);
width = 1858;
}
);
unicode = 0152;
userData = {
com.typemytype.robofont.mark = (
1,
0.6,
0.6,
1
);
};
},
{
glyphname = P;
lastChange = "2021-08-22 03:02:32 +0000";
layers = (
{
anchors = (
{
name = btm;
position = "{532, -297}";
},
{
name = top;
position = "{535, 1515}";
}
);
layerId = "81641B54-5DFF-4E7E-9A9F-73CB636BC82D";
paths = (
{
closed = 1;
nodes = (
"150 478 CURVE SMOOTH",
"150 461 OFFCURVE",
"160 427 OFFCURVE",
"167 413 CURVE",
"147 203 LINE SMOOTH",
"125 -24 OFFCURVE",
"192 -10 OFFCURVE",
"236 -10 CURVE SMOOTH",
"253 -10 OFFCURVE",
"302 -5 OFFCURVE",
"302 63 CURVE",
"283 332 OFFCURVE",
"301 342 OFFCURVE",
"297 384 CURVE",
"307 381 OFFCURVE",
"322 378 OFFCURVE",
"332 378 CURVE SMOOTH",
"678 378 OFFCURVE",
"914 533 OFFCURVE",
"914 875 CURVE SMOOTH",
"914 1076 OFFCURVE",
"836 1198 OFFCURVE",
"581 1198 CURVE",
"481 1202 OFFCURVE",
"366 1140 OFFCURVE",
"317 1090 CURVE",
"301 1090 OFFCURVE",
"279 1134 OFFCURVE",
"262 1134 CURVE SMOOTH",
"157 1129 OFFCURVE",
"167 874 OFFCURVE",
"167 639 CURVE SMOOTH",
"167 574 OFFCURVE",
"150 537 OFFCURVE"
);
},
{
closed = 1;
nodes = (
"295 600 CURVE",
"305 904 OFFCURVE",
"312 944 OFFCURVE",
"312 952 CURVE",
"337 983 OFFCURVE",
"473 1015 OFFCURVE",
"542 1015 CURVE SMOOTH",
"715 1015 OFFCURVE",
"791 934 OFFCURVE",
"791 822 CURVE SMOOTH",
"791 666 OFFCURVE",
"595 582 OFFCURVE",
"396 582 CURVE SMOOTH",
"354 582 OFFCURVE",
"327 590 OFFCURVE"
);
}
);
width = 988;
}
);
unicode = 0050;
userData = {
com.typemytype.robofont.mark = (
1,
0.6,
0.6,
1
);
};
},
{
glyphname = Thorn;
lastChange = "2021-08-22 03:02:32 +0000";
layers = (
{
anchors = (
{
name = btm;
position = "{517, -297}";
}
);
layerId = "81641B54-5DFF-4E7E-9A9F-73CB636BC82D";
paths = (
{
closed = 1;
nodes = (
"356 223 LINE",
"518 223 OFFCURVE",
"732 313 OFFCURVE",
"802 384 CURVE SMOOTH",
"829 411 OFFCURVE",
"894 495 OFFCURVE",
"894 679 CURVE SMOOTH",
"894 881 OFFCURVE",
"767 988 OFFCURVE",
"515 988 CURVE SMOOTH",
"446 988 OFFCURVE",
"391 973 OFFCURVE",
"303 955 CURVE",
"305 1216 LINE SMOOTH",
"305 1236 OFFCURVE",
"277 1248 OFFCURVE",
"238 1248 CURVE SMOOTH",
"184 1248 OFFCURVE",
"159 1204 OFFCURVE",
"159 1114 CURVE",
"144 99 LINE SMOOTH",
"142 5 OFFCURVE",
"163 -29 OFFCURVE",
"223 -29 CURVE SMOOTH",
"248 -29 OFFCURVE",
"301 -20 OFFCURVE",
"301 45 CURVE SMOOTH",
"301 101 OFFCURVE",
"289 177 OFFCURVE",
"289 225 CURVE"
);
},
{
closed = 1;
nodes = (
"521 798 CURVE SMOOTH",
"686 798 OFFCURVE",
"753 736 OFFCURVE",
"753 625 CURVE SMOOTH",
"753 466 OFFCURVE",
"580 423 OFFCURVE",
"399 423 CURVE SMOOTH",
"363 423 OFFCURVE",
"332 431 OFFCURVE",
"299 448 CURVE",
"299 760 LINE",
"326 790 OFFCURVE",
"454 798 OFFCURVE"
);
}
);
width = 968;
}
);
unicode = 00DE;
userData = {
com.typemytype.robofont.mark = (
1,
0.6,
0.6,
1
);
};
},
{
glyphname = Q;
lastChange = "2021-08-22 03:02:32 +0000";
layers = (
{
anchors = (
{
name = btm;
position = "{649, -297}";
},
{
name = top;
position = "{580, 1429}";
}
);
layerId = "81641B54-5DFF-4E7E-9A9F-73CB636BC82D";
paths = (
{
closed = 1;
nodes = (
"105 610 CURVE SMOOTH",
"105 218 OFFCURVE",
"287 -23 OFFCURVE",
"590 -23 CURVE SMOOTH",
"853 -23 OFFCURVE",
"1139 153 OFFCURVE",
"1139 610 CURVE SMOOTH",
"1139 894 OFFCURVE",
"904 1221 OFFCURVE",
"625 1221 CURVE SMOOTH",
"356 1221 OFFCURVE",
"105 973 OFFCURVE"
);
},
{
closed = 1;
nodes = (
"633 1038 CURVE SMOOTH",
"825 1038 OFFCURVE",
"999 800 OFFCURVE",
"999 574 CURVE SMOOTH",
"999 301 OFFCURVE",
"790 169 OFFCURVE",
"578 169 CURVE SMOOTH",
"382 169 OFFCURVE",
"244 329 OFFCURVE",
"244 595 CURVE SMOOTH",
"244 879 OFFCURVE",
"426 1038 OFFCURVE"
);
},
{
closed = 1;
nodes = (
"1038 -144 CURVE SMOOTH",
"1060 -185 OFFCURVE",
"1109 -192 OFFCURVE",
"1132 -192 CURVE SMOOTH",
"1174 -192 OFFCURVE",
"1194 -158 OFFCURVE",
"1194 -105 CURVE SMOOTH",
"1194 -29 OFFCURVE",
"1005 254 OFFCURVE",
"916 352 CURVE SMOOTH",
"881 391 OFFCURVE",
"804 526 OFFCURVE",
"712 526 CURVE SMOOTH",
"681 526 OFFCURVE",
"660 486 OFFCURVE",
"660 426 CURVE SMOOTH",
"660 377 LINE",
"822 232 OFFCURVE",
"1028 -126 OFFCURVE"
);
}
);
width = 1270;
}
);
unicode = 0051;
userData = {
com.typemytype.robofont.mark = (
1,
0.6,
0.6,
1
);
};
},
{
glyphname = R;
lastChange = "2021-08-22 03:02:32 +0000";
layers = (
{
anchors = (
{
name = btm;
position = "{555, -297}";
},
{
name = top;
position = "{552, 1515}";
}
);
layerId = "81641B54-5DFF-4E7E-9A9F-73CB636BC82D";
paths = (
{
closed = 1;
nodes = (
"293 481 CURVE",
"344 507 OFFCURVE",
"448 533 OFFCURVE",
"483 533 CURVE SMOOTH",
"596 533 OFFCURVE",
"760 495 OFFCURVE",
"812 387 CURVE",
"822 328 OFFCURVE",
"824 292 OFFCURVE",
"824 237 CURVE SMOOTH",
"824 184 OFFCURVE",
"822 134 OFFCURVE",
"822 85 CURVE SMOOTH",
"822 60 LINE SMOOTH",
"822 -5 OFFCURVE",
"832 -60 OFFCURVE",
"887 -60 CURVE SMOOTH",
"959 -60 OFFCURVE",
"960 55 OFFCURVE",
"960 173 CURVE SMOOTH",
"960 421 OFFCURVE",
"930 605 OFFCURVE",
"715 678 CURVE",
"781 720 OFFCURVE",
"844 792 OFFCURVE",
"844 914 CURVE SMOOTH",
"844 1109 OFFCURVE",
"705 1194 OFFCURVE",
"570 1194 CURVE SMOOTH",
"437 1194 OFFCURVE",
"315 1128 OFFCURVE",
"208 1023 CURVE",
"155 967 OFFCURVE",
"150 823 OFFCURVE",
"150 730 CURVE SMOOTH",
"150 441 OFFCURVE",
"183 256 OFFCURVE",
"183 195 CURVE SMOOTH",
"183 167 OFFCURVE",
"175 130 OFFCURVE",
"175 101 CURVE SMOOTH",
"175 45 OFFCURVE",
"208 -14 OFFCURVE",
"248 -14 CURVE SMOOTH",
"299 -14 OFFCURVE",
"334 25 OFFCURVE",
"334 88 CURVE",
"312 184 OFFCURVE",
"295 367 OFFCURVE"
);
},
{
closed = 1;
nodes = (
"277 856 CURVE SMOOTH",
"279 949 OFFCURVE",
"471 1013 OFFCURVE",
"572 1013 CURVE SMOOTH",
"641 1013 OFFCURVE",
"719 987 OFFCURVE",
"719 891 CURVE SMOOTH",
"719 814 OFFCURVE",
"429 722 OFFCURVE",
"282 694 CURVE",
"277 724 OFFCURVE",
"274 757 OFFCURVE",
"274 794 CURVE SMOOTH",
"274 814 OFFCURVE",
"277 836 OFFCURVE"
);
}
);
width = 1060;
}
);
unicode = 0052;
userData = {
com.typemytype.robofont.mark = (
1,
0.6,
0.6,
1
);
};
},
{
glyphname = S;
lastChange = "2021-08-22 03:02:32 +0000";
layers = (
{
anchors = (
{
name = btm;
position = "{481, -297}";
},
{
name = top;
position = "{511, 1515}";
}
);
layerId = "81641B54-5DFF-4E7E-9A9F-73CB636BC82D";
paths = (
{
closed = 1;
nodes = (
"850 344 CURVE SMOOTH",
"850 704 OFFCURVE",
"238 592 OFFCURVE",
"238 786 CURVE SMOOTH",
"238 909 OFFCURVE",
"426 1025 OFFCURVE",
"523 1025 CURVE SMOOTH",
"610 1025 OFFCURVE",
"666 998 OFFCURVE",
"666 905 CURVE SMOOTH",
"666 856 OFFCURVE",
"668 812 OFFCURVE",
"709 812 CURVE SMOOTH",
"771 812 OFFCURVE",
"777 916 OFFCURVE",
"777 990 CURVE SMOOTH",
"777 1109 OFFCURVE",
"686 1217 OFFCURVE",
"550 1217 CURVE SMOOTH",
"347 1217 OFFCURVE",
"114 1054 OFFCURVE",
"114 767 CURVE SMOOTH",
"114 437 OFFCURVE",
"725 497 OFFCURVE",
"725 334 CURVE SMOOTH",
"725 268 OFFCURVE",
"562 181 OFFCURVE",
"441 181 CURVE SMOOTH",
"342 181 OFFCURVE",
"309 183 OFFCURVE",
"248 303 CURVE SMOOTH",
"238 324 OFFCURVE",
"225 337 OFFCURVE",
"223 337 CURVE SMOOTH",
"187 337 OFFCURVE",
"157 240 OFFCURVE",
"157 203 CURVE SMOOTH",
"157 8 OFFCURVE",
"334 -12 OFFCURVE",
"421 -12 CURVE SMOOTH",
"537 -12 OFFCURVE",
"850 84 OFFCURVE"
);
}
);
width = 960;
}
);
unicode = 0053;
userData = {
com.typemytype.robofont.mark = (
1,
0.6,
0.6,
1
);
};
},
{
glyphname = Germandbls;
lastChange = "2021-08-22 03:02:32 +0000";
layers = (
{
anchors = (
{
name = btm;
position = "{545, -297}";
}
);
layerId = "81641B54-5DFF-4E7E-9A9F-73CB636BC82D";
paths = (
{
closed = 1;
nodes = (
"839 346 CURVE SMOOTH",
"839 228 OFFCURVE",
"709 177 OFFCURVE",
"631 177 CURVE SMOOTH",
"586 177 OFFCURVE",
"525 189 OFFCURVE",
"525 213 CURVE SMOOTH",
"525 299 OFFCURVE",
"478 317 OFFCURVE",
"456 317 CURVE SMOOTH",
"411 317 OFFCURVE",
"384 240 OFFCURVE",
"384 179 CURVE SMOOTH",
"384 66 OFFCURVE",
"446 -29 OFFCURVE",
"605 -29 CURVE SMOOTH",
"781 -29 OFFCURVE",
"973 101 OFFCURVE",
"973 367 CURVE SMOOTH",
"973 478 OFFCURVE",
"905 559 OFFCURVE",
"773 599 CURVE SMOOTH",
"588 655 LINE",
"641 710 LINE",
"790 879 OFFCURVE",
"901 1023 OFFCURVE",
"901 1099 CURVE SMOOTH",
"901 1174 OFFCURVE",
"757 1256 OFFCURVE",
"612 1256 CURVE SMOOTH",
"423 1256 OFFCURVE",
"215 1156 OFFCURVE",
"153 967 CURVE SMOOTH",
"124 879 OFFCURVE",
"120 760 OFFCURVE",
"119 678 CURVE",
"119 91 LINE SMOOTH",
"119 10 OFFCURVE",
"129 -29 OFFCURVE",
"212 -29 CURVE SMOOTH",
"260 -29 OFFCURVE",
"267 -5 OFFCURVE",
"267 91 CURVE SMOOTH",
"267 223 OFFCURVE",
"253 356 OFFCURVE",
"253 492 CURVE SMOOTH",
"253 544 OFFCURVE",
"253 610 OFFCURVE",
"254 681 CURVE SMOOTH",
"258 833 OFFCURVE",
"263 1066 OFFCURVE",
"562 1066 CURVE SMOOTH",
"676 1066 OFFCURVE",
"697 1025 OFFCURVE",
"705 1008 CURVE",
"691 983 OFFCURVE",
"685 950 OFFCURVE",
"579 849 CURVE",
"516 774 OFFCURVE",
"409 625 OFFCURVE",
"409 582 CURVE SMOOTH",
"409 429 OFFCURVE",
"839 481 OFFCURVE"
);
}
);
width = 1020;
}
);
unicode = 1E9E;
userData = {
com.typemytype.robofont.mark = (
1,
0.6,
0.6,
1
);
};
},
{
glyphname = Schwa;
lastChange = "2021-08-22 03:02:32 +0000";
layers = (
{
layerId = "81641B54-5DFF-4E7E-9A9F-73CB636BC82D";
paths = (
{
closed = 1;
nodes = (
"334 560 CURVE",
"357 559 OFFCURVE",
"743 565 OFFCURVE",
"768 565 CURVE SMOOTH",
"816 565 OFFCURVE",
"864 585 OFFCURVE",
"864 666 CURVE SMOOTH",
"864 734 OFFCURVE",
"806 765 OFFCURVE",
"762 765 CURVE SMOOTH",
"727 765 OFFCURVE",
"309 765 OFFCURVE",
"257 759 CURVE",
"259 822 LINE SMOOTH",
"262 928 OFFCURVE",
"311 1044 OFFCURVE",
"495 1044 CURVE SMOOTH",
"696 1044 OFFCURVE",
"866 930 OFFCURVE",
"866 676 CURVE SMOOTH",
"866 463 OFFCURVE",
"661 179 OFFCURVE",
"492 179 CURVE SMOOTH",
"411 179 OFFCURVE",
"349 215 OFFCURVE",
"282 287 CURVE SMOOTH",
"262 307 OFFCURVE",
"230 345 OFFCURVE",
"215 345 CURVE SMOOTH",
"185 345 OFFCURVE",
"157 317 OFFCURVE",
"157 253 CURVE SMOOTH",
"157 88 OFFCURVE",
"311 -12 OFFCURVE",
"481 -12 CURVE SMOOTH",
"792 -12 OFFCURVE",
"977 441 OFFCURVE",
"977 649 CURVE SMOOTH",
"977 1020 OFFCURVE",
"829 1237 OFFCURVE",
"517 1231 CURVE SMOOTH",
"122 1223 OFFCURVE",
"103 750 OFFCURVE",
"103 652 CURVE SMOOTH",
"103 607 OFFCURVE",
"139 555 OFFCURVE",
"175 555 CURVE SMOOTH",
"232 555 OFFCURVE",
"282 560 OFFCURVE"
);
}
);
width = 1099;
}
);
unicode = 018F;
},
{
glyphname = T;
lastChange = "2021-08-22 03:02:32 +0000";
layers = (
{
anchors = (
{
name = btm;
position = "{448, -297}";
},
{
name = top;
position = "{456, 1497}";
}
);
layerId = "81641B54-5DFF-4E7E-9A9F-73CB636BC82D";
paths = (
{
closed = 1;
nodes = (
"537 198 CURVE SMOOTH",
"537 205 OFFCURVE",
"537 193 OFFCURVE",
"508 1013 CURVE",
"557 1020 OFFCURVE",
"643 1020 OFFCURVE",
"660 1020 CURVE SMOOTH",
"691 1020 OFFCURVE",
"726 977 OFFCURVE",
"755 977 CURVE SMOOTH",
"798 977 OFFCURVE",
"839 1062 OFFCURVE",
"839 1102 CURVE SMOOTH",
"839 1159 OFFCURVE",
"808 1206 OFFCURVE",
"757 1206 CURVE",
"598 1196 LINE",
"177 1192 LINE SMOOTH",
"119 1192 OFFCURVE",
"57 1166 OFFCURVE",
"57 1054 CURVE SMOOTH",
"57 998 OFFCURVE",
"88 975 OFFCURVE",
"150 975 CURVE SMOOTH",
"213 975 OFFCURVE",
"287 988 OFFCURVE",
"367 998 CURVE",
"394 193 LINE SMOOTH",
"394 175 OFFCURVE",
"392 153 OFFCURVE",
"392 134 CURVE SMOOTH",
"392 43 OFFCURVE",
"403 -12 OFFCURVE",
"483 -12 CURVE SMOOTH",
"547 -12 OFFCURVE",
"553 10 OFFCURVE",
"555 81 CURVE",
"553 99 OFFCURVE",
"542 169 OFFCURVE"
);
}
);
width = 871;
}
);
unicode = 0054;
userData = {
com.typemytype.robofont.mark = (
1,
0.6,
0.6,
1
);
};
},
{
glyphname = Tbar;
lastChange = "2021-08-22 03:02:32 +0000";
layers = (
{
components = (
{
name = T;
transform = "{1, 0, 0, 1, 5, 0}";
}
);
layerId = "81641B54-5DFF-4E7E-9A9F-73CB636BC82D";
paths = (
{
closed = 1;
nodes = (
"635 595 LINE SMOOTH",
"676 596 OFFCURVE",
"710 595 OFFCURVE",
"710 691 CURVE SMOOTH",
"710 775 OFFCURVE",
"679 790 OFFCURVE",
"649 790 CURVE SMOOTH",
"537 790 OFFCURVE",
"399 769 OFFCURVE",
"309 769 CURVE SMOOTH",
"277 769 OFFCURVE",
"247 773 OFFCURVE",
"223 773 CURVE SMOOTH",
"198 773 OFFCURVE",
"157 720 OFFCURVE",
"157 674 CURVE SMOOTH",
"157 629 OFFCURVE",
"181 565 OFFCURVE",
"232 565 CURVE"
);
}
);
width = 874;
}
);
unicode = 0166;
userData = {
com.typemytype.robofont.mark = (
0.6,
0.986,
1,
1
);
};
},
{
glyphname = U;
lastChange = "2021-08-22 03:02:32 +0000";
layers = (
{
anchors = (
{
name = btm;
position = "{542, -297}";
},
{
name = top;
position = "{547, 1515}";
}
);
layerId = "81641B54-5DFF-4E7E-9A9F-73CB636BC82D";
paths = (
{
closed = 1;
nodes = (
"884 413 CURVE SMOOTH",
"884 652 OFFCURVE",
"905 928 OFFCURVE",
"932 1052 CURVE",
"936 1094 LINE SMOOTH",
"936 1099 OFFCURVE",
"938 1102 OFFCURVE",
"938 1111 CURVE SMOOTH",
"938 1181 OFFCURVE",
"914 1231 OFFCURVE",
"884 1231 CURVE SMOOTH",
"815 1231 OFFCURVE",
"781 1144 OFFCURVE",
"771 894 CURVE",
"740 391 LINE SMOOTH",
"732 247 OFFCURVE",
"629 163 OFFCURVE",
"481 163 CURVE SMOOTH",
"305 163 OFFCURVE",
"284 429 OFFCURVE",
"284 635 CURVE SMOOTH",
"284 760 OFFCURVE",
"322 999 OFFCURVE",
"322 1128 CURVE SMOOTH",
"322 1176 OFFCURVE",
"309 1216 OFFCURVE",
"268 1216 CURVE SMOOTH",
"153 1216 OFFCURVE",
"144 804 OFFCURVE",
"144 629 CURVE SMOOTH",
"144 598 LINE SMOOTH",
"144 319 OFFCURVE",
"200 -26 OFFCURVE",
"458 -26 CURVE SMOOTH",
"540 -26 OFFCURVE",
"671 25 OFFCURVE",
"747 132 CURVE",
"750 25 OFFCURVE",
"773 -12 OFFCURVE",
"818 -12 CURVE SMOOTH",
"871 -12 OFFCURVE",
"904 20 OFFCURVE",
"904 67 CURVE SMOOTH",
"904 159 OFFCURVE",
"884 287 OFFCURVE"
);
}
);
width = 1050;
}
);
unicode = 0055;
userData = {
com.typemytype.robofont.mark = (
1,
0.6,
0.6,
1
);
};
},
{
glyphname = Uhorn;
lastChange = "2021-08-22 03:02:32 +0000";
layers = (
{
anchors = (
{
name = btm;
position = "{501, -297}";
},
{
name = top;
position = "{521, 1515}";
}
);
layerId = "81641B54-5DFF-4E7E-9A9F-73CB636BC82D";
paths = (
{
closed = 1;
nodes = (
"1028 1390 CURVE SMOOTH",
"1064 1390 OFFCURVE",
"1132 1355 OFFCURVE",
"1132 1302 CURVE SMOOTH",
"1132 1162 OFFCURVE",
"871 1174 OFFCURVE",
"871 1047 CURVE SMOOTH",
"871 994 OFFCURVE",
"909 967 OFFCURVE",
"934 967 CURVE",
"1076 1050 LINE",
"1149 1109 OFFCURVE",
"1273 1159 OFFCURVE",
"1273 1345 CURVE SMOOTH",
"1273 1474 OFFCURVE",
"1173 1565 OFFCURVE",
"1042 1565 CURVE SMOOTH",
"967 1565 OFFCURVE",
"841 1549 OFFCURVE",
"841 1408 CURVE SMOOTH",
"841 1367 OFFCURVE",
"850 1325 OFFCURVE",
"879 1325 CURVE SMOOTH",
"944 1325 OFFCURVE",
"942 1390 OFFCURVE"
);
},
{
closed = 1;
nodes = (
"884 413 CURVE SMOOTH",
"884 652 OFFCURVE",
"905 928 OFFCURVE",
"932 1052 CURVE",
"936 1094 LINE SMOOTH",
"936 1099 OFFCURVE",
"938 1102 OFFCURVE",
"938 1111 CURVE SMOOTH",
"938 1181 OFFCURVE",
"914 1231 OFFCURVE",
"884 1231 CURVE SMOOTH",
"815 1231 OFFCURVE",
"781 1144 OFFCURVE",
"771 894 CURVE",
"740 391 LINE SMOOTH",
"732 247 OFFCURVE",
"629 163 OFFCURVE",
"481 163 CURVE SMOOTH",
"305 163 OFFCURVE",
"284 429 OFFCURVE",
"284 635 CURVE SMOOTH",
"284 760 OFFCURVE",
"322 999 OFFCURVE",
"322 1128 CURVE SMOOTH",
"322 1176 OFFCURVE",
"309 1216 OFFCURVE",
"268 1216 CURVE SMOOTH",
"153 1216 OFFCURVE",
"144 804 OFFCURVE",
"144 629 CURVE SMOOTH",
"144 598 LINE SMOOTH",
"144 319 OFFCURVE",
"200 -26 OFFCURVE",
"458 -26 CURVE SMOOTH",
"540 -26 OFFCURVE",
"671 25 OFFCURVE",
"747 132 CURVE",
"750 25 OFFCURVE",
"773 -12 OFFCURVE",
"818 -12 CURVE SMOOTH",
"871 -12 OFFCURVE",
"904 20 OFFCURVE",
"904 67 CURVE SMOOTH",
"904 159 OFFCURVE",
"884 287 OFFCURVE"
);
}
);
width = 1050;
}
);
unicode = 01AF;
userData = {
com.typemytype.robofont.mark = (
1,
0.6,
0.6,
1
);
};
},
{
glyphname = V;
lastChange = "2021-08-22 03:02:32 +0000";
layers = (
{
anchors = (
{
name = btm;
position = "{550, -297}";
},
{
name = top;
position = "{542, 1497}";
}
);
layerId = "81641B54-5DFF-4E7E-9A9F-73CB636BC82D";
paths = (
{
closed = 1;
nodes = (
"74 1109 CURVE SMOOTH",
"74 955 OFFCURVE",
"349 -5 OFFCURVE",
"378 -5 CURVE SMOOTH",
"463 -5 OFFCURVE",
"473 23 OFFCURVE",
"497 71 CURVE SMOOTH",
"557 213 OFFCURVE",
"879 844 OFFCURVE",
"1003 1062 CURVE SMOOTH",
"1009 1076 OFFCURVE",
"1025 1117 OFFCURVE",
"1025 1146 CURVE SMOOTH",
"1025 1213 OFFCURVE",
"993 1243 OFFCURVE",
"977 1243 CURVE SMOOTH",
"897 1243 OFFCURVE",
"769 920 OFFCURVE",
"697 790 CURVE",
"458 297 OFFCURVE",
"450 282 OFFCURVE",
"433 244 CURVE",
"381 423 OFFCURVE",
"244 897 OFFCURVE",
"203 1139 CURVE",
"192 1184 OFFCURVE",
"155 1216 OFFCURVE",
"129 1216 CURVE SMOOTH",
"76 1216 OFFCURVE",
"74 1147 OFFCURVE"
);
}
);
width = 1048;
}
);
unicode = 0056;
userData = {
com.typemytype.robofont.mark = (
1,
0.6,
0.6,
1
);
};
},
{
glyphname = W;
lastChange = "2021-08-22 03:02:32 +0000";
layers = (
{
anchors = (
{
name = btm;
position = "{660, -297}";
},
{
name = top;
position = "{649, 1497}";
}
);
layerId = "81641B54-5DFF-4E7E-9A9F-73CB636BC82D";
paths = (
{
closed = 1;
nodes = (
"139 1219 CURVE SMOOTH",
"95 1219 OFFCURVE",
"69 1139 OFFCURVE",
"69 1102 CURVE SMOOTH",
"69 1068 OFFCURVE",
"79 1018 OFFCURVE",
"89 968 CURVE SMOOTH",
"153 657 OFFCURVE",
"218 367 OFFCURVE",
"258 81 CURVE SMOOTH",
"268 23 OFFCURVE",
"292 -23 OFFCURVE",
"347 -23 CURVE SMOOTH",
"382 -23 OFFCURVE",
"450 146 OFFCURVE",
"462 181 CURVE SMOOTH",
"515 349 OFFCURVE",
"584 638 OFFCURVE",
"629 764 CURVE",
"662 586 OFFCURVE",
"649 578 OFFCURVE",
"719 205 CURVE SMOOTH",
"739 95 OFFCURVE",
"751 -5 OFFCURVE",
"814 -5 CURVE SMOOTH",
"899 -5 OFFCURVE",
"952 218 OFFCURVE",
"977 334 CURVE SMOOTH",
"1074 767 OFFCURVE",
"1138 922 OFFCURVE",
"1209 1038 CURVE SMOOTH",
"1231 1070 OFFCURVE",
"1252 1089 OFFCURVE",
"1252 1133 CURVE SMOOTH",
"1252 1183 OFFCURVE",
"1219 1247 OFFCURVE",
"1174 1247 CURVE SMOOTH",
"1121 1247 OFFCURVE",
"1087 1123 OFFCURVE",
"1062 1062 CURVE SMOOTH",
"1018 942 OFFCURVE",
"944 734 OFFCURVE",
"894 537 CURVE SMOOTH",
"834 322 LINE",
"818 433 OFFCURVE",
"790 537 OFFCURVE",
"771 676 CURVE SMOOTH",
"743 879 OFFCURVE",
"715 1087 OFFCURVE",
"661 1087 CURVE SMOOTH",
"600 1087 OFFCURVE",
"483 688 OFFCURVE",
"406 450 CURVE SMOOTH",
"364 324 LINE",
"352 356 OFFCURVE",
"346 394 OFFCURVE",
"346 423 CURVE SMOOTH",
"346 590 OFFCURVE",
"289 684 OFFCURVE",
"247 885 CURVE SMOOTH",
"222 998 OFFCURVE",
"215 1219 OFFCURVE"
);
}
);
width = 1248;
}
);
unicode = 0057;
userData = {
com.typemytype.robofont.mark = (
1,
0.6,
0.6,
1
);
};
},
{
glyphname = X;
lastChange = "2021-08-22 03:02:32 +0000";
layers = (
{
anchors = (
{
name = btm;
position = "{387, -297}";
},
{
name = top;
position = "{397, 1497}";
}
);
layerId = "81641B54-5DFF-4E7E-9A9F-73CB636BC82D";
paths = (
{
closed = 1;
nodes = (
"691 1133 CURVE SMOOTH",
"696 1146 OFFCURVE",
"697 1157 OFFCURVE",
"697 1171 CURVE SMOOTH",
"697 1204 OFFCURVE",
"679 1231 OFFCURVE",
"652 1231 CURVE SMOOTH",
"557 1231 OFFCURVE",
"515 1052 OFFCURVE",
"374 783 CURVE",
"319 879 OFFCURVE",
"212 1209 OFFCURVE",
"129 1219 CURVE",
"101 1219 OFFCURVE",
"74 1156 OFFCURVE",
"74 1117 CURVE SMOOTH",
"74 1015 OFFCURVE",
"187 820 OFFCURVE",
"210 775 CURVE SMOOTH",
"250 684 OFFCURVE",
"279 647 OFFCURVE",
"292 621 CURVE",
"256 537 LINE SMOOTH",
"215 441 OFFCURVE",
"84 181 OFFCURVE",
"84 126 CURVE SMOOTH",
"84 45 OFFCURVE",
"112 -20 OFFCURVE",
"173 -20 CURVE SMOOTH",
"237 -20 OFFCURVE",
"244 55 OFFCURVE",
"244 129 CURVE SMOOTH",
"244 175 OFFCURVE",
"337 332 OFFCURVE",
"356 394 CURVE",
"458 142 OFFCURVE",
"518 -29 OFFCURVE",
"651 -29 CURVE SMOOTH",
"691 -29 OFFCURVE",
"702 5 OFFCURVE",
"702 60 CURVE SMOOTH",
"702 173 OFFCURVE",
"643 175 OFFCURVE",
"607 240 CURVE SMOOTH",
"560 332 OFFCURVE",
"439 562 OFFCURVE",
"439 610 CURVE",
"499 755 OFFCURVE",
"626 952 OFFCURVE"
);
}
);
width = 769;
}
);
unicode = 0058;
userData = {
com.typemytype.robofont.mark = (
1,
0.6,
0.6,
1
);
};
},
{
glyphname = Y;
lastChange = "2021-08-22 03:02:32 +0000";
layers = (
{
anchors = (
{
name = btm;
position = "{427, -297}";
},
{
name = top;
position = "{450, 1497}";
}
);
layerId = "81641B54-5DFF-4E7E-9A9F-73CB636BC82D";
paths = (
{
closed = 1;
nodes = (
"205 74 CURVE SMOOTH",
"205 23 OFFCURVE",
"270 -29 OFFCURVE",
"292 -29 CURVE SMOOTH",
"313 -29 OFFCURVE",
"342 35 OFFCURVE",
"347 58 CURVE",
"436 293 OFFCURVE",
"705 812 OFFCURVE",
"788 1013 CURVE SMOOTH",
"831 1109 OFFCURVE",
"849 1128 OFFCURVE",
"849 1147 CURVE SMOOTH",
"849 1191 OFFCURVE",
"833 1231 OFFCURVE",
"802 1231 CURVE SMOOTH",
"709 1231 OFFCURVE",
"616 977 OFFCURVE",
"515 769 CURVE SMOOTH",
"427 590 LINE",
"359 696 OFFCURVE",
"160 1102 OFFCURVE",
"122 1164 CURVE SMOOTH",
"98 1206 OFFCURVE",
"85 1216 OFFCURVE",
"63 1216 CURVE SMOOTH",
"33 1216 OFFCURVE",
"5 1174 OFFCURVE",
"5 1129 CURVE SMOOTH",
"5 1002 OFFCURVE",
"283 523 OFFCURVE",
"322 463 CURVE SMOOTH",
"329 454 OFFCURVE",
"334 433 OFFCURVE",
"334 427 CURVE SMOOTH",
"334 426 OFFCURVE",
"311 382 OFFCURVE",
"301 364 CURVE SMOOTH",
"248 268 OFFCURVE",
"208 146 OFFCURVE"
);
}
);
width = 798;
}
);
unicode = 0059;
userData = {
com.typemytype.robofont.guides = (
{
angle = 0;
isGlobal = 0;
magnetic = 5;
x = 0;
y = 492;
}
);
com.typemytype.robofont.mark = (
1,
0.6,
0.6,
1
);
};
},
{
glyphname = Z;
lastChange = "2021-08-22 03:02:32 +0000";
layers = (
{
anchors = (
{
name = btm;
position = "{515, -297}";
},
{
name = top;
position = "{499, 1497}";
}
);
layerId = "81641B54-5DFF-4E7E-9A9F-73CB636BC82D";
paths = (
{
closed = 1;
nodes = (
"877 -14 CURVE SMOOTH",
"930 -14 OFFCURVE",
"952 67 OFFCURVE",
"952 126 CURVE SMOOTH",
"952 179 OFFCURVE",
"932 225 OFFCURVE",
"877 225 CURVE SMOOTH",
"834 225 OFFCURVE",
"790 183 OFFCURVE",
"739 183 CURVE SMOOTH",
"679 183 OFFCURVE",
"625 181 OFFCURVE",
"567 181 CURVE SMOOTH",
"553 181 OFFCURVE",
"537 181 OFFCURVE",
"525 181 CURVE SMOOTH",
"287 181 LINE",
"309 229 OFFCURVE",
"374 337 OFFCURVE",
"403 381 CURVE SMOOTH",
"485 502 OFFCURVE",
"786 977 OFFCURVE",
"786 1070 CURVE SMOOTH",
"786 1109 OFFCURVE",
"779 1166 OFFCURVE",
"751 1171 CURVE SMOOTH",
"694 1176 OFFCURVE",
"643 1178 OFFCURVE",
"590 1178 CURVE SMOOTH",
"499 1178 OFFCURVE",
"411 1173 OFFCURVE",
"326 1173 CURVE SMOOTH",
"277 1173 OFFCURVE",
"205 1181 OFFCURVE",
"157 1181 CURVE SMOOTH",
"114 1181 OFFCURVE",
"79 1147 OFFCURVE",
"79 1080 CURVE SMOOTH",
"79 1013 OFFCURVE",
"119 963 OFFCURVE",
"169 963 CURVE SMOOTH",
"277 963 OFFCURVE",
"427 980 OFFCURVE",
"550 980 CURVE SMOOTH",
"562 980 OFFCURVE",
"578 980 OFFCURVE",
"590 980 CURVE",
"489 757 OFFCURVE",
"326 535 OFFCURVE",
"208 334 CURVE SMOOTH",
"159 253 OFFCURVE",
"124 173 OFFCURVE",
"124 84 CURVE SMOOTH",
"124 25 OFFCURVE",
"132 -5 OFFCURVE",
"175 -8 CURVE SMOOTH",
"277 -18 OFFCURVE",
"307 -18 OFFCURVE",
"342 -18 CURVE SMOOTH",
"505 -18 OFFCURVE",
"666 -5 OFFCURVE",
"802 -5 CURVE SMOOTH",
"829 -5 OFFCURVE",
"849 -14 OFFCURVE"
);
}
);
width = 960;
}
);
unicode = 005A;
userData = {
com.typemytype.robofont.mark = (
1,
0.6,
0.6,
1
);
};
},
{
glyphname = a;
lastChange = "2021-08-22 03:02:32 +0000";
layers = (
{
anchors = (
{
name = btm;
position = "{545, -297}";
},
{
name = top;
position = "{525, 1515}";
}
);
layerId = "81641B54-5DFF-4E7E-9A9F-73CB636BC82D";
paths = (
{
closed = 1;
nodes = (
"920 169 CURVE SMOOTH",
"875 169 OFFCURVE",
"850 198 OFFCURVE",
"850 279 CURVE SMOOTH",
"850 399 OFFCURVE",
"879 472 OFFCURVE",
"879 570 CURVE SMOOTH",
"879 757 OFFCURVE",
"720 963 OFFCURVE",
"521 963 CURVE SMOOTH",
"258 963 OFFCURVE",
"45 661 OFFCURVE",
"45 374 CURVE SMOOTH",
"45 153 OFFCURVE",
"243 -23 OFFCURVE",
"409 -23 CURVE SMOOTH",
"540 -23 OFFCURVE",
"649 76 OFFCURVE",
"736 187 CURVE",
"736 85 OFFCURVE",
"825 -12 OFFCURVE",
"904 -12 CURVE SMOOTH",
"987 -12 OFFCURVE",
"1048 67 OFFCURVE",
"1048 134 CURVE SMOOTH",
"1048 193 OFFCURVE",
"1031 218 OFFCURVE",
"990 218 CURVE",
"970 212 OFFCURVE",
"944 169 OFFCURVE"
);
},
{
closed = 1;
nodes = (
"181 381 CURVE SMOOTH",
"181 562 OFFCURVE",
"319 769 OFFCURVE",
"535 769 CURVE SMOOTH",
"619 769 OFFCURVE",
"753 664 OFFCURVE",
"753 600 CURVE",
"726 423 OFFCURVE",
"696 169 OFFCURVE",
"441 169 CURVE SMOOTH",
"317 169 OFFCURVE",
"181 254 OFFCURVE"
);
}
);
width = 1021;
}
);
unicode = 0061;
userData = {
com.typemytype.robofont.mark = (
1,
0.6,
0.6,
1
);
};
},
{
glyphname = aogonek;
lastChange = "2021-08-22 03:02:32 +0000";
layers = (
{
layerId = "81641B54-5DFF-4E7E-9A9F-73CB636BC82D";
paths = (
{
closed = 1;
nodes = (
"722 -277 CURVE SMOOTH",
"686 -277 OFFCURVE",
"641 -244 OFFCURVE",
"623 -192 CURVE",
"623 8 OFFCURVE",
"853 36 OFFCURVE",
"853 144 CURVE SMOOTH",
"853 200 OFFCURVE",
"812 223 OFFCURVE",
"798 223 CURVE",
"753 195 OFFCURVE",
"745 177 OFFCURVE",
"681 132 CURVE SMOOTH",
"598 76 OFFCURVE",
"481 -43 OFFCURVE",
"481 -232 CURVE SMOOTH",
"481 -359 OFFCURVE",
"582 -450 OFFCURVE",
"710 -450 CURVE SMOOTH",
"790 -450 OFFCURVE",
"891 -433 OFFCURVE",
"891 -293 CURVE SMOOTH",
"891 -254 OFFCURVE",
"877 -213 OFFCURVE",
"850 -213 CURVE SMOOTH",
"792 -213 OFFCURVE",
"786 -277 OFFCURVE"
);
},
{
closed = 1;
nodes = (
"856 523 LINE",
"856 808 OFFCURVE",
"706 965 OFFCURVE",
"481 965 CURVE SMOOTH",
"367 965 OFFCURVE",
"116 942 OFFCURVE",
"116 818 CURVE SMOOTH",
"116 739 OFFCURVE",
"136 716 OFFCURVE",
"195 716 CURVE SMOOTH",
"213 716 OFFCURVE",
"243 734 OFFCURVE",
"258 740 CURVE SMOOTH",
"287 753 LINE SMOOTH",
"319 769 OFFCURVE",
"374 781 OFFCURVE",
"441 781 CURVE SMOOTH",
"560 781 OFFCURVE",
"736 767 OFFCURVE",
"736 521 CURVE",
"743 382 LINE",
"849 175 LINE"
);
},
{
closed = 1;
nodes = (
"820 208 CURVE SMOOTH",
"833 222 OFFCURVE",
"833 229 OFFCURVE",
"833 243 CURVE SMOOTH",
"833 282 LINE SMOOTH",
"833 505 OFFCURVE",
"706 625 OFFCURVE",
"450 625 CURVE SMOOTH",
"179 625 OFFCURVE",
"79 502 OFFCURVE",
"79 289 CURVE SMOOTH",
"79 119 OFFCURVE",
"198 -20 OFFCURVE",
"400 -20 CURVE SMOOTH",
"633 -20 OFFCURVE",
"757 101 OFFCURVE"
);
},
{
closed = 1;
nodes = (
"200 297 CURVE SMOOTH",
"203 400 OFFCURVE",
"301 441 OFFCURVE",
"450 441 CURVE SMOOTH",
"563 441 OFFCURVE",
"719 413 OFFCURVE",
"732 317 CURVE",
"688 250 OFFCURVE",
"578 160 OFFCURVE",
"427 160 CURVE SMOOTH",
"277 160 OFFCURVE",
"200 229 OFFCURVE"
);
}
);
width = 965;
}
);
unicode = 0105;
},
{
glyphname = ae;
lastChange = "2021-08-22 03:02:32 +0000";
layers = (
{
anchors = (
{
name = btm;
position = "{808, -297}";
},
{
name = top;
position = "{812, 1515}";
}
);
layerId = "81641B54-5DFF-4E7E-9A9F-73CB636BC82D";
paths = (
{
closed = 1;
nodes = (
"1209 192 CURVE SMOOTH",
"1111 192 OFFCURVE",
"934 212 OFFCURVE",
"884 368 CURVE",
"1404 553 OFFCURVE",
"1426 553 OFFCURVE",
"1471 570 CURVE",
"1515 580 OFFCURVE",
"1532 605 OFFCURVE",
"1532 676 CURVE SMOOTH",
"1532 879 OFFCURVE",
"1351 994 OFFCURVE",
"1202 994 CURVE SMOOTH",
"907 994 OFFCURVE",
"753 781 OFFCURVE",
"753 446 CURVE SMOOTH",
"753 205 OFFCURVE",
"934 10 OFFCURVE",
"1138 10 CURVE SMOOTH",
"1217 10 OFFCURVE",
"1538 20 OFFCURVE",
"1538 165 CURVE SMOOTH",
"1538 232 OFFCURVE",
"1516 258 OFFCURVE",
"1465 258 CURVE SMOOTH",
"1410 258 OFFCURVE",
"1307 192 OFFCURVE"
);
},
{
closed = 1;
nodes = (
"1178 812 CURVE SMOOTH",
"1196 815 OFFCURVE",
"1217 818 OFFCURVE",
"1236 818 CURVE SMOOTH",
"1318 818 OFFCURVE",
"1372 767 OFFCURVE",
"1394 724 CURVE",
"1278 679 OFFCURVE",
"1040 595 OFFCURVE",
"875 511 CURVE",
"922 705 OFFCURVE",
"1050 781 OFFCURVE"
);
},
{
closed = 1;
nodes = (
"856 523 LINE",
"856 808 OFFCURVE",
"706 965 OFFCURVE",
"481 965 CURVE SMOOTH",
"367 965 OFFCURVE",
"116 942 OFFCURVE",
"116 818 CURVE SMOOTH",
"116 739 OFFCURVE",
"136 716 OFFCURVE",
"195 716 CURVE SMOOTH",
"213 716 OFFCURVE",
"243 734 OFFCURVE",
"258 740 CURVE SMOOTH",
"287 753 LINE SMOOTH",
"319 769 OFFCURVE",
"374 781 OFFCURVE",
"441 781 CURVE SMOOTH",
"560 781 OFFCURVE",
"736 767 OFFCURVE",
"736 521 CURVE",
"743 382 LINE",
"849 175 LINE"
);
},
{
closed = 1;
nodes = (
"820 208 CURVE SMOOTH",
"833 222 OFFCURVE",
"833 229 OFFCURVE",
"833 243 CURVE SMOOTH",
"833 282 LINE SMOOTH",
"833 505 OFFCURVE",
"706 625 OFFCURVE",
"450 625 CURVE SMOOTH",
"179 625 OFFCURVE",
"79 502 OFFCURVE",
"79 289 CURVE SMOOTH",
"79 119 OFFCURVE",
"198 -20 OFFCURVE",
"400 -20 CURVE SMOOTH",
"633 -20 OFFCURVE",
"757 101 OFFCURVE"
);
},
{
closed = 1;
nodes = (
"200 297 CURVE SMOOTH",
"203 400 OFFCURVE",
"301 441 OFFCURVE",
"450 441 CURVE SMOOTH",
"563 441 OFFCURVE",
"719 413 OFFCURVE",
"732 317 CURVE",
"688 250 OFFCURVE",
"578 160 OFFCURVE",
"427 160 CURVE SMOOTH",
"277 160 OFFCURVE",
"200 229 OFFCURVE"
);
}
);
width = 1646;
}
);
unicode = 00E6;
userData = {
com.typemytype.robofont.mark = (
1,
0.6,
0.6,
1
);
};
},
{
glyphname = b;
lastChange = "2021-08-22 03:02:32 +0000";
layers = (
{
anchors = (
{
name = btm;
position = "{481, -297}";
},
{
name = top;
position = "{557, 1515}";
}
);
layerId = "81641B54-5DFF-4E7E-9A9F-73CB636BC82D";
paths = (
{
closed = 1;
nodes = (
"859 492 CURVE SMOOTH",
"859 802 OFFCURVE",
"732 960 OFFCURVE",
"486 960 CURVE SMOOTH",
"403 960 OFFCURVE",
"324 924 OFFCURVE",
"253 881 CURVE",
"253 1119 OFFCURVE",
"260 1246 OFFCURVE",
"260 1390 CURVE SMOOTH",
"260 1436 OFFCURVE",
"218 1467 OFFCURVE",
"193 1467 CURVE SMOOTH",
"136 1467 OFFCURVE",
"122 1426 OFFCURVE",
"122 1372 CURVE SMOOTH",
"105 284 LINE",
"105 198 LINE SMOOTH",
"105 69 OFFCURVE",
"114 -12 OFFCURVE",
"181 -12 CURVE SMOOTH",
"213 -12 OFFCURVE",
"228 12 OFFCURVE",
"256 12 CURVE",
"301 -2 OFFCURVE",
"347 -10 OFFCURVE",
"394 -10 CURVE SMOOTH",
"562 -10 OFFCURVE",
"859 119 OFFCURVE"
);
},
{
closed = 1;
nodes = (
"253 668 CURVE",
"292 722 OFFCURVE",
"391 769 OFFCURVE",
"461 769 CURVE SMOOTH",
"555 769 OFFCURVE",
"716 684 OFFCURVE",
"716 553 CURVE SMOOTH",
"716 478 OFFCURVE",
"702 371 OFFCURVE",
"676 324 CURVE SMOOTH",
"625 243 OFFCURVE",
"486 179 OFFCURVE",
"394 179 CURVE SMOOTH",
"352 179 OFFCURVE",
"292 181 OFFCURVE",
"266 195 CURVE",
"256 215 OFFCURVE",
"250 250 OFFCURVE",
"250 458 CURVE SMOOTH",
"250 515 OFFCURVE",
"250 585 OFFCURVE"
);
}
);
width = 942;
}
);
unicode = 0062;
userData = {
com.typemytype.robofont.mark = (
1,
0.6,
0.6,
1
);
};
},
{
glyphname = bstroke;
lastChange = "2021-08-22 03:02:32 +0000";
layers = (
{
layerId = "81641B54-5DFF-4E7E-9A9F-73CB636BC82D";
paths = (
{
closed = 1;
nodes = (
"859 492 CURVE SMOOTH",
"859 802 OFFCURVE",
"732 960 OFFCURVE",
"486 960 CURVE SMOOTH",
"403 960 OFFCURVE",
"324 924 OFFCURVE",
"253 881 CURVE",
"253 963 OFFCURVE",
"253 1030 OFFCURVE",
"254 1092 CURVE",
"317 1087 OFFCURVE",
"373 1072 OFFCURVE",
"431 1072 CURVE SMOOTH",
"454 1072 OFFCURVE",
"523 1093 OFFCURVE",
"523 1164 CURVE SMOOTH",
"523 1227 OFFCURVE",
"497 1268 OFFCURVE",
"454 1268 CURVE SMOOTH",
"388 1268 OFFCURVE",
"324 1264 OFFCURVE",
"258 1262 CURVE",
"260 1305 OFFCURVE",
"260 1347 OFFCURVE",
"260 1390 CURVE SMOOTH",
"260 1436 OFFCURVE",
"218 1467 OFFCURVE",
"193 1467 CURVE SMOOTH",
"136 1467 OFFCURVE",
"122 1426 OFFCURVE",
"122 1372 CURVE SMOOTH",
"120 1260 LINE",
"99 1260 LINE SMOOTH",
"60 1260 OFFCURVE",
"77 1268 OFFCURVE",
"55 1268 CURVE SMOOTH",
"12 1268 OFFCURVE",
"-15 1236 OFFCURVE",
"-15 1178 CURVE SMOOTH",
"-15 1089 OFFCURVE",
"26 1076 OFFCURVE",
"63 1076 CURVE SMOOTH",
"81 1076 OFFCURVE",
"99 1076 OFFCURVE",
"116 1078 CURVE",
"105 284 LINE",
"105 198 LINE SMOOTH",
"105 69 OFFCURVE",
"114 -12 OFFCURVE",
"181 -12 CURVE SMOOTH",
"213 -12 OFFCURVE",
"228 12 OFFCURVE",
"256 12 CURVE",
"301 -2 OFFCURVE",
"347 -10 OFFCURVE",
"394 -10 CURVE SMOOTH",
"562 -10 OFFCURVE",
"859 119 OFFCURVE"
);
},
{
closed = 1;
nodes = (
"253 668 CURVE",
"292 722 OFFCURVE",
"391 769 OFFCURVE",
"461 769 CURVE SMOOTH",
"555 769 OFFCURVE",
"716 684 OFFCURVE",
"716 553 CURVE SMOOTH",
"716 478 OFFCURVE",
"702 371 OFFCURVE",
"676 324 CURVE",
"625 243 OFFCURVE",
"486 179 OFFCURVE",
"394 179 CURVE SMOOTH",
"352 179 OFFCURVE",
"292 181 OFFCURVE",
"266 195 CURVE",
"256 215 OFFCURVE",
"250 250 OFFCURVE",
"250 458 CURVE SMOOTH",
"250 515 OFFCURVE",
"250 585 OFFCURVE"
);
}
);
width = 942;
}
);
unicode = 0180;
},
{
glyphname = c;
lastChange = "2021-08-22 03:02:32 +0000";
layers = (
{
anchors = (
{
name = btm;
position = "{431, -297}";
},
{
name = top;
position = "{439, 1515}";
}
);
layerId = "81641B54-5DFF-4E7E-9A9F-73CB636BC82D";
paths = (
{
closed = 1;
nodes = (
"563 181 CURVE SMOOTH",
"317 181 OFFCURVE",
"208 225 OFFCURVE",
"208 423 CURVE SMOOTH",
"208 590 OFFCURVE",
"324 755 OFFCURVE",
"495 755 CURVE SMOOTH",
"679 755 OFFCURVE",
"676 586 OFFCURVE",
"743 586 CURVE SMOOTH",
"777 586 OFFCURVE",
"788 660 OFFCURVE",
"788 694 CURVE SMOOTH",
"788 846 OFFCURVE",
"668 958 OFFCURVE",
"528 958 CURVE SMOOTH",
"237 958 OFFCURVE",
"74 688 OFFCURVE",
"74 364 CURVE SMOOTH",
"74 71 OFFCURVE",
"247 -10 OFFCURVE",
"454 -10 CURVE SMOOTH",
"523 -10 OFFCURVE",
"582 -2 OFFCURVE",
"651 -2 CURVE SMOOTH",
"710 -2 LINE SMOOTH",
"740 -2 OFFCURVE",
"792 58 OFFCURVE",
"792 105 CURVE SMOOTH",
"792 198 OFFCURVE",
"736 225 OFFCURVE",
"715 225 CURVE",
"657 212 OFFCURVE",
"631 181 OFFCURVE"
);
}
);
width = 875;
}
);
unicode = 0063;
userData = {
com.typemytype.robofont.mark = (
1,
0.6,
0.6,
1
);
};
},
{
glyphname = d;
lastChange = "2021-08-22 03:02:32 +0000";
layers = (
{
anchors = (
{
name = btm;
position = "{489, -297}";
},
{
name = top;
position = "{225, 1515}";
}
);
layerId = "81641B54-5DFF-4E7E-9A9F-73CB636BC82D";
paths = (
{
closed = 1;
nodes = (
"74 427 CURVE SMOOTH",
"74 165 OFFCURVE",
"192 -12 OFFCURVE",
"437 -12 CURVE SMOOTH",
"515 -12 OFFCURVE",
"664 20 OFFCURVE",
"734 88 CURVE",
"750 43 OFFCURVE",
"769 -14 OFFCURVE",
"800 -14 CURVE SMOOTH",
"875 -14 OFFCURVE",
"884 105 OFFCURVE",
"885 254 CURVE SMOOTH",
"889 427 LINE SMOOTH",
"889 433 OFFCURVE",
"889 439 OFFCURVE",
"901 1062 CURVE SMOOTH",
"901 1112 OFFCURVE",
"904 1312 OFFCURVE",
"904 1361 CURVE SMOOTH",
"904 1406 OFFCURVE",
"891 1456 OFFCURVE",
"849 1456 CURVE SMOOTH",
"798 1456 OFFCURVE",
"773 1421 OFFCURVE",
"773 1351 CURVE SMOOTH",
"773 1256 OFFCURVE",
"769 875 OFFCURVE",
"769 779 CURVE",
"757 889 OFFCURVE",
"649 963 OFFCURVE",
"528 963 CURVE SMOOTH",
"240 963 OFFCURVE",
"74 702 OFFCURVE"
);
},
{
closed = 1;
nodes = (
"213 433 CURVE SMOOTH",
"213 631 OFFCURVE",
"334 775 OFFCURVE",
"532 775 CURVE SMOOTH",
"647 775 OFFCURVE",
"753 649 OFFCURVE",
"753 511 CURVE SMOOTH",
"753 454 LINE SMOOTH",
"753 400 OFFCURVE",
"755 342 OFFCURVE",
"740 293 CURVE SMOOTH",
"726 248 OFFCURVE",
"631 165 OFFCURVE",
"462 165 CURVE SMOOTH",
"322 165 OFFCURVE",
"213 266 OFFCURVE"
);
}
);
width = 1021;
}
);
unicode = 0064;
userData = {
com.typemytype.robofont.mark = (
1,
0.6,
0.6,
1
);
};
},
{
glyphname = eth;
lastChange = "2021-08-22 03:02:32 +0000";
layers = (
{
anchors = (
{
name = btm;
position = "{491, -297}";
}
);
layerId = "81641B54-5DFF-4E7E-9A9F-73CB636BC82D";
paths = (
{
closed = 1;
nodes = (
"555 1058 LINE",
"570 1068 OFFCURVE",
"574 1074 OFFCURVE",
"643 1133 CURVE",
"777 1226 OFFCURVE",
"859 1236 OFFCURVE",
"859 1357 CURVE SMOOTH",
"859 1414 OFFCURVE",
"820 1429 OFFCURVE",
"804 1429 CURVE SMOOTH",
"705 1429 OFFCURVE",
"560 1209 OFFCURVE",
"489 1162 CURVE",
"332 1097 LINE SMOOTH",
"311 1089 OFFCURVE",
"303 1044 OFFCURVE",
"303 998 CURVE SMOOTH",
"303 963 OFFCURVE",
"317 914 OFFCURVE",
"359 914 CURVE SMOOTH",
"409 914 OFFCURVE",
"431 944 OFFCURVE",
"557 1058 CURVE"
);
},
{
closed = 1;
nodes = (
"907 532 CURVE SMOOTH",
"907 839 OFFCURVE",
"643 1436 OFFCURVE",
"232 1436 CURVE SMOOTH",
"155 1436 OFFCURVE",
"130 1402 OFFCURVE",
"130 1340 CURVE SMOOTH",
"130 1295 OFFCURVE",
"139 1257 OFFCURVE",
"238 1257 CURVE SMOOTH",
"492 1257 OFFCURVE",
"757 808 OFFCURVE",
"757 600 CURVE",
"705 751 OFFCURVE",
"557 849 OFFCURVE",
"441 849 CURVE SMOOTH",
"225 849 OFFCURVE",
"76 668 OFFCURVE",
"76 400 CURVE SMOOTH",
"76 130 OFFCURVE",
"274 -29 OFFCURVE",
"478 -29 CURVE SMOOTH",
"739 -29 OFFCURVE",
"907 139 OFFCURVE"
);
},
{
closed = 1;
nodes = (
"508 169 CURVE SMOOTH",
"377 169 OFFCURVE",
"198 229 OFFCURVE",
"198 403 CURVE SMOOTH",
"198 501 OFFCURVE",
"256 655 OFFCURVE",
"437 655 CURVE SMOOTH",
"555 655 OFFCURVE",
"724 523 OFFCURVE",
"753 344 CURVE",
"726 254 OFFCURVE",
"621 169 OFFCURVE"
);
}
);
width = 1005;
}
);
unicode = 00F0;
userData = {
com.typemytype.robofont.mark = (
1,
0.6,
0.6,
1
);
};
},
{
glyphname = dcroat;
lastChange = "2021-08-22 03:02:32 +0000";
layers = (
{
components = (
{
name = d;
}
);
layerId = "81641B54-5DFF-4E7E-9A9F-73CB636BC82D";
paths = (
{
closed = 1;
nodes = (
"836 1126 CURVE",
"999 1097 OFFCURVE",
"1018 1097 OFFCURVE",
"1021 1097 CURVE SMOOTH",
"1040 1097 OFFCURVE",
"1109 1149 OFFCURVE",
"1109 1216 CURVE SMOOTH",
"1109 1341 OFFCURVE",
"1003 1315 OFFCURVE",
"932 1315 CURVE SMOOTH",
"657 1315 OFFCURVE",
"598 1309 OFFCURVE",
"598 1209 CURVE SMOOTH",
"598 1123 OFFCURVE",
"633 1109 OFFCURVE",
"674 1109 CURVE SMOOTH",
"729 1109 OFFCURVE",
"781 1126 OFFCURVE"
);
}
);
width = 1021;
}
);
unicode = 0111;
},
{
glyphname = e;
lastChange = "2021-08-22 03:02:32 +0000";
layers = (
{
anchors = (
{
name = btm;
position = "{472, -297}";
},
{
name = top;
position = "{496, 1564}";
}
);
layerId = "81641B54-5DFF-4E7E-9A9F-73CB636BC82D";
paths = (
{
closed = 1;
nodes = (
"542 160 CURVE SMOOTH",
"443 160 OFFCURVE",
"253 167 OFFCURVE",
"205 319 CURVE",
"810 535 LINE SMOOTH",
"844 547 OFFCURVE",
"866 596 OFFCURVE",
"866 664 CURVE SMOOTH",
"866 874 OFFCURVE",
"688 985 OFFCURVE",
"540 985 CURVE SMOOTH",
"244 985 OFFCURVE",
"74 747 OFFCURVE",
"74 411 CURVE SMOOTH",
"74 167 OFFCURVE",
"273 -20 OFFCURVE",
"471 -20 CURVE SMOOTH",
"552 -20 OFFCURVE",
"874 -12 OFFCURVE",
"874 134 CURVE SMOOTH",
"874 200 OFFCURVE",
"849 229 OFFCURVE",
"800 229 CURVE SMOOTH",
"745 229 OFFCURVE",
"643 160 OFFCURVE"
);
},
{
closed = 1;
nodes = (
"511 798 CURVE SMOOTH",
"615 798 OFFCURVE",
"712 767 OFFCURVE",
"750 686 CURVE",
"633 641 OFFCURVE",
"356 517 OFFCURVE",
"195 471 CURVE",
"228 706 OFFCURVE",
"431 798 OFFCURVE"
);
}
);
width = 958;
}
);
unicode = 0065;
userData = {
com.typemytype.robofont.mark = (
1,
0.6,
0.6,
1
);
};
},
{
glyphname = eogonek;
lastChange = "2021-08-22 03:02:32 +0000";
layers = (
{
components = (
{
name = e;
}
);
layerId = "81641B54-5DFF-4E7E-9A9F-73CB636BC82D";
paths = (
{
closed = 1;
nodes = (
"715 -293 CURVE SMOOTH",
"678 -293 OFFCURVE",
"633 -260 OFFCURVE",
"615 -208 CURVE",
"615 -8 OFFCURVE",
"844 -14 OFFCURVE",
"844 94 CURVE SMOOTH",
"844 149 OFFCURVE",
"804 173 OFFCURVE",
"790 173 CURVE",
"745 144 OFFCURVE",
"736 105 OFFCURVE",
"674 60 CURVE SMOOTH",
"590 4 OFFCURVE",
"472 -59 OFFCURVE",
"472 -248 CURVE SMOOTH",
"472 -377 OFFCURVE",
"574 -466 OFFCURVE",
"702 -466 CURVE SMOOTH",
"781 -466 OFFCURVE",
"884 -450 OFFCURVE",
"884 -309 CURVE SMOOTH",
"884 -270 OFFCURVE",
"868 -230 OFFCURVE",
"843 -230 CURVE SMOOTH",
"783 -230 OFFCURVE",
"777 -293 OFFCURVE"
);
}
);
width = 958;
}
);
unicode = 0119;
},
{
glyphname = schwa;
lastChange = "2021-08-22 03:02:32 +0000";
layers = (
{
layerId = "81641B54-5DFF-4E7E-9A9F-73CB636BC82D";
paths = (
{
closed = 1;
nodes = (
"387 804 CURVE SMOOTH",
"483 804 OFFCURVE",
"676 798 OFFCURVE",
"722 645 CURVE",
"119 429 LINE SMOOTH",
"84 418 OFFCURVE",
"60 368 OFFCURVE",
"60 301 CURVE SMOOTH",
"60 91 OFFCURVE",
"240 -20 OFFCURVE",
"388 -20 CURVE SMOOTH",
"684 -20 OFFCURVE",
"854 218 OFFCURVE",
"854 553 CURVE SMOOTH",
"854 798 OFFCURVE",
"655 985 OFFCURVE",
"458 985 CURVE SMOOTH",
"377 985 OFFCURVE",
"55 977 OFFCURVE",
"55 831 CURVE SMOOTH",
"55 765 OFFCURVE",
"79 734 OFFCURVE",
"129 734 CURVE SMOOTH",
"183 734 OFFCURVE",
"284 804 OFFCURVE"
);
},
{
closed = 1;
nodes = (
"418 167 CURVE SMOOTH",
"313 167 OFFCURVE",
"215 198 OFFCURVE",
"179 279 CURVE",
"295 324 OFFCURVE",
"571 448 OFFCURVE",
"732 495 CURVE",
"700 258 OFFCURVE",
"497 167 OFFCURVE"
);
}
);
width = 938;
}
);
unicode = 0259;
},
{
glyphname = f;
lastChange = "2021-08-22 03:02:32 +0000";
layers = (
{
anchors = (
{
name = btm;
position = "{421, -297}";
},
{
name = top;
position = "{79, 1777}";
}
);
layerId = "81641B54-5DFF-4E7E-9A9F-73CB636BC82D";
paths = (
{
closed = 1;
nodes = (
"374 305 CURVE SMOOTH",
"377 495 OFFCURVE",
"387 647 OFFCURVE",
"387 810 CURVE SMOOTH",
"387 975 OFFCURVE",
"409 1310 OFFCURVE",
"596 1310 CURVE SMOOTH",
"668 1310 OFFCURVE",
"706 1248 OFFCURVE",
"769 1248 CURVE SMOOTH",
"804 1248 OFFCURVE",
"808 1317 OFFCURVE",
"808 1345 CURVE SMOOTH",
"808 1439 OFFCURVE",
"649 1501 OFFCURVE",
"596 1501 CURVE SMOOTH",
"322 1501 OFFCURVE",
"247 1005 OFFCURVE",
"240 671 CURVE SMOOTH",
"238 508 OFFCURVE",
"229 364 OFFCURVE",
"229 218 CURVE SMOOTH",
"229 23 OFFCURVE",
"248 -10 OFFCURVE",
"342 -10 CURVE SMOOTH",
"374 -10 OFFCURVE",
"397 12 OFFCURVE",
"397 74 CURVE SMOOTH",
"397 177 OFFCURVE",
"374 274 OFFCURVE"
);
},
{
closed = 1;
nodes = (
"409 726 CURVE SMOOTH",
"466 726 OFFCURVE",
"511 724 OFFCURVE",
"652 716 CURVE",
"684 716 OFFCURVE",
"745 719 OFFCURVE",
"745 820 CURVE SMOOTH",
"745 897 OFFCURVE",
"712 913 OFFCURVE",
"684 913 CURVE SMOOTH",
"666 913 OFFCURVE",
"645 909 OFFCURVE",
"626 907 CURVE",
"247 907 LINE",
"103 913 LINE SMOOTH",
"69 913 OFFCURVE",
"36 860 OFFCURVE",
"36 814 CURVE SMOOTH",
"36 767 OFFCURVE",
"66 716 OFFCURVE",
"101 716 CURVE SMOOTH",
"200 716 OFFCURVE",
"284 726 OFFCURVE"
);
}
);
width = 767;
}
);
unicode = 0066;
userData = {
com.typemytype.robofont.mark = (
1,
0.6,
0.6,
1
);
};
},
{
glyphname = g;
lastChange = "2021-08-22 03:02:32 +0000";
layers = (
{
anchors = (
{
name = btm;
position = "{462, -297}";
},
{
name = top;
position = "{450, 1515}";
}
);
layerId = "81641B54-5DFF-4E7E-9A9F-73CB636BC82D";
paths = (
{
closed = 1;
nodes = (
"356 -237 CURVE SMOOTH",
"305 -237 OFFCURVE",
"293 -279 OFFCURVE",
"293 -339 CURVE SMOOTH",
"293 -456 OFFCURVE",
"502 -483 OFFCURVE",
"555 -483 CURVE SMOOTH",
"814 -483 OFFCURVE",
"796 -159 OFFCURVE",
"833 60 CURVE SMOOTH",
"833 66 OFFCURVE",
"834 69 OFFCURVE",
"834 74 CURVE SMOOTH",
"853 547 LINE",
"853 720 OFFCURVE",
"660 958 OFFCURVE",
"454 958 CURVE SMOOTH",
"192 958 OFFCURVE",
"74 688 OFFCURVE",
"74 416 CURVE SMOOTH",
"74 124 OFFCURVE",
"203 -23 OFFCURVE",
"441 -23 CURVE SMOOTH",
"533 -23 OFFCURVE",
"674 33 OFFCURVE",
"697 129 CURVE",
"679 -31 OFFCURVE",
"694 -284 OFFCURVE",
"567 -284 CURVE SMOOTH",
"384 -284 OFFCURVE",
"397 -237 OFFCURVE"
);
},
{
closed = 1;
nodes = (
"213 429 CURVE",
"215 605 OFFCURVE",
"279 765 OFFCURVE",
"476 765 CURVE SMOOTH",
"657 765 OFFCURVE",
"697 586 OFFCURVE",
"715 448 CURVE",
"686 334 OFFCURVE",
"596 163 OFFCURVE",
"463 163 CURVE SMOOTH",
"317 163 OFFCURVE",
"213 220 OFFCURVE"
);
}
);
width = 955;
}
);
unicode = 0067;
userData = {
com.typemytype.robofont.mark = (
1,
0.6,
0.6,
1
);
};
},
{
glyphname = h;
lastChange = "2021-08-22 03:02:32 +0000";
layers = (
{
anchors = (
{
name = btm;
position = "{502, -297}";
},
{
name = top;
position = "{202, 1548}";
}
);
layerId = "81641B54-5DFF-4E7E-9A9F-73CB636BC82D";
paths = (
{
closed = 1;
nodes = (
"736 85 CURVE SMOOTH",
"736 25 OFFCURVE",
"765 -25 OFFCURVE",
"814 -25 CURVE SMOOTH",
"891 -25 OFFCURVE",
"889 95 OFFCURVE",
"891 150 CURVE SMOOTH",
"901 476 LINE",
"901 678 OFFCURVE",
"834 949 OFFCURVE",
"491 949 CURVE SMOOTH",
"399 949 OFFCURVE",
"266 875 OFFCURVE",
"248 760 CURVE",
"253 881 LINE",
"253 1048 OFFCURVE",
"266 1233 OFFCURVE",
"266 1394 CURVE SMOOTH",
"266 1398 LINE SMOOTH",
"266 1443 OFFCURVE",
"238 1484 OFFCURVE",
"205 1484 CURVE SMOOTH",
"155 1484 OFFCURVE",
"122 1400 OFFCURVE",
"122 1355 CURVE SMOOTH",
"122 1003 OFFCURVE",
"105 454 OFFCURVE",
"105 99 CURVE SMOOTH",
"105 2 OFFCURVE",
"159 -5 OFFCURVE",
"183 -5 CURVE SMOOTH",
"247 -5 OFFCURVE",
"247 63 OFFCURVE",
"248 120 CURVE",
"248 590 LINE SMOOTH",
"248 660 OFFCURVE",
"367 757 OFFCURVE",
"489 757 CURVE SMOOTH",
"740 757 OFFCURVE",
"760 586 OFFCURVE",
"760 462 CURVE SMOOTH",
"760 439 LINE SMOOTH",
"760 317 OFFCURVE",
"736 212 OFFCURVE"
);
}
);
width = 998;
}
);
unicode = 0068;
userData = {
com.typemytype.robofont.mark = (
1,
0.6,
0.6,
1
);
};
},
{
glyphname = i;
lastChange = "2021-08-22 03:02:32 +0000";
layers = (
{
anchors = (
{
name = btm;
position = "{238, -297}";
},
{
name = top;
position = "{169, 1429}";
}
);
layerId = "81641B54-5DFF-4E7E-9A9F-73CB636BC82D";
paths = (
{
closed = 1;
nodes = (
"268 436 CURVE SMOOTH",
"268 580 OFFCURVE",
"284 745 OFFCURVE",
"289 864 CURVE",
"289 920 OFFCURVE",
"284 967 OFFCURVE",
"240 967 CURVE SMOOTH",
"126 967 OFFCURVE",
"126 463 OFFCURVE",
"126 284 CURVE SMOOTH",
"126 136 OFFCURVE",
"132 91 OFFCURVE",
"134 79 CURVE SMOOTH",
"149 4 OFFCURVE",
"177 -23 OFFCURVE",
"225 -23 CURVE SMOOTH",
"256 -23 OFFCURVE",
"293 14 OFFCURVE",
"293 85 CURVE SMOOTH",
"293 184 OFFCURVE",
"268 329 OFFCURVE"
);
},
{
closed = 1;
nodes = (
"248 1414 CURVE SMOOTH",
"203 1414 OFFCURVE",
"144 1345 OFFCURVE",
"144 1282 CURVE SMOOTH",
"144 1191 OFFCURVE",
"218 1174 OFFCURVE",
"256 1174 CURVE SMOOTH",
"319 1174 OFFCURVE",
"349 1217 OFFCURVE",
"349 1299 CURVE SMOOTH",
"349 1392 OFFCURVE",
"293 1414 OFFCURVE"
);
}
);
width = 399;
}
);
unicode = 0069;
userData = {
com.typemytype.robofont.mark = (
1,
0.6,
0.6,
1
);
};
},
{
glyphname = idotless;
lastChange = "2021-08-22 03:02:32 +0000";
layers = (
{
anchors = (
{
name = btm;
position = "{210, -297}";
},
{
name = top;
position = "{222, 1515}";
}
);
layerId = "81641B54-5DFF-4E7E-9A9F-73CB636BC82D";
paths = (
{
closed = 1;
nodes = (
"268 436 CURVE SMOOTH",
"268 580 OFFCURVE",
"284 745 OFFCURVE",
"289 864 CURVE",
"289 920 OFFCURVE",
"284 967 OFFCURVE",
"240 967 CURVE SMOOTH",
"126 967 OFFCURVE",
"126 463 OFFCURVE",
"126 284 CURVE SMOOTH",
"126 136 OFFCURVE",
"132 91 OFFCURVE",
"134 79 CURVE SMOOTH",
"149 4 OFFCURVE",
"177 -23 OFFCURVE",
"225 -23 CURVE SMOOTH",
"256 -23 OFFCURVE",
"293 14 OFFCURVE",
"293 85 CURVE SMOOTH",
"293 184 OFFCURVE",
"268 329 OFFCURVE"
);
}
);
width = 400;
}
);
unicode = 0131;
userData = {
com.typemytype.robofont.mark = (
1,
0.6,
0.6,
1
);
};
},
{
glyphname = iogonek;
lastChange = "2021-08-22 03:02:32 +0000";
layers = (
{
components = (
{
name = i;
}
);
layerId = "81641B54-5DFF-4E7E-9A9F-73CB636BC82D";
paths = (
{
closed = 1;
nodes = (
"165 -293 CURVE SMOOTH",
"129 -293 OFFCURVE",
"84 -260 OFFCURVE",
"66 -208 CURVE",
"66 -8 OFFCURVE",
"295 -35 OFFCURVE",
"295 74 CURVE SMOOTH",
"295 129 OFFCURVE",
"254 153 OFFCURVE",
"240 153 CURVE",
"195 124 OFFCURVE",
"187 105 OFFCURVE",
"124 60 CURVE SMOOTH",
"40 4 OFFCURVE",
"-77 -59 OFFCURVE",
"-77 -248 CURVE SMOOTH",
"-77 -377 OFFCURVE",
"25 -466 OFFCURVE",
"153 -466 CURVE SMOOTH",
"232 -466 OFFCURVE",
"334 -450 OFFCURVE",
"334 -309 CURVE SMOOTH",
"334 -270 OFFCURVE",
"319 -230 OFFCURVE",
"293 -230 CURVE SMOOTH",
"234 -230 OFFCURVE",
"228 -293 OFFCURVE"
);
}
);
width = 399;
}
);
unicode = 012F;
},
{
glyphname = j;
lastChange = "2021-08-22 03:02:32 +0000";
layers = (
{
anchors = (
{
name = btm;
position = "{142, -297}";
},
{
name = top;
position = "{228, 1429}";
}
);
layerId = "81641B54-5DFF-4E7E-9A9F-73CB636BC82D";
paths = (
{
closed = 1;
nodes = (
"423 866 CURVE",
"418 913 OFFCURVE",
"399 968 OFFCURVE",
"349 968 CURVE SMOOTH",
"284 968 OFFCURVE",
"274 868 OFFCURVE",
"273 796 CURVE",
"270 222 LINE SMOOTH",
"268 -39 OFFCURVE",
"256 -303 OFFCURVE",
"-41 -303 CURVE SMOOTH",
"-71 -303 LINE SMOOTH",
"-119 -303 OFFCURVE",
"-153 -317 OFFCURVE",
"-153 -392 CURVE SMOOTH",
"-153 -495 OFFCURVE",
"-53 -495 OFFCURVE",
"-14 -495 CURVE SMOOTH",
"409 -495 OFFCURVE",
"403 -163 OFFCURVE",
"403 270 CURVE SMOOTH",
"403 349 OFFCURVE",
"400 421 OFFCURVE",
"400 481 CURVE SMOOTH",
"400 612 OFFCURVE",
"423 747 OFFCURVE"
);
},
{
closed = 1;
nodes = (
"337 1459 CURVE SMOOTH",
"289 1459 OFFCURVE",
"229 1390 OFFCURVE",
"229 1327 CURVE SMOOTH",
"229 1236 OFFCURVE",
"305 1217 OFFCURVE",
"344 1217 CURVE SMOOTH",
"408 1217 OFFCURVE",
"437 1262 OFFCURVE",
"437 1341 CURVE SMOOTH",
"437 1435 OFFCURVE",
"381 1459 OFFCURVE"
);
}
);
width = 570;
}
);
unicode = 006A;
userData = {
com.typemytype.robofont.mark = (
1,
0.6,
0.6,
1
);
};
},
{
glyphname = jdotless;
lastChange = "2021-08-22 03:02:32 +0000";
layers = (
{
anchors = (
{
name = btm;
position = "{223, -297}";
},
{
name = top;
position = "{225, 1429}";
}
);
layerId = "81641B54-5DFF-4E7E-9A9F-73CB636BC82D";
paths = (
{
closed = 1;
nodes = (
"297 846 CURVE",
"292 894 OFFCURVE",
"273 949 OFFCURVE",
"223 949 CURVE SMOOTH",
"160 949 OFFCURVE",
"146 849 OFFCURVE",
"146 775 CURVE SMOOTH",
"144 329 LINE SMOOTH",
"142 67 OFFCURVE",
"132 -292 OFFCURVE",
"-167 -292 CURVE SMOOTH",
"-198 -292 LINE SMOOTH",
"-244 -292 OFFCURVE",
"-279 -307 OFFCURVE",
"-279 -381 CURVE SMOOTH",
"-279 -483 OFFCURVE",
"-179 -483 OFFCURVE",
"-142 -483 CURVE SMOOTH",
"283 -483 OFFCURVE",
"277 -155 OFFCURVE",
"277 277 CURVE SMOOTH",
"277 354 OFFCURVE",
"274 421 OFFCURVE",
"274 481 CURVE SMOOTH",
"274 612 OFFCURVE",
"297 726 OFFCURVE"
);
}
);
width = 399;
}
);
unicode = 0237;
userData = {
com.typemytype.robofont.mark = (
1,
0.6,
0.6,
1
);
};
},
{
glyphname = k;
lastChange = "2021-08-22 03:02:32 +0000";
layers = (
{
anchors = (
{
name = btm;
position = "{471, -297}";
},
{
name = top;
position = "{532, 1515}";
}
);
layerId = "81641B54-5DFF-4E7E-9A9F-73CB636BC82D";
paths = (
{
closed = 1;
nodes = (
"130 175 CURVE SMOOTH",
"130 150 OFFCURVE",
"129 112 OFFCURVE",
"129 91 CURVE SMOOTH",
"129 57 OFFCURVE",
"149 -14 OFFCURVE",
"205 -14 CURVE SMOOTH",
"254 -14 OFFCURVE",
"284 50 OFFCURVE",
"284 98 CURVE SMOOTH",
"284 163 OFFCURVE",
"282 243 OFFCURVE",
"282 301 CURVE",
"473 532 LINE",
"645 69 OFFCURVE",
"660 49 OFFCURVE",
"660 49 CURVE",
"660 49 OFFCURVE",
"660 49 OFFCURVE",
"660 49 CURVE",
"674 -5 OFFCURVE",
"694 -29 OFFCURVE",
"724 -29 CURVE SMOOTH",
"771 -29 OFFCURVE",
"814 20 OFFCURVE",
"814 85 CURVE SMOOTH",
"814 112 OFFCURVE",
"783 184 OFFCURVE",
"783 184 CURVE",
"734 293 OFFCURVE",
"740 253 OFFCURVE",
"688 373 CURVE SMOOTH",
"647 462 OFFCURVE",
"619 560 OFFCURVE",
"580 651 CURVE",
"668 734 OFFCURVE",
"814 850 OFFCURVE",
"814 922 CURVE SMOOTH",
"814 932 LINE SMOOTH",
"814 994 OFFCURVE",
"798 1023 OFFCURVE",
"740 1023 CURVE SMOOTH",
"716 1023 OFFCURVE",
"689 998 OFFCURVE",
"671 970 CURVE SMOOTH",
"282 462 LINE",
"282 466 OFFCURVE",
"282 471 OFFCURVE",
"282 476 CURVE SMOOTH",
"282 796 OFFCURVE",
"317 1074 OFFCURVE",
"317 1372 CURVE SMOOTH",
"317 1439 OFFCURVE",
"274 1475 OFFCURVE",
"250 1475 CURVE SMOOTH",
"218 1475 OFFCURVE",
"177 1433 OFFCURVE",
"175 1375 CURVE SMOOTH",
"146 359 LINE SMOOTH",
"144 303 OFFCURVE",
"132 270 OFFCURVE"
);
}
);
width = 894;
}
);
unicode = 006B;
userData = {
com.typemytype.robofont.mark = (
1,
0.6,
0.6,
1
);
};
},
{
glyphname = l;
lastChange = "2021-08-22 03:02:32 +0000";
layers = (
{
anchors = (
{
name = btm;
position = "{324, -297}";
},
{
name = top;
position = "{237, 1714}";
}
);
layerId = "81641B54-5DFF-4E7E-9A9F-73CB636BC82D";
paths = (
{
closed = 1;
nodes = (
"349 181 CURVE SMOOTH",
"301 181 OFFCURVE",
"289 311 OFFCURVE",
"292 433 CURVE SMOOTH",
"305 1394 LINE SMOOTH",
"305 1435 OFFCURVE",
"283 1487 OFFCURVE",
"247 1487 CURVE SMOOTH",
"193 1487 OFFCURVE",
"173 1421 OFFCURVE",
"173 1340 CURVE SMOOTH",
"160 243 LINE SMOOTH",
"159 85 OFFCURVE",
"213 -5 OFFCURVE",
"347 -5 CURVE SMOOTH",
"399 -5 OFFCURVE",
"489 50 OFFCURVE",
"489 134 CURVE SMOOTH",
"489 179 OFFCURVE",
"472 228 OFFCURVE",
"433 228 CURVE SMOOTH",
"397 228 OFFCURVE",
"387 181 OFFCURVE"
);
}
);
width = 518;
}
);
unicode = 006C;
userData = {
com.typemytype.robofont.mark = (
1,
0.6,
0.6,
1
);
};
},
{
glyphname = lslash;
lastChange = "2021-08-22 03:02:32 +0000";
layers = (
{
components = (
{
name = l;
transform = "{1, 0, 0, 1, 20, 0}";
}
);
layerId = "81641B54-5DFF-4E7E-9A9F-73CB636BC82D";
paths = (
{
closed = 1;
nodes = (
"363 678 CURVE",
"413 715 OFFCURVE",
"502 769 OFFCURVE",
"502 859 CURVE SMOOTH",
"502 907 OFFCURVE",
"461 926 OFFCURVE",
"421 926 CURVE SMOOTH",
"382 926 OFFCURVE",
"301 849 OFFCURVE",
"256 805 CURVE",
"99 679 LINE SMOOTH",
"69 655 OFFCURVE",
"33 625 OFFCURVE",
"33 588 CURVE SMOOTH",
"33 526 OFFCURVE",
"95 491 OFFCURVE",
"119 491 CURVE SMOOTH",
"175 491 OFFCURVE",
"256 619 OFFCURVE"
);
}
);
width = 552;
}
);
unicode = 0142;
},
{
glyphname = m;
lastChange = "2021-08-22 03:02:32 +0000";
layers = (
{
anchors = (
{
name = btm;
position = "{745, -297}";
},
{
name = top;
position = "{726, 1515}";
}
);
layerId = "81641B54-5DFF-4E7E-9A9F-73CB636BC82D";
paths = (
{
closed = 1;
nodes = (
"1194 99 CURVE SMOOTH",
"1194 50 OFFCURVE",
"1236 -23 OFFCURVE",
"1288 -23 CURVE SMOOTH",
"1355 -23 OFFCURVE",
"1381 192 OFFCURVE",
"1381 406 CURVE SMOOTH",
"1381 769 OFFCURVE",
"1237 920 OFFCURVE",
"1013 920 CURVE SMOOTH",
"914 920 OFFCURVE",
"753 839 OFFCURVE",
"724 694 CURVE",
"724 881 OFFCURVE",
"533 949 OFFCURVE",
"443 949 CURVE SMOOTH",
"356 949 OFFCURVE",
"268 877 OFFCURVE",
"240 802 CURVE",
"240 804 OFFCURVE",
"240 810 OFFCURVE",
"240 820 CURVE SMOOTH",
"240 905 OFFCURVE",
"212 926 OFFCURVE",
"181 926 CURVE SMOOTH",
"103 926 OFFCURVE",
"112 745 OFFCURVE",
"112 436 CURVE SMOOTH",
"112 373 OFFCURVE",
"114 289 OFFCURVE",
"114 181 CURVE SMOOTH",
"114 165 OFFCURVE",
"112 150 OFFCURVE",
"112 134 CURVE SMOOTH",
"112 124 LINE SMOOTH",
"112 14 OFFCURVE",
"144 -12 OFFCURVE",
"198 -12 CURVE SMOOTH",
"218 -12 OFFCURVE",
"273 25 OFFCURVE",
"274 89 CURVE",
"256 319 LINE SMOOTH",
"253 384 OFFCURVE",
"248 461 OFFCURVE",
"248 528 CURVE SMOOTH",
"248 567 LINE SMOOTH",
"248 702 OFFCURVE",
"293 757 OFFCURVE",
"441 757 CURVE SMOOTH",
"555 757 OFFCURVE",
"626 616 OFFCURVE",
"625 502 CURVE SMOOTH",
"621 203 LINE SMOOTH",
"621 183 OFFCURVE",
"610 105 OFFCURVE",
"610 101 CURVE SMOOTH",
"610 8 OFFCURVE",
"661 -8 OFFCURVE",
"709 -8 CURVE SMOOTH",
"747 -8 OFFCURVE",
"775 49 OFFCURVE",
"775 114 CURVE SMOOTH",
"775 120 OFFCURVE",
"767 169 OFFCURVE",
"767 175 CURVE SMOOTH",
"777 582 LINE",
"812 674 OFFCURVE",
"934 734 OFFCURVE",
"1005 734 CURVE SMOOTH",
"1156 734 OFFCURVE",
"1238 600 OFFCURVE",
"1238 492 CURVE SMOOTH",
"1238 437 OFFCURVE",
"1237 391 OFFCURVE",
"1237 337 CURVE SMOOTH",
"1237 228 OFFCURVE",
"1194 203 OFFCURVE"
);
}
);
width = 1496;
}
);
unicode = 006D;
userData = {
com.typemytype.robofont.mark = (
1,
0.6,
0.6,
1
);
};
},
{
glyphname = n;
lastChange = "2021-08-22 03:02:32 +0000";
layers = (
{
anchors = (
{
name = btm;
position = "{507, -297}";
},
{
name = top;
position = "{511, 1547}";
}
);
layerId = "81641B54-5DFF-4E7E-9A9F-73CB636BC82D";
paths = (
{
closed = 1;
nodes = (
"734 84 CURVE SMOOTH",
"734 -23 OFFCURVE",
"769 -29 OFFCURVE",
"812 -29 CURVE SMOOTH",
"901 -29 OFFCURVE",
"909 237 OFFCURVE",
"909 439 CURVE SMOOTH",
"909 684 OFFCURVE",
"839 967 OFFCURVE",
"563 967 CURVE SMOOTH",
"478 967 OFFCURVE",
"292 889 OFFCURVE",
"244 720 CURVE",
"248 760 OFFCURVE",
"253 798 OFFCURVE",
"253 829 CURVE SMOOTH",
"253 920 OFFCURVE",
"225 960 OFFCURVE",
"177 960 CURVE SMOOTH",
"120 960 OFFCURVE",
"105 818 OFFCURVE",
"105 726 CURVE SMOOTH",
"105 696 LINE SMOOTH",
"105 671 OFFCURVE",
"105 643 OFFCURVE",
"116 501 CURVE",
"112 109 LINE SMOOTH",
"109 0 OFFCURVE",
"160 -12 OFFCURVE",
"205 -12 CURVE SMOOTH",
"268 -12 OFFCURVE",
"274 40 OFFCURVE",
"274 103 CURVE SMOOTH",
"274 195 OFFCURVE",
"243 274 OFFCURVE",
"243 367 CURVE SMOOTH",
"243 427 OFFCURVE",
"247 521 OFFCURVE",
"247 586 CURVE",
"313 694 OFFCURVE",
"448 775 OFFCURVE",
"532 775 CURVE SMOOTH",
"745 775 OFFCURVE",
"775 540 OFFCURVE",
"775 384 CURVE SMOOTH",
"775 277 OFFCURVE",
"734 184 OFFCURVE"
);
}
);
width = 1005;
}
);
unicode = 006E;
userData = {
com.typemytype.robofont.mark = (
1,
0.6,
0.6,
1
);
};
},
{
glyphname = eng;
lastChange = "2021-08-22 03:02:32 +0000";
layers = (
{
layerId = "81641B54-5DFF-4E7E-9A9F-73CB636BC82D";
paths = (
{
closed = 1;
nodes = (
"757 10 LINE",
"753 -203 OFFCURVE",
"629 -228 OFFCURVE",
"489 -228 CURVE SMOOTH",
"473 -228 OFFCURVE",
"461 -228 OFFCURVE",
"443 -228 CURVE SMOOTH",
"387 -228 OFFCURVE",
"349 -247 OFFCURVE",
"349 -317 CURVE SMOOTH",
"349 -421 OFFCURVE",
"450 -421 OFFCURVE",
"491 -421 CURVE SMOOTH",
"846 -421 OFFCURVE",
"905 -189 OFFCURVE",
"909 139 CURVE SMOOTH",
"913 319 LINE SMOOTH",
"916 615 OFFCURVE",
"877 967 OFFCURVE",
"563 967 CURVE SMOOTH",
"478 967 OFFCURVE",
"317 849 OFFCURVE",
"238 765 CURVE",
"243 796 OFFCURVE",
"244 820 OFFCURVE",
"244 843 CURVE SMOOTH",
"244 926 OFFCURVE",
"218 960 OFFCURVE",
"177 960 CURVE SMOOTH",
"120 960 OFFCURVE",
"105 818 OFFCURVE",
"105 726 CURVE",
"114 550 OFFCURVE",
"116 523 OFFCURVE",
"116 501 CURVE SMOOTH",
"112 98 LINE SMOOTH",
"109 -10 OFFCURVE",
"160 -25 OFFCURVE",
"205 -25 CURVE SMOOTH",
"270 -25 OFFCURVE",
"273 31 OFFCURVE",
"274 94 CURVE SMOOTH",
"274 116 OFFCURVE",
"243 240 OFFCURVE",
"243 352 CURVE SMOOTH",
"243 427 OFFCURVE",
"247 521 OFFCURVE",
"247 586 CURVE",
"313 694 OFFCURVE",
"448 775 OFFCURVE",
"532 775 CURVE SMOOTH",
"753 775 OFFCURVE",
"775 511 OFFCURVE",
"775 352 CURVE"
);
}
);
width = 1005;
}
);
unicode = 014B;
userData = {
com.typemytype.robofont.mark = (
0.967,
0.6,
1,
1
);
};
},
{
glyphname = o;
lastChange = "2021-08-22 03:02:32 +0000";
layers = (
{
anchors = (
{
name = btm;
position = "{478, -297}";
},
{
name = top;
position = "{483, 1515}";
}
);
layerId = "81641B54-5DFF-4E7E-9A9F-73CB636BC82D";
paths = (
{
closed = 1;
nodes = (
"884 462 CURVE SMOOTH",
"884 769 OFFCURVE",
"743 965 OFFCURVE",
"502 965 CURVE SMOOTH",
"293 965 OFFCURVE",
"76 829 OFFCURVE",
"76 462 CURVE SMOOTH",
"76 243 OFFCURVE",
"258 -23 OFFCURVE",
"478 -23 CURVE SMOOTH",
"684 -23 OFFCURVE",
"884 175 OFFCURVE"
);
},
{
closed = 1;
nodes = (
"468 163 CURVE SMOOTH",
"334 163 OFFCURVE",
"205 324 OFFCURVE",
"205 483 CURVE SMOOTH",
"205 678 OFFCURVE",
"374 775 OFFCURVE",
"526 775 CURVE SMOOTH",
"655 775 OFFCURVE",
"753 652 OFFCURVE",
"753 471 CURVE SMOOTH",
"753 274 OFFCURVE",
"612 163 OFFCURVE"
);
}
);
width = 968;
}
);
unicode = 006F;
userData = {
com.typemytype.robofont.mark = (
1,
0.6,
0.6,
1
);
};
},
{
glyphname = ohorn;
lastChange = "2021-08-22 03:02:32 +0000";
layers = (
{
anchors = (
{
name = btm;
position = "{481, -297}";
},
{
name = top;
position = "{499, 1515}";
}
);
layerId = "81641B54-5DFF-4E7E-9A9F-73CB636BC82D";
paths = (
{
closed = 1;
nodes = (
"884 462 CURVE SMOOTH",
"884 769 OFFCURVE",
"743 965 OFFCURVE",
"502 965 CURVE SMOOTH",
"293 965 OFFCURVE",
"76 829 OFFCURVE",
"76 462 CURVE SMOOTH",
"76 243 OFFCURVE",
"258 -23 OFFCURVE",
"478 -23 CURVE SMOOTH",
"684 -23 OFFCURVE",
"884 175 OFFCURVE"
);
},
{
closed = 1;
nodes = (
"468 163 CURVE SMOOTH",
"334 163 OFFCURVE",
"205 324 OFFCURVE",
"205 483 CURVE SMOOTH",
"205 678 OFFCURVE",
"374 775 OFFCURVE",
"526 775 CURVE SMOOTH",
"655 775 OFFCURVE",
"753 652 OFFCURVE",
"753 471 CURVE SMOOTH",
"753 274 OFFCURVE",
"612 163 OFFCURVE"
);
},
{
closed = 1;
nodes = (
"909 970 CURVE SMOOTH",
"946 970 OFFCURVE",
"1013 936 OFFCURVE",
"1013 884 CURVE SMOOTH",
"1013 743 OFFCURVE",
"753 815 OFFCURVE",
"753 688 CURVE SMOOTH",
"753 636 OFFCURVE",
"792 607 OFFCURVE",
"815 607 CURVE",
"1074 679 OFFCURVE",
"1156 740 OFFCURVE",
"1156 926 CURVE SMOOTH",
"1156 1054 OFFCURVE",
"1054 1146 OFFCURVE",
"924 1146 CURVE SMOOTH",
"849 1146 OFFCURVE",
"722 1109 OFFCURVE",
"722 1030 CURVE SMOOTH",
"722 988 OFFCURVE",
"732 946 OFFCURVE",
"760 946 CURVE SMOOTH",
"825 946 OFFCURVE",
"823 970 OFFCURVE"
);
}
);
width = 968;
}
);
unicode = 01A1;
userData = {
com.typemytype.robofont.mark = (
1,
0.6,
0.6,
1
);
};
},
{
glyphname = oslash;
lastChange = "2021-08-22 03:02:32 +0000";
layers = (
{
layerId = "81641B54-5DFF-4E7E-9A9F-73CB636BC82D";
paths = (
{
closed = 1;
nodes = (
"105 29 CURVE SMOOTH",
"105 -26 OFFCURVE",
"136 -66 OFFCURVE",
"193 -66 CURVE SMOOTH",
"229 -66 OFFCURVE",
"282 23 OFFCURVE",
"289 39 CURVE",
"337 14 OFFCURVE",
"429 -23 OFFCURVE",
"476 -23 CURVE SMOOTH",
"684 -23 OFFCURVE",
"884 175 OFFCURVE",
"884 462 CURVE SMOOTH",
"884 595 OFFCURVE",
"853 710 OFFCURVE",
"808 792 CURVE",
"868 841 OFFCURVE",
"889 859 OFFCURVE",
"889 909 CURVE SMOOTH",
"889 960 OFFCURVE",
"871 988 OFFCURVE",
"831 988 CURVE SMOOTH",
"790 988 OFFCURVE",
"732 930 OFFCURVE",
"709 901 CURVE",
"652 940 OFFCURVE",
"582 963 OFFCURVE",
"501 963 CURVE SMOOTH",
"297 963 OFFCURVE",
"79 829 OFFCURVE",
"79 462 CURVE SMOOTH",
"79 368 OFFCURVE",
"124 243 OFFCURVE",
"173 160 CURVE",
"150 129 OFFCURVE",
"105 91 OFFCURVE"
);
},
{
closed = 1;
nodes = (
"205 481 CURVE SMOOTH",
"205 681 OFFCURVE",
"368 775 OFFCURVE",
"525 775 CURVE SMOOTH",
"562 775 OFFCURVE",
"578 775 OFFCURVE",
"592 767 CURVE",
"517 660 LINE SMOOTH",
"456 574 OFFCURVE",
"382 473 OFFCURVE",
"344 408 CURVE",
"266 293 LINE",
"256 309 OFFCURVE",
"205 400 OFFCURVE"
);
},
{
closed = 1;
nodes = (
"753 463 CURVE SMOOTH",
"751 273 OFFCURVE",
"610 163 OFFCURVE",
"468 163 CURVE SMOOTH",
"433 163 OFFCURVE",
"399 175 OFFCURVE",
"373 187 CURVE",
"462 315 OFFCURVE",
"600 535 OFFCURVE",
"696 666 CURVE",
"736 629 OFFCURVE",
"753 532 OFFCURVE"
);
}
);
width = 968;
}
);
unicode = 00F8;
},
{
glyphname = oe;
lastChange = "2021-08-22 03:02:32 +0000";
layers = (
{
anchors = (
{
name = btm;
position = "{818, -297}";
}
);
layerId = "81641B54-5DFF-4E7E-9A9F-73CB636BC82D";
paths = (
{
closed = 1;
nodes = (
"863 448 CURVE SMOOTH",
"863 491 OFFCURVE",
"875 544 OFFCURVE",
"879 590 CURVE SMOOTH",
"879 600 OFFCURVE",
"879 615 OFFCURVE",
"875 625 CURVE SMOOTH",
"814 802 OFFCURVE",
"681 965 OFFCURVE",
"515 965 CURVE SMOOTH",
"301 965 OFFCURVE",
"84 829 OFFCURVE",
"84 462 CURVE SMOOTH",
"84 243 OFFCURVE",
"268 -23 OFFCURVE",
"489 -23 CURVE SMOOTH",
"623 -23 OFFCURVE",
"866 124 OFFCURVE",
"866 326 CURVE SMOOTH",
"866 377 OFFCURVE",
"863 406 OFFCURVE"
);
},
{
closed = 1;
nodes = (
"802 421 CURVE",
"781 322 OFFCURVE",
"775 287 OFFCURVE",
"775 273 CURVE SMOOTH",
"775 266 OFFCURVE",
"775 263 OFFCURVE",
"777 260 CURVE SMOOTH",
"850 105 OFFCURVE",
"1009 -20 OFFCURVE",
"1152 -20 CURVE SMOOTH",
"1236 -20 OFFCURVE",
"1555 -12 OFFCURVE",
"1555 134 CURVE SMOOTH",
"1555 200 OFFCURVE",
"1532 229 OFFCURVE",
"1485 229 CURVE SMOOTH",
"1417 229 OFFCURVE",
"1325 160 OFFCURVE",
"1226 160 CURVE SMOOTH",
"1126 160 OFFCURVE",
"944 179 OFFCURVE",
"897 329 CURVE",
"999 371 OFFCURVE",
"1126 411 OFFCURVE",
"1429 517 CURVE",
"1489 528 OFFCURVE",
"1551 542 OFFCURVE",
"1551 643 CURVE SMOOTH",
"1551 850 OFFCURVE",
"1370 963 OFFCURVE",
"1221 963 CURVE SMOOTH",
"993 963 OFFCURVE",
"833 815 OFFCURVE",
"773 598 CURVE SMOOTH",
"773 595 OFFCURVE",
"773 590 OFFCURVE",
"773 586 CURVE SMOOTH",
"773 525 OFFCURVE",
"802 472 OFFCURVE"
);
},
{
closed = 1;
nodes = (
"1191 775 CURVE SMOOTH",
"1299 775 OFFCURVE",
"1381 745 OFFCURVE",
"1406 689 CURVE",
"1295 645 OFFCURVE",
"1050 560 OFFCURVE",
"894 515 CURVE",
"932 715 OFFCURVE",
"1112 775 OFFCURVE"
);
},
{
closed = 1;
nodes = (
"473 163 CURVE SMOOTH",
"342 163 OFFCURVE",
"212 324 OFFCURVE",
"212 483 CURVE SMOOTH",
"212 678 OFFCURVE",
"382 775 OFFCURVE",
"533 775 CURVE SMOOTH",
"666 775 OFFCURVE",
"771 652 OFFCURVE",
"771 471 CURVE SMOOTH",
"771 274 OFFCURVE",
"621 163 OFFCURVE"
);
}
);
width = 1662;
}
);
unicode = 0153;
userData = {
com.typemytype.robofont.mark = (
1,
0.6,
0.6,
1
);
};
},
{
glyphname = p;
lastChange = "2021-08-22 03:02:32 +0000";
layers = (
{
anchors = (
{
name = btm;
position = "{507, -297}";
},
{
name = top;
position = "{495, 1515}";
}
);
layerId = "81641B54-5DFF-4E7E-9A9F-73CB636BC82D";
paths = (
{
closed = 1;
nodes = (
"189 -511 CURVE SMOOTH",
"223 -511 OFFCURVE",
"270 -483 OFFCURVE",
"270 -428 CURVE SMOOTH",
"270 -289 OFFCURVE",
"250 -212 OFFCURVE",
"250 -68 CURVE SMOOTH",
"250 14 LINE",
"319 0 OFFCURVE",
"368 -10 OFFCURVE",
"441 -10 CURVE SMOOTH",
"726 -10 OFFCURVE",
"907 215 OFFCURVE",
"907 562 CURVE SMOOTH",
"907 788 OFFCURVE",
"743 967 OFFCURVE",
"441 967 CURVE SMOOTH",
"342 967 OFFCURVE",
"189 922 OFFCURVE",
"124 777 CURVE",
"105 -155 OFFCURVE",
"105 -240 OFFCURVE",
"105 -303 CURVE SMOOTH",
"105 -443 OFFCURVE",
"105 -511 OFFCURVE"
);
},
{
closed = 1;
nodes = (
"253 689 LINE SMOOTH",
"254 747 OFFCURVE",
"378 779 OFFCURVE",
"439 779 CURVE SMOOTH",
"641 779 OFFCURVE",
"767 696 OFFCURVE",
"767 532 CURVE SMOOTH",
"767 287 OFFCURVE",
"582 179 OFFCURVE",
"381 179 CURVE SMOOTH",
"352 179 OFFCURVE",
"253 181 OFFCURVE",
"254 193 CURVE",
"254 193 OFFCURVE",
"244 391 OFFCURVE",
"247 436 CURVE SMOOTH"
);
}
);
width = 1003;
}
);
unicode = 0070;
userData = {
com.typemytype.robofont.mark = (
1,
0.6,
0.6,
1
);
};
},
{
glyphname = thorn;
lastChange = "2021-08-22 03:02:32 +0000";
layers = (
{
anchors = (
{
name = btm;
position = "{478, -297}";
}
);
layerId = "81641B54-5DFF-4E7E-9A9F-73CB636BC82D";
paths = (
{
closed = 1;
nodes = (
"859 492 CURVE SMOOTH",
"859 802 OFFCURVE",
"739 960 OFFCURVE",
"472 960 CURVE SMOOTH",
"403 960 OFFCURVE",
"311 932 OFFCURVE",
"256 866 CURVE",
"256 936 OFFCURVE",
"266 1204 OFFCURVE",
"266 1372 CURVE SMOOTH",
"266 1433 OFFCURVE",
"223 1461 OFFCURVE",
"195 1461 CURVE SMOOTH",
"134 1461 OFFCURVE",
"129 1412 OFFCURVE",
"126 1328 CURVE SMOOTH",
"99 -258 LINE",
"101 -349 OFFCURVE",
"130 -381 OFFCURVE",
"187 -381 CURVE SMOOTH",
"218 -381 OFFCURVE",
"253 -347 OFFCURVE",
"253 -273 CURVE SMOOTH",
"253 -232 OFFCURVE",
"253 -142 OFFCURVE",
"243 33 CURVE",
"292 -5 OFFCURVE",
"342 -10 OFFCURVE",
"368 -10 CURVE SMOOTH",
"565 -10 OFFCURVE",
"859 119 OFFCURVE"
);
},
{
closed = 1;
nodes = (
"253 668 LINE",
"293 720 OFFCURVE",
"391 769 OFFCURVE",
"462 769 CURVE SMOOTH",
"598 769 OFFCURVE",
"716 702 OFFCURVE",
"716 528 CURVE SMOOTH",
"716 319 OFFCURVE",
"563 181 OFFCURVE",
"382 181 CURVE SMOOTH",
"277 181 OFFCURVE",
"253 150 OFFCURVE",
"253 332 CURVE",
"250 356 OFFCURVE",
"253 391 OFFCURVE",
"253 429 CURVE SMOOTH"
);
}
);
width = 970;
}
);
unicode = 00FE;
userData = {
com.typemytype.robofont.mark = (
1,
0.6,
0.6,
1
);
};
},
{
glyphname = q;
lastChange = "2021-08-22 03:02:32 +0000";
layers = (
{
anchors = (
{
name = btm;
position = "{476, -297}";
},
{
name = top;
position = "{423, 1515}";
}
);
layerId = "81641B54-5DFF-4E7E-9A9F-73CB636BC82D";
paths = (
{
closed = 1;
nodes = (
"696 -399 LINE SMOOTH",
"696 -403 OFFCURVE",
"696 -408 OFFCURVE",
"696 -411 CURVE SMOOTH",
"696 -473 OFFCURVE",
"726 -491 OFFCURVE",
"775 -491 CURVE SMOOTH",
"800 -491 OFFCURVE",
"850 -471 OFFCURVE",
"850 -408 CURVE SMOOTH",
"850 -203 LINE SMOOTH",
"850 165 OFFCURVE",
"866 377 OFFCURVE",
"866 574 CURVE SMOOTH",
"866 836 OFFCURVE",
"635 975 OFFCURVE",
"483 975 CURVE SMOOTH",
"254 975 OFFCURVE",
"85 743 OFFCURVE",
"85 443 CURVE SMOOTH",
"85 229 OFFCURVE",
"220 -5 OFFCURVE",
"461 -5 CURVE SMOOTH",
"553 -5 OFFCURVE",
"696 74 OFFCURVE",
"719 159 CURVE",
"716 -14 LINE"
);
},
{
closed = 1;
nodes = (
"220 468 CURVE SMOOTH",
"220 661 OFFCURVE",
"354 788 OFFCURVE",
"507 788 CURVE SMOOTH",
"590 788 OFFCURVE",
"684 729 OFFCURVE",
"724 621 CURVE",
"724 454 OFFCURVE",
"681 189 OFFCURVE",
"476 189 CURVE SMOOTH",
"297 189 OFFCURVE",
"220 342 OFFCURVE"
);
}
);
width = 968;
}
);
unicode = 0071;
userData = {
com.typemytype.robofont.mark = (
1,
0.6,
0.6,
1
);
};
},
{
glyphname = r;
lastChange = "2021-08-22 03:02:32 +0000";
layers = (
{
anchors = (
{
name = btm;
position = "{202, -297}";
},
{
name = top;
position = "{478, 1515}";
}
);
layerId = "81641B54-5DFF-4E7E-9A9F-73CB636BC82D";
paths = (
{
closed = 1;
nodes = (
"580 783 CURVE SMOOTH",
"712 783 OFFCURVE",
"661 706 OFFCURVE",
"729 706 CURVE SMOOTH",
"773 706 OFFCURVE",
"818 751 OFFCURVE",
"818 814 CURVE SMOOTH",
"818 958 OFFCURVE",
"685 973 OFFCURVE",
"610 973 CURVE SMOOTH",
"513 973 OFFCURVE",
"332 868 OFFCURVE",
"289 732 CURVE",
"292 752 OFFCURVE",
"292 825 OFFCURVE",
"292 841 CURVE SMOOTH",
"292 928 OFFCURVE",
"258 952 OFFCURVE",
"237 952 CURVE SMOOTH",
"187 952 OFFCURVE",
"163 907 OFFCURVE",
"159 844 CURVE SMOOTH",
"126 418 OFFCURVE",
"129 392 OFFCURVE",
"129 313 CURVE SMOOTH",
"129 297 OFFCURVE",
"129 282 OFFCURVE",
"129 253 CURVE SMOOTH",
"129 223 OFFCURVE",
"126 183 OFFCURVE",
"126 119 CURVE SMOOTH",
"126 35 OFFCURVE",
"144 -5 OFFCURVE",
"210 -5 CURVE SMOOTH",
"266 -5 OFFCURVE",
"284 71 OFFCURVE",
"284 98 CURVE SMOOTH",
"274 406 LINE SMOOTH",
"274 418 OFFCURVE",
"274 429 OFFCURVE",
"274 441 CURVE SMOOTH",
"274 666 OFFCURVE",
"349 783 OFFCURVE",
"557 783 CURVE SMOOTH",
"563 783 OFFCURVE",
"570 783 OFFCURVE"
);
}
);
width = 808;
}
);
unicode = 0072;
userData = {
com.typemytype.robofont.mark = (
1,
0.6,
0.6,
1
);
};
},
{
glyphname = s;
lastChange = "2021-08-22 03:02:32 +0000";
layers = (
{
anchors = (
{
name = btm;
position = "{462, -297}";
},
{
name = top;
position = "{456, 1515}";
}
);
layerId = "81641B54-5DFF-4E7E-9A9F-73CB636BC82D";
paths = (
{
closed = 1;
nodes = (
"820 247 CURVE SMOOTH",
"820 544 OFFCURVE",
"243 411 OFFCURVE",
"243 619 CURVE SMOOTH",
"243 709 OFFCURVE",
"403 792 OFFCURVE",
"501 792 CURVE SMOOTH",
"590 792 OFFCURVE",
"645 775 OFFCURVE",
"645 709 CURVE SMOOTH",
"645 657 OFFCURVE",
"649 623 OFFCURVE",
"681 623 CURVE SMOOTH",
"750 623 OFFCURVE",
"750 734 OFFCURVE",
"750 802 CURVE SMOOTH",
"750 899 OFFCURVE",
"660 988 OFFCURVE",
"525 988 CURVE SMOOTH",
"334 988 OFFCURVE",
"105 849 OFFCURVE",
"105 607 CURVE SMOOTH",
"105 274 OFFCURVE",
"686 382 OFFCURVE",
"686 237 CURVE SMOOTH",
"686 215 OFFCURVE",
"540 163 OFFCURVE",
"429 163 CURVE SMOOTH",
"332 163 OFFCURVE",
"292 173 OFFCURVE",
"240 240 CURVE SMOOTH",
"229 250 OFFCURVE",
"218 258 OFFCURVE",
"215 258 CURVE SMOOTH",
"183 258 OFFCURVE",
"150 187 OFFCURVE",
"150 153 CURVE SMOOTH",
"150 -10 OFFCURVE",
"322 -31 OFFCURVE",
"408 -31 CURVE SMOOTH",
"525 -31 OFFCURVE",
"820 40 OFFCURVE"
);
}
);
width = 916;
}
);
unicode = 0073;
userData = {
com.typemytype.robofont.mark = (
1,
0.6,
0.6,
1
);
};
},
{
glyphname = germandbls;
lastChange = "2021-08-22 03:02:32 +0000";
layers = (
{
anchors = (
{
name = btm;
position = "{560, -297}";
}
);
layerId = "81641B54-5DFF-4E7E-9A9F-73CB636BC82D";
paths = (
{
closed = 1;
nodes = (
"270 679 CURVE",
"270 829 OFFCURVE",
"292 1128 OFFCURVE",
"532 1128 CURVE SMOOTH",
"600 1128 OFFCURVE",
"664 1107 OFFCURVE",
"664 1064 CURVE SMOOTH",
"664 866 OFFCURVE",
"349 958 OFFCURVE",
"349 681 CURVE SMOOTH",
"349 378 OFFCURVE",
"853 499 OFFCURVE",
"853 344 CURVE SMOOTH",
"853 228 OFFCURVE",
"719 175 OFFCURVE",
"645 175 CURVE SMOOTH",
"557 175 OFFCURVE",
"497 184 OFFCURVE",
"497 212 CURVE SMOOTH",
"497 297 OFFCURVE",
"456 313 OFFCURVE",
"427 313 CURVE SMOOTH",
"384 313 OFFCURVE",
"356 248 OFFCURVE",
"356 184 CURVE SMOOTH",
"356 74 OFFCURVE",
"461 -20 OFFCURVE",
"619 -20 CURVE SMOOTH",
"796 -20 OFFCURVE",
"988 101 OFFCURVE",
"988 364 CURVE SMOOTH",
"988 691 OFFCURVE",
"495 651 OFFCURVE",
"495 696 CURVE SMOOTH",
"495 696 OFFCURVE",
"792 810 OFFCURVE",
"792 1068 CURVE SMOOTH",
"792 1204 OFFCURVE",
"678 1317 OFFCURVE",
"535 1317 CURVE SMOOTH",
"273 1317 OFFCURVE",
"142 1064 OFFCURVE",
"134 689 CURVE SMOOTH",
"134 635 OFFCURVE",
"134 521 OFFCURVE",
"139 448 CURVE",
"132 119 LINE SMOOTH",
"130 23 OFFCURVE",
"146 -25 OFFCURVE",
"225 -25 CURVE SMOOTH",
"279 -25 OFFCURVE",
"289 0 OFFCURVE",
"292 95 CURVE SMOOTH",
"292 103 OFFCURVE",
"287 132 OFFCURVE"
);
}
);
width = 1033;
}
);
unicode = 00DF;
userData = {
com.typemytype.robofont.guides = (
{
angle = 0;
isGlobal = 0;
magnetic = 5;
x = 0;
y = 1288;
}
);
com.typemytype.robofont.mark = (
1,
0.6,
0.6,
1
);
};
},
{
glyphname = t;
lastChange = "2021-08-22 03:02:32 +0000";
layers = (
{
anchors = (
{
name = btm;
position = "{400, -297}";
},
{
name = top;
position = "{364, 1672}";
}
);
layerId = "81641B54-5DFF-4E7E-9A9F-73CB636BC82D";
paths = (
{
closed = 1;
nodes = (
"497 -10 CURVE SMOOTH",
"567 -10 OFFCURVE",
"694 105 OFFCURVE",
"694 193 CURVE SMOOTH",
"694 237 OFFCURVE",
"686 256 OFFCURVE",
"651 256 CURVE SMOOTH",
"643 256 OFFCURVE",
"562 184 OFFCURVE",
"491 184 CURVE SMOOTH",
"392 184 OFFCURVE",
"377 329 OFFCURVE",
"377 483 CURVE SMOOTH",
"377 582 OFFCURVE",
"381 709 OFFCURVE",
"381 757 CURVE",
"689 753 LINE SMOOTH",
"719 753 OFFCURVE",
"757 783 OFFCURVE",
"757 844 CURVE SMOOTH",
"757 884 OFFCURVE",
"745 952 OFFCURVE",
"702 952 CURVE SMOOTH",
"595 952 OFFCURVE",
"489 946 OFFCURVE",
"382 946 CURVE",
"391 987 LINE SMOOTH",
"394 1020 OFFCURVE",
"406 1076 OFFCURVE",
"406 1204 CURVE SMOOTH",
"406 1257 OFFCURVE",
"371 1297 OFFCURVE",
"346 1297 CURVE SMOOTH",
"258 1297 OFFCURVE",
"250 1028 OFFCURVE",
"248 949 CURVE",
"205 952 OFFCURVE",
"167 955 OFFCURVE",
"130 955 CURVE SMOOTH",
"88 955 OFFCURVE",
"45 907 OFFCURVE",
"45 849 CURVE SMOOTH",
"45 788 OFFCURVE",
"105 753 OFFCURVE",
"130 753 CURVE SMOOTH",
"173 753 OFFCURVE",
"205 757 OFFCURVE",
"238 757 CURVE",
"268 489 OFFCURVE",
"181 -10 OFFCURVE"
);
}
);
width = 804;
}
);
unicode = 0074;
userData = {
com.typemytype.robofont.mark = (
1,
0.6,
0.6,
1
);
};
},
{
glyphname = tbar;
lastChange = "2021-08-22 03:02:32 +0000";
layers = (
{
components = (
{
name = t;
}
);
layerId = "81641B54-5DFF-4E7E-9A9F-73CB636BC82D";
paths = (
{
closed = 1;
nodes = (
"639 421 LINE SMOOTH",
"649 421 OFFCURVE",
"661 418 OFFCURVE",
"671 418 CURVE SMOOTH",
"694 418 OFFCURVE",
"712 429 OFFCURVE",
"712 497 CURVE SMOOTH",
"712 580 OFFCURVE",
"681 595 OFFCURVE",
"651 595 CURVE SMOOTH",
"540 595 OFFCURVE",
"292 571 OFFCURVE",
"203 571 CURVE SMOOTH",
"169 571 OFFCURVE",
"139 578 OFFCURVE",
"119 578 CURVE SMOOTH",
"91 578 OFFCURVE",
"50 525 OFFCURVE",
"50 476 CURVE SMOOTH",
"50 433 OFFCURVE",
"74 392 OFFCURVE",
"126 392 CURVE"
);
}
);
width = 804;
}
);
unicode = 0167;
userData = {
com.typemytype.robofont.mark = (
0.6,
0.986,
1,
1
);
};
},
{
glyphname = u;
lastChange = "2021-08-22 03:02:32 +0000";
layers = (
{
anchors = (
{
name = btm;
position = "{458, -297}";
},
{
name = top;
position = "{462, 1515}";
}
);
layerId = "81641B54-5DFF-4E7E-9A9F-73CB636BC82D";
paths = (
{
closed = 1;
nodes = (
"215 960 CURVE SMOOTH",
"116 960 OFFCURVE",
"88 674 OFFCURVE",
"88 495 CURVE SMOOTH",
"88 307 OFFCURVE",
"122 -29 OFFCURVE",
"421 -29 CURVE SMOOTH",
"523 -29 OFFCURVE",
"643 81 OFFCURVE",
"678 232 CURVE",
"676 200 OFFCURVE",
"676 173 OFFCURVE",
"676 149 CURVE SMOOTH",
"676 5 OFFCURVE",
"696 -10 OFFCURVE",
"751 -10 CURVE SMOOTH",
"796 -10 OFFCURVE",
"814 8 OFFCURVE",
"815 85 CURVE SMOOTH",
"831 881 LINE SMOOTH",
"831 934 OFFCURVE",
"798 960 OFFCURVE",
"771 960 CURVE SMOOTH",
"745 960 OFFCURVE",
"697 940 OFFCURVE",
"697 875 CURVE SMOOTH",
"694 596 LINE SMOOTH",
"691 535 OFFCURVE",
"688 446 OFFCURVE",
"681 352 CURVE",
"621 253 OFFCURVE",
"547 163 OFFCURVE",
"411 163 CURVE SMOOTH",
"247 163 OFFCURVE",
"222 408 OFFCURVE",
"222 518 CURVE SMOOTH",
"222 655 OFFCURVE",
"270 804 OFFCURVE",
"270 889 CURVE SMOOTH",
"270 932 OFFCURVE",
"256 960 OFFCURVE"
);
}
);
width = 938;
}
);
unicode = 0075;
userData = {
com.typemytype.robofont.mark = (
1,
0.6,
0.6,
1
);
};
},
{
glyphname = uhorn;
lastChange = "2021-08-22 03:02:32 +0000";
layers = (
{
anchors = (
{
name = btm;
position = "{433, -297}";
},
{
name = top;
position = "{347, 1515}";
}
);
layerId = "81641B54-5DFF-4E7E-9A9F-73CB636BC82D";
paths = (
{
closed = 1;
nodes = (
"884 1107 CURVE SMOOTH",
"920 1107 OFFCURVE",
"987 1072 OFFCURVE",
"987 1020 CURVE SMOOTH",
"987 879 OFFCURVE",
"726 952 OFFCURVE",
"726 823 CURVE SMOOTH",
"726 773 OFFCURVE",
"765 745 OFFCURVE",
"790 745 CURVE",
"1048 815 OFFCURVE",
"1129 877 OFFCURVE",
"1129 1062 CURVE SMOOTH",
"1129 1191 OFFCURVE",
"1028 1282 OFFCURVE",
"897 1282 CURVE SMOOTH",
"822 1282 OFFCURVE",
"696 1246 OFFCURVE",
"696 1166 CURVE SMOOTH",
"696 1126 OFFCURVE",
"706 1083 OFFCURVE",
"734 1083 CURVE SMOOTH",
"800 1083 OFFCURVE",
"798 1107 OFFCURVE"
);
},
{
closed = 1;
nodes = (
"215 960 CURVE SMOOTH",
"116 960 OFFCURVE",
"88 674 OFFCURVE",
"88 495 CURVE SMOOTH",
"88 307 OFFCURVE",
"122 -29 OFFCURVE",
"421 -29 CURVE SMOOTH",
"523 -29 OFFCURVE",
"643 81 OFFCURVE",
"678 232 CURVE",
"676 200 OFFCURVE",
"676 173 OFFCURVE",
"676 149 CURVE SMOOTH",
"676 5 OFFCURVE",
"696 -10 OFFCURVE",
"751 -10 CURVE SMOOTH",
"796 -10 OFFCURVE",
"814 8 OFFCURVE",
"815 85 CURVE SMOOTH",
"831 881 LINE SMOOTH",
"831 934 OFFCURVE",
"798 960 OFFCURVE",
"771 960 CURVE SMOOTH",
"745 960 OFFCURVE",
"697 940 OFFCURVE",
"697 875 CURVE SMOOTH",
"694 596 LINE SMOOTH",
"691 535 OFFCURVE",
"688 440 OFFCURVE",
"681 346 CURVE",
"621 247 OFFCURVE",
"547 163 OFFCURVE",
"411 163 CURVE SMOOTH",
"247 163 OFFCURVE",
"222 408 OFFCURVE",
"222 518 CURVE SMOOTH",
"222 655 OFFCURVE",
"270 804 OFFCURVE",
"270 889 CURVE SMOOTH",
"270 932 OFFCURVE",
"256 960 OFFCURVE"
);
}
);
width = 938;
}
);
unicode = 01B0;
userData = {
com.typemytype.robofont.mark = (
1,
0.6,
0.6,
1
);
};
},
{
glyphname = uogonek;
lastChange = "2021-08-22 03:02:32 +0000";
layers = (
{
components = (
{
name = u;
}
);
layerId = "81641B54-5DFF-4E7E-9A9F-73CB636BC82D";
paths = (
{
closed = 1;
nodes = (
"755 -293 CURVE SMOOTH",
"719 -293 OFFCURVE",
"674 -260 OFFCURVE",
"655 -208 CURVE",
"655 -8 OFFCURVE",
"815 -35 OFFCURVE",
"815 74 CURVE SMOOTH",
"815 129 OFFCURVE",
"775 153 OFFCURVE",
"760 153 CURVE",
"716 124 OFFCURVE",
"750 105 OFFCURVE",
"686 60 CURVE SMOOTH",
"602 4 OFFCURVE",
"512 -59 OFFCURVE",
"512 -248 CURVE SMOOTH",
"512 -377 OFFCURVE",
"615 -466 OFFCURVE",
"743 -466 CURVE SMOOTH",
"822 -466 OFFCURVE",
"924 -450 OFFCURVE",
"924 -309 CURVE SMOOTH",
"924 -270 OFFCURVE",
"909 -230 OFFCURVE",
"884 -230 CURVE SMOOTH",
"823 -230 OFFCURVE",
"818 -293 OFFCURVE"
);
}
);
width = 938;
}
);
unicode = 0173;
},
{
glyphname = v;
lastChange = "2021-08-22 03:02:32 +0000";
layers = (
{
anchors = (
{
name = btm;
position = "{461, -297}";
},
{
name = top;
position = "{426, 1515}";
}
);
layerId = "81641B54-5DFF-4E7E-9A9F-73CB636BC82D";
paths = (
{
closed = 1;
nodes = (
"101 952 CURVE SMOOTH",
"53 952 OFFCURVE",
"49 894 OFFCURVE",
"49 849 CURVE SMOOTH",
"49 800 OFFCURVE",
"66 753 OFFCURVE",
"81 719 CURVE",
"181 356 OFFCURVE",
"297 -29 OFFCURVE",
"382 -29 CURVE SMOOTH",
"476 -29 OFFCURVE",
"641 347 OFFCURVE",
"722 540 CURVE",
"849 786 OFFCURVE",
"874 829 OFFCURVE",
"874 874 CURVE SMOOTH",
"874 934 OFFCURVE",
"853 983 OFFCURVE",
"818 983 CURVE SMOOTH",
"786 983 OFFCURVE",
"743 905 OFFCURVE",
"666 751 CURVE",
"472 305 OFFCURVE",
"429 232 OFFCURVE",
"411 213 CURVE",
"301 461 OFFCURVE",
"258 645 OFFCURVE",
"195 846 CURVE SMOOTH",
"175 916 OFFCURVE",
"159 952 OFFCURVE"
);
}
);
width = 907;
}
);
unicode = 0076;
userData = {
com.typemytype.robofont.mark = (
1,
0.6,
0.6,
1
);
};
},
{
glyphname = w;
lastChange = "2021-08-22 03:02:32 +0000";
layers = (
{
anchors = (
{
name = btm;
position = "{706, -297}";
},
{
name = top;
position = "{681, 1515}";
}
);
layerId = "81641B54-5DFF-4E7E-9A9F-73CB636BC82D";
paths = (
{
closed = 1;
nodes = (
"1310 571 CURVE SMOOTH",
"1310 681 OFFCURVE",
"1276 783 OFFCURVE",
"1276 881 CURVE",
"1268 968 OFFCURVE",
"1226 990 OFFCURVE",
"1201 990 CURVE SMOOTH",
"1147 990 OFFCURVE",
"1123 940 OFFCURVE",
"1123 874 CURVE SMOOTH",
"1123 836 OFFCURVE",
"1144 798 OFFCURVE",
"1154 773 CURVE",
"1181 697 OFFCURVE",
"1183 574 OFFCURVE",
"1183 525 CURVE SMOOTH",
"1183 303 OFFCURVE",
"999 183 OFFCURVE",
"864 183 CURVE SMOOTH",
"755 183 OFFCURVE",
"753 364 OFFCURVE",
"753 540 CURVE SMOOTH",
"753 641 LINE SMOOTH",
"753 775 OFFCURVE",
"750 885 OFFCURVE",
"688 885 CURVE SMOOTH",
"625 885 OFFCURVE",
"598 802 OFFCURVE",
"598 760 CURVE SMOOTH",
"598 679 OFFCURVE",
"610 525 OFFCURVE",
"610 508 CURVE SMOOTH",
"607 334 OFFCURVE",
"491 150 OFFCURVE",
"381 139 CURVE",
"273 238 OFFCURVE",
"244 508 OFFCURVE",
"244 678 CURVE SMOOTH",
"244 732 OFFCURVE",
"250 796 OFFCURVE",
"250 863 CURVE SMOOTH",
"250 875 LINE SMOOTH",
"250 930 OFFCURVE",
"238 960 OFFCURVE",
"198 960 CURVE SMOOTH",
"165 960 OFFCURVE",
"103 891 OFFCURVE",
"103 647 CURVE SMOOTH",
"103 544 OFFCURVE",
"105 -69 OFFCURVE",
"377 -69 CURVE SMOOTH",
"478 -69 OFFCURVE",
"602 58 OFFCURVE",
"649 222 CURVE",
"686 67 OFFCURVE",
"765 -31 OFFCURVE",
"859 -31 CURVE SMOOTH",
"1087 -31 OFFCURVE",
"1310 243 OFFCURVE"
);
}
);
width = 1402;
}
);
unicode = 0077;
userData = {
com.typemytype.robofont.mark = (
1,
0.6,
0.6,
1
);
};
},
{
glyphname = x;
lastChange = "2021-08-22 03:02:32 +0000";
layers = (
{
anchors = (
{
name = btm;
position = "{423, -297}";
},
{
name = top;
position = "{387, 1515}";
}
);
layerId = "81641B54-5DFF-4E7E-9A9F-73CB636BC82D";
paths = (
{
closed = 1;
nodes = (
"334 729 LINE SMOOTH",
"282 841 OFFCURVE",
"218 968 OFFCURVE",
"183 968 CURVE SMOOTH",
"139 968 OFFCURVE",
"116 926 OFFCURVE",
"116 884 CURVE SMOOTH",
"116 846 OFFCURVE",
"126 786 OFFCURVE",
"150 757 CURVE",
"215 655 OFFCURVE",
"248 552 OFFCURVE",
"305 461 CURVE",
"237 359 OFFCURVE",
"175 282 OFFCURVE",
"122 203 CURVE SMOOTH",
"101 175 OFFCURVE",
"74 144 OFFCURVE",
"74 84 CURVE SMOOTH",
"74 0 OFFCURVE",
"116 -18 OFFCURVE",
"165 -18 CURVE SMOOTH",
"212 -18 OFFCURVE",
"238 74 OFFCURVE",
"243 120 CURVE",
"349 274 OFFCURVE",
"363 284 OFFCURVE",
"368 301 CURVE",
"423 210 OFFCURVE",
"570 -25 OFFCURVE",
"696 -25 CURVE SMOOTH",
"732 -25 OFFCURVE",
"773 4 OFFCURVE",
"773 101 CURVE SMOOTH",
"773 149 OFFCURVE",
"753 179 OFFCURVE",
"712 179 CURVE SMOOTH",
"621 179 OFFCURVE",
"499 392 OFFCURVE",
"468 466 CURVE",
"542 590 OFFCURVE",
"626 706 OFFCURVE",
"726 804 CURVE",
"757 843 OFFCURVE",
"771 864 OFFCURVE",
"771 889 CURVE SMOOTH",
"771 934 OFFCURVE",
"753 973 OFFCURVE",
"706 973 CURVE SMOOTH",
"631 973 OFFCURVE",
"511 777 OFFCURVE",
"399 590 CURVE"
);
}
);
width = 808;
}
);
unicode = 0078;
userData = {
com.typemytype.robofont.guides = (
{
angle = 0;
isGlobal = 0;
magnetic = 5;
x = 0;
y = 1515;
}
);
com.typemytype.robofont.mark = (
1,
0.6,
0.6,
1
);
};
},
{
glyphname = y;
lastChange = "2021-08-22 03:02:32 +0000";
layers = (
{
anchors = (
{
name = btm;
position = "{726, -297}";
},
{
name = top;
position = "{452, 1515}";
}
);
layerId = "81641B54-5DFF-4E7E-9A9F-73CB636BC82D";
paths = (
{
closed = 1;
nodes = (
"142 -392 CURVE SMOOTH",
"142 -437 OFFCURVE",
"210 -501 OFFCURVE",
"243 -501 CURVE SMOOTH",
"284 -501 OFFCURVE",
"311 -436 OFFCURVE",
"311 -383 CURVE SMOOTH",
"311 -203 OFFCURVE",
"557 225 OFFCURVE",
"660 437 CURVE SMOOTH",
"734 592 OFFCURVE",
"802 679 OFFCURVE",
"839 740 CURVE SMOOTH",
"899 836 OFFCURVE",
"913 856 OFFCURVE",
"913 891 CURVE SMOOTH",
"913 924 OFFCURVE",
"897 968 OFFCURVE",
"868 968 CURVE SMOOTH",
"820 968 OFFCURVE",
"769 932 OFFCURVE",
"736 868 CURVE SMOOTH",
"270 -36 LINE",
"213 -136 OFFCURVE",
"144 -320 OFFCURVE"
);
},
{
closed = 1;
nodes = (
"456 254 LINE",
"421 315 OFFCURVE",
"273 686 OFFCURVE",
"203 885 CURVE SMOOTH",
"187 928 OFFCURVE",
"175 968 OFFCURVE",
"142 968 CURVE SMOOTH",
"101 968 OFFCURVE",
"66 926 OFFCURVE",
"63 859 CURVE SMOOTH",
"63 839 OFFCURVE",
"71 800 OFFCURVE",
"85 767 CURVE SMOOTH",
"149 612 OFFCURVE",
"319 183 OFFCURVE",
"374 74 CURVE"
);
}
);
width = 881;
}
);
unicode = 0079;
userData = {
com.typemytype.robofont.mark = (
1,
0.6,
0.6,
1
);
};
},
{
glyphname = z;
lastChange = "2021-08-22 03:02:32 +0000";
layers = (
{
anchors = (
{
name = btm;
position = "{446, -297}";
},
{
name = top;
position = "{436, 1515}";
}
);
layerId = "81641B54-5DFF-4E7E-9A9F-73CB636BC82D";
paths = (
{
closed = 1;
nodes = (
"497 755 CURVE SMOOTH",
"515 755 OFFCURVE",
"525 755 OFFCURVE",
"528 753 CURVE",
"463 578 OFFCURVE",
"181 173 OFFCURVE",
"181 101 CURVE SMOOTH",
"181 -8 OFFCURVE",
"274 -8 OFFCURVE",
"347 -8 CURVE SMOOTH",
"443 -8 OFFCURVE",
"528 -2 OFFCURVE",
"612 -2 CURVE SMOOTH",
"645 -2 OFFCURVE",
"674 -12 OFFCURVE",
"705 -12 CURVE SMOOTH",
"760 -12 OFFCURVE",
"800 49 OFFCURVE",
"800 98 CURVE SMOOTH",
"800 144 OFFCURVE",
"779 243 OFFCURVE",
"734 243 CURVE SMOOTH",
"732 243 OFFCURVE",
"722 240 OFFCURVE",
"719 238 CURVE SMOOTH",
"651 198 OFFCURVE",
"535 175 OFFCURVE",
"446 175 CURVE SMOOTH",
"418 175 OFFCURVE",
"392 177 OFFCURVE",
"371 183 CURVE",
"562 518 OFFCURVE",
"652 645 OFFCURVE",
"689 822 CURVE",
"689 868 OFFCURVE",
"678 958 OFFCURVE",
"625 958 CURVE SMOOTH",
"567 958 OFFCURVE",
"507 940 OFFCURVE",
"448 940 CURVE SMOOTH",
"144 940 LINE SMOOTH",
"105 940 OFFCURVE",
"91 864 OFFCURVE",
"91 825 CURVE SMOOTH",
"91 729 OFFCURVE",
"139 736 OFFCURVE",
"189 736 CURVE SMOOTH",
"293 736 OFFCURVE",
"392 755 OFFCURVE"
);
}
);
width = 829;
}
);
unicode = 007A;
userData = {
com.typemytype.robofont.mark = (
1,
0.6,
0.6,
1
);
};
},
{
glyphname = f_f_i_dflt;
lastChange = "2021-08-22 03:02:32 +0000";
layers = (
{
layerId = "81641B54-5DFF-4E7E-9A9F-73CB636BC82D";
paths = (
{
closed = 1;
nodes = (
"1675 864 CURVE",
"1675 920 OFFCURVE",
"1670 967 OFFCURVE",
"1621 967 CURVE SMOOTH",
"1510 967 OFFCURVE",
"1518 426 OFFCURVE",
"1518 253 CURVE SMOOTH",
"1518 4 OFFCURVE",
"1536 -23 OFFCURVE",
"1615 -23 CURVE SMOOTH",
"1642 -23 OFFCURVE",
"1678 14 OFFCURVE",
"1678 85 CURVE SMOOTH",
"1678 139 OFFCURVE",
"1672 215 OFFCURVE",
"1662 277 CURVE",
"1660 344 LINE SMOOTH",
"1659 378 OFFCURVE",
"1652 409 OFFCURVE",
"1654 437 CURVE SMOOTH",
"1654 456 LINE SMOOTH",
"1654 580 OFFCURVE",
"1670 747 OFFCURVE"
);
},
{
closed = 1;
nodes = (
"765 1050 CURVE",
"800 1050 OFFCURVE",
"804 1119 OFFCURVE",
"804 1146 CURVE SMOOTH",
"804 1243 OFFCURVE",
"647 1302 OFFCURVE",
"596 1302 CURVE SMOOTH",
"400 1302 OFFCURVE",
"260 1102 OFFCURVE",
"253 834 CURVE SMOOTH",
"250 773 LINE SMOOTH",
"248 716 OFFCURVE",
"250 643 OFFCURVE",
"238 215 CURVE",
"238 18 OFFCURVE",
"254 -10 OFFCURVE",
"347 -10 CURVE SMOOTH",
"381 -10 OFFCURVE",
"400 12 OFFCURVE",
"403 74 CURVE",
"384 238 OFFCURVE",
"381 277 OFFCURVE",
"381 307 CURVE SMOOTH",
"381 384 LINE SMOOTH",
"381 557 OFFCURVE",
"357 691 OFFCURVE",
"367 810 CURVE SMOOTH",
"378 973 OFFCURVE",
"359 1112 OFFCURVE",
"596 1112 CURVE SMOOTH",
"684 1112 OFFCURVE",
"688 1054 OFFCURVE"
);
},
{
closed = 1;
nodes = (
"1241 907 CURVE",
"250 907 LINE",
"112 913 LINE SMOOTH",
"79 913 OFFCURVE",
"43 860 OFFCURVE",
"43 814 CURVE SMOOTH",
"43 767 OFFCURVE",
"74 719 OFFCURVE",
"105 716 CURVE",
"244 722 LINE SMOOTH",
"303 724 OFFCURVE",
"334 726 OFFCURVE",
"382 726 CURVE SMOOTH",
"394 726 OFFCURVE",
"408 726 OFFCURVE",
"423 726 CURVE SMOOTH",
"528 722 OFFCURVE",
"907 716 OFFCURVE",
"1176 716 CURVE SMOOTH",
"1209 716 OFFCURVE",
"1238 716 OFFCURVE",
"1268 716 CURVE SMOOTH",
"1297 716 OFFCURVE",
"1360 719 OFFCURVE",
"1360 820 CURVE SMOOTH",
"1360 897 OFFCURVE",
"1325 913 OFFCURVE",
"1297 913 CURVE SMOOTH",
"1278 913 OFFCURVE",
"1257 909 OFFCURVE"
);
},
{
closed = 1;
nodes = (
"945 834 CURVE",
"960 999 OFFCURVE",
"994 1152 OFFCURVE",
"1184 1152 CURVE SMOOTH",
"1246 1152 OFFCURVE",
"1291 1092 OFFCURVE",
"1351 1092 CURVE SMOOTH",
"1392 1092 OFFCURVE",
"1396 1157 OFFCURVE",
"1396 1186 CURVE SMOOTH",
"1396 1283 OFFCURVE",
"1233 1343 OFFCURVE",
"1184 1343 CURVE SMOOTH",
"866 1343 OFFCURVE",
"820 958 OFFCURVE",
"820 287 CURVE SMOOTH",
"820 218 OFFCURVE",
"820 146 OFFCURVE",
"829 69 CURVE SMOOTH",
"833 8 OFFCURVE",
"844 -10 OFFCURVE",
"930 -10 CURVE SMOOTH",
"960 -10 OFFCURVE",
"977 12 OFFCURVE",
"983 74 CURVE",
"983 153 OFFCURVE",
"965 232 OFFCURVE",
"960 307 CURVE",
"963 499 OFFCURVE",
"942 679 OFFCURVE"
);
}
);
width = 1785;
}
);
userData = {
com.typemytype.robofont.mark = (
0.967,
0.6,
1,
1
);
};
},
{
glyphname = f_i_trk;
lastChange = "2021-08-22 03:02:32 +0000";
layers = (
{
layerId = "81641B54-5DFF-4E7E-9A9F-73CB636BC82D";
paths = (
{
closed = 1;
nodes = (
"671 1139 CURVE SMOOTH",
"716 1139 OFFCURVE",
"739 1181 OFFCURVE",
"739 1221 CURVE SMOOTH",
"739 1299 OFFCURVE",
"679 1343 OFFCURVE",
"574 1343 CURVE SMOOTH",
"347 1343 OFFCURVE",
"277 1078 OFFCURVE",
"254 907 CURVE",
"181 907 OFFCURVE",
"144 913 OFFCURVE",
"105 913 CURVE SMOOTH",
"69 913 OFFCURVE",
"36 866 OFFCURVE",
"36 814 CURVE SMOOTH",
"36 760 OFFCURVE",
"66 716 OFFCURVE",
"105 716 CURVE SMOOTH",
"120 716 OFFCURVE",
"150 716 OFFCURVE",
"247 720 CURVE",
"244 629 OFFCURVE",
"229 472 OFFCURVE",
"229 319 CURVE SMOOTH",
"229 240 OFFCURVE",
"237 163 OFFCURVE",
"244 95 CURVE",
"244 10 OFFCURVE",
"268 -10 OFFCURVE",
"342 -10 CURVE SMOOTH",
"373 -10 OFFCURVE",
"399 12 OFFCURVE",
"399 74 CURVE SMOOTH",
"399 163 OFFCURVE",
"374 244 OFFCURVE",
"374 324 CURVE SMOOTH",
"374 463 OFFCURVE",
"387 607 OFFCURVE",
"387 729 CURVE",
"448 729 LINE SMOOTH",
"596 729 OFFCURVE",
"661 722 OFFCURVE",
"732 719 CURVE",
"720 578 OFFCURVE",
"710 450 OFFCURVE",
"710 319 CURVE SMOOTH",
"710 5 OFFCURVE",
"719 -23 OFFCURVE",
"812 -23 CURVE SMOOTH",
"844 -23 OFFCURVE",
"871 20 OFFCURVE",
"874 95 CURVE SMOOTH",
"874 119 OFFCURVE",
"871 149 OFFCURVE",
"844 439 CURVE",
"849 517 OFFCURVE",
"875 688 OFFCURVE",
"875 818 CURVE SMOOTH",
"875 891 OFFCURVE",
"846 920 OFFCURVE",
"815 920 CURVE SMOOTH",
"800 920 OFFCURVE",
"777 916 OFFCURVE",
"753 907 CURVE",
"399 907 LINE",
"409 1040 OFFCURVE",
"421 1152 OFFCURVE",
"571 1152 CURVE SMOOTH",
"607 1152 OFFCURVE",
"626 1139 OFFCURVE"
);
}
);
width = 1005;
}
);
userData = {
com.typemytype.robofont.mark = (
0.967,
0.6,
1,
1
);
};
},
{
glyphname = fi;
lastChange = "2021-08-22 03:02:32 +0000";
layers = (
{
layerId = "81641B54-5DFF-4E7E-9A9F-73CB636BC82D";
paths = (
{
closed = 1;
nodes = (
"808 1068 CURVE SMOOTH",
"834 1068 OFFCURVE",
"942 1149 OFFCURVE",
"942 1219 CURVE SMOOTH",
"942 1278 OFFCURVE",
"920 1325 OFFCURVE",
"866 1325 CURVE",
"849 1318 OFFCURVE",
"810 1270 OFFCURVE",
"788 1270 CURVE SMOOTH",
"745 1270 OFFCURVE",
"679 1343 OFFCURVE",
"600 1343 CURVE SMOOTH",
"403 1343 OFFCURVE",
"292 1162 OFFCURVE",
"254 907 CURVE",
"184 907 OFFCURVE",
"189 913 OFFCURVE",
"105 913 CURVE SMOOTH",
"69 913 OFFCURVE",
"36 866 OFFCURVE",
"36 814 CURVE SMOOTH",
"36 760 OFFCURVE",
"66 716 OFFCURVE",
"105 716 CURVE SMOOTH",
"120 716 OFFCURVE",
"150 716 OFFCURVE",
"247 720 CURVE",
"243 600 OFFCURVE",
"229 492 OFFCURVE",
"229 293 CURVE SMOOTH",
"229 228 OFFCURVE",
"244 167 OFFCURVE",
"244 95 CURVE SMOOTH",
"244 10 OFFCURVE",
"268 -10 OFFCURVE",
"342 -10 CURVE SMOOTH",
"374 -10 OFFCURVE",
"397 12 OFFCURVE",
"399 74 CURVE SMOOTH",
"399 81 OFFCURVE",
"399 95 OFFCURVE",
"397 101 CURVE",
"378 237 OFFCURVE",
"374 277 OFFCURVE",
"374 324 CURVE SMOOTH",
"374 463 OFFCURVE",
"387 607 OFFCURVE",
"387 729 CURVE",
"448 729 LINE SMOOTH",
"596 729 OFFCURVE",
"661 722 OFFCURVE",
"732 719 CURVE",
"720 578 OFFCURVE",
"710 450 OFFCURVE",
"710 319 CURVE SMOOTH",
"710 5 OFFCURVE",
"719 -23 OFFCURVE",
"812 -23 CURVE SMOOTH",
"844 -23 OFFCURVE",
"871 20 OFFCURVE",
"874 95 CURVE SMOOTH",
"874 119 OFFCURVE",
"871 149 OFFCURVE",
"844 439 CURVE",
"849 517 OFFCURVE",
"875 688 OFFCURVE",
"875 818 CURVE SMOOTH",
"875 891 OFFCURVE",
"846 920 OFFCURVE",
"815 920 CURVE SMOOTH",
"800 920 OFFCURVE",
"777 916 OFFCURVE",
"753 907 CURVE",
"399 907 LINE",
"409 1040 OFFCURVE",
"446 1152 OFFCURVE",
"598 1152 CURVE SMOOTH",
"706 1152 OFFCURVE",
"719 1068 OFFCURVE"
);
}
);
width = 1005;
}
);
unicode = FB01;
userData = {
com.typemytype.robofont.mark = (
0.967,
0.6,
1,
1
);
};
},
{
glyphname = fl;
lastChange = "2021-08-22 03:02:32 +0000";
layers = (
{
hints = (
{
horizontal = 1;
origin = "{0, 0}";
target = "{0, 0}";
type = Tag;
name = hr00;
}
);
layerId = "81641B54-5DFF-4E7E-9A9F-73CB636BC82D";
paths = (
{
closed = 1;
nodes = (
"812 1092 CURVE SMOOTH",
"850 1092 OFFCURVE",
"856 1157 OFFCURVE",
"856 1186 CURVE SMOOTH",
"856 1283 OFFCURVE",
"679 1343 OFFCURVE",
"623 1343 CURVE SMOOTH",
"260 1343 OFFCURVE",
"232 814 OFFCURVE",
"232 293 CURVE SMOOTH",
"232 244 LINE SMOOTH",
"232 23 OFFCURVE",
"260 -10 OFFCURVE",
"346 -10 CURVE SMOOTH",
"374 -10 OFFCURVE",
"399 14 OFFCURVE",
"400 76 CURVE",
"384 130 OFFCURVE",
"381 189 OFFCURVE",
"381 248 CURVE SMOOTH",
"381 621 OFFCURVE",
"392 696 OFFCURVE",
"392 810 CURVE SMOOTH",
"392 975 OFFCURVE",
"416 1152 OFFCURVE",
"623 1152 CURVE SMOOTH",
"694 1152 OFFCURVE",
"747 1092 OFFCURVE"
);
},
{
closed = 1;
nodes = (
"938 181 CURVE",
"877 181 OFFCURVE",
"874 329 OFFCURVE",
"875 427 CURVE SMOOTH",
"891 1247 LINE SMOOTH",
"891 1288 OFFCURVE",
"874 1341 OFFCURVE",
"833 1341 CURVE SMOOTH",
"757 1341 OFFCURVE",
"750 1123 OFFCURVE",
"750 960 CURVE",
"736 411 LINE",
"736 225 OFFCURVE",
"745 -5 OFFCURVE",
"934 -5 CURVE SMOOTH",
"987 -5 OFFCURVE",
"1070 50 OFFCURVE",
"1070 134 CURVE SMOOTH",
"1070 179 OFFCURVE",
"1058 228 OFFCURVE",
"1021 228 CURVE SMOOTH",
"985 228 OFFCURVE",
"975 179 OFFCURVE"
);
},
{
closed = 1;
nodes = (
"187 716 LINE",
"289 720 OFFCURVE",
"349 722 OFFCURVE",
"391 722 CURVE SMOOTH",
"462 722 OFFCURVE",
"394 720 OFFCURVE",
"533 716 CURVE SMOOTH",
"563 716 LINE SMOOTH",
"595 716 OFFCURVE",
"649 719 OFFCURVE",
"649 820 CURVE SMOOTH",
"649 897 OFFCURVE",
"619 913 OFFCURVE",
"592 913 CURVE SMOOTH",
"578 913 OFFCURVE",
"562 909 OFFCURVE",
"547 907 CURVE",
"105 913 LINE SMOOTH",
"74 913 OFFCURVE",
"39 863 OFFCURVE",
"39 814 CURVE SMOOTH",
"39 760 OFFCURVE",
"67 716 OFFCURVE",
"105 716 CURVE SMOOTH"
);
}
);
width = 1087;
}
);
unicode = FB02;
userData = {
com.adobe.type.autohint = "ICA8aGludFNldExpc3Q+CiAgICA8aGludHNldCBw";
com.typemytype.robofont.mark = (
0.967,
0.6,
1,
1
);
};
},
{
glyphname = ordfeminine;
lastChange = "2021-08-22 03:02:32 +0000";
layers = (
{
anchors = (
{
name = top;
position = "{311, 1649}";
}
);
layerId = "81641B54-5DFF-4E7E-9A9F-73CB636BC82D";
paths = (
{
closed = 1;
nodes = (
"431 1266 CURVE SMOOTH",
"517 1266 OFFCURVE",
"629 1264 OFFCURVE",
"629 1133 CURVE SMOOTH",
"626 905 LINE",
"753 697 LINE",
"755 1146 LINE SMOOTH",
"755 1347 OFFCURVE",
"633 1449 OFFCURVE",
"468 1449 CURVE SMOOTH",
"374 1449 OFFCURVE",
"183 1431 OFFCURVE",
"183 1317 CURVE SMOOTH",
"183 1238 OFFCURVE",
"203 1213 OFFCURVE",
"256 1213 CURVE SMOOTH",
"283 1213 OFFCURVE",
"303 1237 OFFCURVE",
"322 1247 CURVE SMOOTH",
"349 1264 OFFCURVE",
"382 1266 OFFCURVE"
);
},
{
closed = 1;
nodes = (
"771 621 CURVE SMOOTH",
"831 621 OFFCURVE",
"894 678 OFFCURVE",
"894 750 CURVE SMOOTH",
"894 814 OFFCURVE",
"875 841 OFFCURVE",
"834 841 CURVE SMOOTH",
"812 841 OFFCURVE",
"792 815 OFFCURVE",
"790 805 CURVE",
"760 805 OFFCURVE",
"753 820 OFFCURVE",
"753 860 CURVE SMOOTH",
"753 1020 OFFCURVE",
"641 1132 OFFCURVE",
"458 1132 CURVE SMOOTH",
"256 1132 OFFCURVE",
"184 1033 OFFCURVE",
"184 859 CURVE SMOOTH",
"184 712 OFFCURVE",
"274 607 OFFCURVE",
"421 607 CURVE SMOOTH",
"515 607 OFFCURVE",
"574 641 OFFCURVE",
"633 706 CURVE",
"666 661 OFFCURVE",
"716 621 OFFCURVE"
);
},
{
closed = 1;
nodes = (
"319 868 CURVE SMOOTH",
"322 930 OFFCURVE",
"378 952 OFFCURVE",
"468 952 CURVE SMOOTH",
"533 952 OFFCURVE",
"598 934 OFFCURVE",
"619 891 CURVE",
"605 863 OFFCURVE",
"555 777 OFFCURVE",
"436 777 CURVE SMOOTH",
"363 777 OFFCURVE",
"319 829 OFFCURVE"
);
},
{
closed = 1;
nodes = (
"517 421 CURVE SMOOTH",
"454 421 OFFCURVE",
"406 378 OFFCURVE",
"406 283 CURVE SMOOTH",
"406 195 OFFCURVE",
"473 181 OFFCURVE",
"528 181 CURVE SMOOTH",
"582 181 OFFCURVE",
"641 258 OFFCURVE",
"641 301 CURVE SMOOTH",
"641 381 OFFCURVE",
"552 421 OFFCURVE"
);
}
);
width = 1109;
}
);
unicode = 00AA;
},
{
glyphname = ordmasculine;
lastChange = "2021-08-22 03:02:32 +0000";
layers = (
{
anchors = (
{
name = top;
position = "{403, 1649}";
}
);
layerId = "81641B54-5DFF-4E7E-9A9F-73CB636BC82D";
paths = (
{
closed = 1;
nodes = (
"788 1020 CURVE SMOOTH",
"788 1268 OFFCURVE",
"679 1449 OFFCURVE",
"492 1449 CURVE SMOOTH",
"329 1449 OFFCURVE",
"153 1310 OFFCURVE",
"153 1020 CURVE SMOOTH",
"153 843 OFFCURVE",
"303 602 OFFCURVE",
"473 602 CURVE SMOOTH",
"639 602 OFFCURVE",
"788 790 OFFCURVE"
);
},
{
closed = 1;
nodes = (
"463 783 CURVE SMOOTH",
"371 783 OFFCURVE",
"283 930 OFFCURVE",
"283 1035 CURVE SMOOTH",
"283 1164 OFFCURVE",
"403 1266 OFFCURVE",
"508 1266 CURVE SMOOTH",
"596 1266 OFFCURVE",
"661 1152 OFFCURVE",
"661 1028 CURVE SMOOTH",
"661 895 OFFCURVE",
"567 783 OFFCURVE"
);
},
{
closed = 1;
nodes = (
"492 439 CURVE SMOOTH",
"426 439 OFFCURVE",
"382 399 OFFCURVE",
"382 305 CURVE SMOOTH",
"382 215 OFFCURVE",
"448 200 OFFCURVE",
"502 200 CURVE SMOOTH",
"555 200 OFFCURVE",
"615 279 OFFCURVE",
"615 319 CURVE SMOOTH",
"615 400 OFFCURVE",
"523 439 OFFCURVE"
);
}
);
width = 965;
}
);
unicode = 00BA;
},
{
glyphname = Delta;
lastChange = "2021-08-22 03:02:32 +0000";
layers = (
{
layerId = "81641B54-5DFF-4E7E-9A9F-73CB636BC82D";
paths = (
{
closed = 1;
nodes = (
"967 -5 LINE",
"998 -2 OFFCURVE",
"1044 4 OFFCURVE",
"1044 95 CURVE SMOOTH",
"1044 163 OFFCURVE",
"1028 189 OFFCURVE",
"1003 195 CURVE",
"932 401 OFFCURVE",
"800 786 OFFCURVE",
"716 1058 CURVE SMOOTH",
"698 1116 OFFCURVE",
"689 1159 OFFCURVE",
"639 1159 CURVE SMOOTH",
"450 1159 OFFCURVE",
"463 960 OFFCURVE",
"189 462 CURVE",
"105 329 LINE SMOOTH",
"71 274 OFFCURVE",
"43 228 OFFCURVE",
"43 205 CURVE SMOOTH",
"43 146 OFFCURVE",
"88 -5 OFFCURVE",
"150 -5 CURVE SMOOTH"
);
},
{
closed = 1;
nodes = (
"197 187 CURVE",
"401 607 OFFCURVE",
"526 790 OFFCURVE",
"588 864 CURVE",
"595 864 OFFCURVE",
"595 863 OFFCURVE",
"598 863 CURVE",
"694 616 OFFCURVE",
"757 399 OFFCURVE",
"836 198 CURVE",
"649 195 OFFCURVE",
"347 187 OFFCURVE"
);
}
);
width = 1087;
}
);
unicode = 0394;
},
{
glyphname = Omega;
lastChange = "2021-08-22 03:02:32 +0000";
layers = (
{
layerId = "81641B54-5DFF-4E7E-9A9F-73CB636BC82D";
paths = (
{
closed = 1;
nodes = (
"437 -20 CURVE",
"471 -20 OFFCURVE",
"517 0 OFFCURVE",
"517 85 CURVE SMOOTH",
"517 139 OFFCURVE",
"507 177 OFFCURVE",
"481 189 CURVE",
"399 256 OFFCURVE",
"212 489 OFFCURVE",
"212 709 CURVE SMOOTH",
"212 985 OFFCURVE",
"403 1030 OFFCURVE",
"615 1030 CURVE SMOOTH",
"808 1030 OFFCURVE",
"968 955 OFFCURVE",
"968 696 CURVE SMOOTH",
"968 515 OFFCURVE",
"800 279 OFFCURVE",
"679 179 CURVE",
"661 160 OFFCURVE",
"657 122 OFFCURVE",
"657 79 CURVE SMOOTH",
"657 0 OFFCURVE",
"694 -20 OFFCURVE",
"734 -20 CURVE",
"895 -12 LINE",
"960 -15 OFFCURVE",
"990 -18 OFFCURVE",
"1058 -20 CURVE SMOOTH",
"1078 -20 OFFCURVE",
"1146 39 OFFCURVE",
"1146 103 CURVE SMOOTH",
"1146 169 OFFCURVE",
"1121 208 OFFCURVE",
"1080 208 CURVE SMOOTH",
"1030 208 OFFCURVE",
"942 205 OFFCURVE",
"860 200 CURVE",
"970 334 OFFCURVE",
"1102 454 OFFCURVE",
"1102 686 CURVE SMOOTH",
"1102 1080 OFFCURVE",
"916 1252 OFFCURVE",
"612 1252 CURVE SMOOTH",
"342 1252 OFFCURVE",
"76 1147 OFFCURVE",
"76 676 CURVE SMOOTH",
"76 514 OFFCURVE",
"228 309 OFFCURVE",
"312 200 CURVE",
"260 200 OFFCURVE",
"179 208 OFFCURVE",
"129 208 CURVE SMOOTH",
"88 208 OFFCURVE",
"60 167 OFFCURVE",
"60 99 CURVE SMOOTH",
"60 35 OFFCURVE",
"105 -2 OFFCURVE",
"126 -5 CURVE SMOOTH",
"189 -15 OFFCURVE",
"213 -12 OFFCURVE",
"274 -12 CURVE SMOOTH",
"334 -12 OFFCURVE",
"384 -20 OFFCURVE"
);
}
);
width = 1171;
}
);
unicode = 03A9;
},
{
glyphname = mu;
lastChange = "2021-08-22 03:02:32 +0000";
layers = (
{
layerId = "81641B54-5DFF-4E7E-9A9F-73CB636BC82D";
paths = (
{
closed = 1;
nodes = (
"240 967 CURVE SMOOTH",
"134 967 OFFCURVE",
"119 689 OFFCURVE",
"119 535 CURVE SMOOTH",
"119 495 OFFCURVE",
"119 378 OFFCURVE",
"122 297 CURVE",
"116 -284 LINE SMOOTH",
"116 -324 OFFCURVE",
"134 -381 OFFCURVE",
"177 -381 CURVE SMOOTH",
"229 -381 OFFCURVE",
"247 -303 OFFCURVE",
"247 -213 CURVE SMOOTH",
"247 -158 OFFCURVE",
"210 53 OFFCURVE",
"210 99 CURVE",
"266 25 OFFCURVE",
"363 -5 OFFCURVE",
"448 -5 CURVE SMOOTH",
"540 -5 OFFCURVE",
"657 79 OFFCURVE",
"705 175 CURVE",
"706 81 OFFCURVE",
"716 25 OFFCURVE",
"781 25 CURVE SMOOTH",
"825 25 OFFCURVE",
"841 40 OFFCURVE",
"843 120 CURVE SMOOTH",
"859 909 LINE SMOOTH",
"859 965 OFFCURVE",
"820 988 OFFCURVE",
"802 988 CURVE SMOOTH",
"773 988 OFFCURVE",
"729 970 OFFCURVE",
"729 904 CURVE SMOOTH",
"724 641 LINE SMOOTH",
"722 585 OFFCURVE",
"722 507 OFFCURVE",
"705 406 CURVE",
"660 329 OFFCURVE",
"571 187 OFFCURVE",
"439 187 CURVE SMOOTH",
"268 187 OFFCURVE",
"253 458 OFFCURVE",
"253 562 CURVE SMOOTH",
"253 655 OFFCURVE",
"287 796 OFFCURVE",
"287 881 CURVE SMOOTH",
"287 932 OFFCURVE",
"277 967 OFFCURVE"
);
}
);
width = 973;
}
);
unicode = 03BC;
},
{
glyphname = pi;
lastChange = "2021-08-22 03:02:32 +0000";
layers = (
{
layerId = "81641B54-5DFF-4E7E-9A9F-73CB636BC82D";
paths = (
{
closed = 1;
nodes = (
"319 163 CURVE",
"364 431 LINE SMOOTH",
"377 525 OFFCURVE",
"392 647 OFFCURVE",
"394 739 CURVE",
"555 739 LINE",
"544 590 OFFCURVE",
"532 471 OFFCURVE",
"532 309 CURVE",
"532 130 OFFCURVE",
"565 -25 OFFCURVE",
"719 -25 CURVE SMOOTH",
"800 -25 OFFCURVE",
"924 50 OFFCURVE",
"924 142 CURVE SMOOTH",
"924 193 OFFCURVE",
"920 222 OFFCURVE",
"884 222 CURVE SMOOTH",
"841 222 OFFCURVE",
"820 189 OFFCURVE",
"769 189 CURVE SMOOTH",
"691 189 OFFCURVE",
"676 273 OFFCURVE",
"676 374 CURVE SMOOTH",
"671 473 OFFCURVE",
"696 600 OFFCURVE",
"696 739 CURVE",
"849 739 LINE SMOOTH",
"885 739 OFFCURVE",
"924 739 OFFCURVE",
"924 841 CURVE SMOOTH",
"924 916 OFFCURVE",
"897 946 OFFCURVE",
"860 946 CURVE SMOOTH",
"802 946 OFFCURVE",
"684 949 OFFCURVE",
"562 952 CURVE SMOOTH",
"411 952 OFFCURVE",
"292 958 OFFCURVE",
"144 958 CURVE",
"112 958 OFFCURVE",
"84 884 OFFCURVE",
"84 839 CURVE SMOOTH",
"84 796 OFFCURVE",
"103 739 OFFCURVE",
"153 739 CURVE SMOOTH",
"247 739 LINE",
"247 486 OFFCURVE",
"218 416 OFFCURVE",
"173 248 CURVE SMOOTH",
"155 187 OFFCURVE",
"134 119 OFFCURVE",
"134 74 CURVE SMOOTH",
"134 33 OFFCURVE",
"155 -26 OFFCURVE",
"203 -26 CURVE SMOOTH",
"258 -26 OFFCURVE",
"287 2 OFFCURVE"
);
}
);
width = 1009;
}
);
unicode = 03C0;
},
{
glyphname = "a-deva";
lastChange = "2021-08-22 03:02:32 +0000";
layers = (
{
anchors = (
{
name = bin;
position = "{657, 1257}";
},
{
name = bottom;
position = "{1317, -59}";
},
{
name = top;
position = "{1474, 1266}";
}
);
guideLines = (
{
position = "{974, 1262}";
}
);
layerId = "81641B54-5DFF-4E7E-9A9F-73CB636BC82D";
paths = (
{
closed = 1;
nodes = (
"1575 1264 LINE",
"1522 1340 OFFCURVE",
"1489 1414 OFFCURVE",
"1454 1414 CURVE SMOOTH",
"1404 1414 OFFCURVE",
"1370 1343 OFFCURVE",
"1370 1264 CURVE",
"1280 1264 LINE SMOOTH",
"1241 1264 OFFCURVE",
"1144 1286 OFFCURVE",
"1099 1286 CURVE SMOOTH",
"1066 1286 OFFCURVE",
"1054 1266 OFFCURVE",
"1054 1233 CURVE SMOOTH",
"1054 1147 OFFCURVE",
"1121 1078 OFFCURVE",
"1176 1078 CURVE SMOOTH",
"1219 1078 OFFCURVE",
"1288 1123 OFFCURVE",
"1335 1123 CURVE SMOOTH",
"1375 1123 LINE",
"1375 1002 OFFCURVE",
"1398 588 OFFCURVE",
"1398 473 CURVE",
"1392 473 LINE",
"1299 567 LINE",
"1183 567 OFFCURVE",
"1058 540 OFFCURVE",
"913 473 CURVE",
"907 473 LINE",
"814 571 LINE",
"916 671 OFFCURVE",
"988 775 OFFCURVE",
"988 881 CURVE SMOOTH",
"988 1097 OFFCURVE",
"859 1286 OFFCURVE",
"681 1286 CURVE SMOOTH",
"528 1286 OFFCURVE",
"299 1202 OFFCURVE",
"299 1123 CURVE SMOOTH",
"299 1054 OFFCURVE",
"359 916 OFFCURVE",
"409 916 CURVE SMOOTH",
"497 916 OFFCURVE",
"392 998 OFFCURVE",
"563 1087 CURVE SMOOTH",
"631 1121 OFFCURVE",
"674 1139 OFFCURVE",
"740 1139 CURVE SMOOTH",
"825 1139 OFFCURVE",
"895 1076 OFFCURVE",
"895 994 CURVE SMOOTH",
"895 905 OFFCURVE",
"822 781 OFFCURVE",
"671 678 CURVE",
"666 678 LINE",
"643 689 OFFCURVE",
"598 694 OFFCURVE",
"535 694 CURVE SMOOTH",
"473 694 OFFCURVE",
"413 655 OFFCURVE",
"413 610 CURVE SMOOTH",
"413 544 OFFCURVE",
"505 433 OFFCURVE",
"553 433 CURVE SMOOTH",
"619 433 OFFCURVE",
"697 462 OFFCURVE",
"739 511 CURVE",
"743 511 LINE",
"805 461 OFFCURVE",
"849 359 OFFCURVE",
"849 268 CURVE SMOOTH",
"849 89 OFFCURVE",
"745 23 OFFCURVE",
"623 23 CURVE SMOOTH",
"374 23 OFFCURVE",
"228 183 OFFCURVE",
"228 363 CURVE SMOOTH",
"228 391 OFFCURVE",
"263 429 OFFCURVE",
"263 463 CURVE SMOOTH",
"263 547 OFFCURVE",
"192 610 OFFCURVE",
"153 610 CURVE SMOOTH",
"124 610 OFFCURVE",
"114 595 OFFCURVE",
"114 567 CURVE SMOOTH",
"114 179 OFFCURVE",
"349 -149 OFFCURVE",
"668 -149 CURVE SMOOTH",
"856 -149 OFFCURVE",
"1015 -18 OFFCURVE",
"1015 155 CURVE SMOOTH",
"1015 195 OFFCURVE",
"1008 240 OFFCURVE",
"988 299 CURVE",
"990 299 LINE",
"1064 354 OFFCURVE",
"1206 400 OFFCURVE",
"1394 418 CURVE SMOOTH",
"1398 418 LINE",
"1398 223 OFFCURVE",
"1345 63 OFFCURVE",
"1280 63 CURVE SMOOTH",
"1254 63 OFFCURVE",
"1231 50 OFFCURVE",
"1231 35 CURVE SMOOTH",
"1231 -26 OFFCURVE",
"1350 -149 OFFCURVE",
"1404 -149 CURVE SMOOTH",
"1504 -149 OFFCURVE",
"1557 60 OFFCURVE",
"1557 299 CURVE SMOOTH",
"1557 552 OFFCURVE",
"1530 1064 OFFCURVE",
"1530 1060 CURVE SMOOTH",
"1530 1092 OFFCURVE",
"1534 1114 OFFCURVE",
"1546 1123 CURVE",
"1793 1123 LINE",
"1793 1264 LINE"
);
}
);
width = 1773;
},
{
anchors = (
{
name = bin;
position = "{1109, 1167}";
},
{
name = bottom;
position = "{1107, 28}";
},
{
name = top;
position = "{1107, 1168}";
}
);
associatedMasterId = "81641B54-5DFF-4E7E-9A9F-73CB636BC82D";
layerId = "BCB442AC-78C1-4CD5-BEFB-6CF11CFB9584";
name = "Regular Feb 18 15, 23:22";
paths = (
{
closed = 1;
nodes = (
"313 732 LINE",
"512 672 OFFCURVE",
"588 603 OFFCURVE",
"588 472 CURVE SMOOTH",
"588 346 OFFCURVE",
"502 283 OFFCURVE",
"378 283 CURVE SMOOTH",
"283 283 OFFCURVE",
"181 316 OFFCURVE",
"69 413 CURVE",
"-9 314 LINE",
"120 193 OFFCURVE",
"252 142 OFFCURVE",
"392 142 CURVE SMOOTH",
"586 142 OFFCURVE",
"746 262 OFFCURVE",
"746 460 CURVE SMOOTH",
"746 635 OFFCURVE",
"622 747 OFFCURVE",
"400 768 CURVE"
);
},
{
closed = 1;
nodes = (
"282 1282 OFFCURVE",
"196 1259 OFFCURVE",
"104 1219 CURVE",
"149 1097 LINE",
"240 1133 OFFCURVE",
"312 1148 OFFCURVE",
"374 1148 CURVE SMOOTH",
"473 1148 OFFCURVE",
"548 1113 OFFCURVE",
"548 999 CURVE SMOOTH",
"548 890 OFFCURVE",
"480 824 OFFCURVE",
"316 795 CURVE SMOOTH",
"292 791 OFFCURVE",
"272 787 OFFCURVE",
"236 784 CURVE",
"246 657 LINE",
"323 657 OFFCURVE",
"427 671 OFFCURVE",
"517 724 CURVE SMOOTH",
"634 788 OFFCURVE",
"693 877 OFFCURVE",
"693 1012 CURVE SMOOTH",
"693 1184 OFFCURVE",
"570 1282 OFFCURVE",
"380 1282 CURVE SMOOTH"
);
},
{
closed = 1;
nodes = (
"938 687 OFFCURVE",
"776 659 OFFCURVE",
"629 664 CURVE",
"686 547 LINE",
"793 537 OFFCURVE",
"977 565 OFFCURVE",
"1090 643 CURVE",
"1085 796 LINE"
);
},
{
closed = 1;
nodes = (
"1028 1203 LINE",
"1028 1 LINE",
"1185 1 LINE",
"1185 1203 LINE"
);
},
{
closed = 1;
nodes = (
"841 1262 LINE",
"841 1129 LINE",
"1400 1129 LINE",
"1400 1262 LINE"
);
}
);
visible = 1;
width = 1386;
}
);
unicode = 0905;
},
{
glyphname = "i-deva";
lastChange = "2021-08-22 03:02:32 +0000";
layers = (
{
anchors = (
{
name = bin;
position = "{268, 1257}";
},
{
name = bottom;
position = "{445, -173}";
},
{
name = top;
position = "{886, 1257}";
}
);
layerId = "81641B54-5DFF-4E7E-9A9F-73CB636BC82D";
paths = (
{
closed = 1;
nodes = (
"-14 1123 LINE",
"792 1123 LINE",
"792 1028 LINE SMOOTH",
"792 977 OFFCURVE",
"769 932 OFFCURVE",
"747 932 CURVE SMOOTH",
"688 932 OFFCURVE",
"499 987 OFFCURVE",
"443 987 CURVE SMOOTH",
"289 987 OFFCURVE",
"177 877 OFFCURVE",
"177 767 CURVE SMOOTH",
"177 574 OFFCURVE",
"367 364 OFFCURVE",
"542 364 CURVE SMOOTH",
"610 364 OFFCURVE",
"846 418 OFFCURVE",
"930 418 CURVE SMOOTH",
"983 418 OFFCURVE",
"1031 373 OFFCURVE",
"1031 322 CURVE SMOOTH",
"1031 203 OFFCURVE",
"831 103 OFFCURVE",
"668 103 CURVE SMOOTH",
"533 103 LINE",
"427 150 OFFCURVE",
"334 200 OFFCURVE",
"268 200 CURVE SMOOTH",
"187 200 OFFCURVE",
"153 150 OFFCURVE",
"153 76 CURVE SMOOTH",
"153 -63 OFFCURVE",
"270 -105 OFFCURVE",
"443 -105 CURVE SMOOTH",
"655 -105 LINE",
"765 -222 LINE",
"884 -339 OFFCURVE",
"960 -397 OFFCURVE",
"990 -397 CURVE SMOOTH",
"1044 -397 OFFCURVE",
"1074 -356 OFFCURVE",
"1074 -307 CURVE SMOOTH",
"1074 -266 OFFCURVE",
"963 -260 OFFCURVE",
"765 -68 CURVE",
"767 -68 LINE",
"965 -43 OFFCURVE",
"1144 95 OFFCURVE",
"1144 244 CURVE SMOOTH",
"1144 409 OFFCURVE",
"983 585 OFFCURVE",
"850 585 CURVE SMOOTH",
"771 585 OFFCURVE",
"508 532 OFFCURVE",
"431 532 CURVE SMOOTH",
"352 532 OFFCURVE",
"309 578 OFFCURVE",
"309 623 CURVE SMOOTH",
"309 724 OFFCURVE",
"363 820 OFFCURVE",
"557 820 CURVE SMOOTH",
"625 820 OFFCURVE",
"843 777 OFFCURVE",
"913 777 CURVE SMOOTH",
"952 777 OFFCURVE",
"973 796 OFFCURVE",
"973 818 CURVE SMOOTH",
"973 859 OFFCURVE",
"965 975 OFFCURVE",
"965 1013 CURVE SMOOTH",
"965 1050 OFFCURVE",
"965 1092 OFFCURVE",
"977 1123 CURVE",
"1291 1123 LINE",
"1291 1264 LINE",
"1009 1264 LINE",
"955 1347 OFFCURVE",
"894 1400 OFFCURVE",
"841 1400 CURVE SMOOTH",
"810 1400 OFFCURVE",
"792 1372 OFFCURVE",
"792 1330 CURVE SMOOTH",
"792 1264 LINE",
"-14 1264 LINE"
);
}
);
width = 1271;
}
);
unicode = 0907;
},
{
glyphname = "u-deva";
lastChange = "2021-08-22 03:02:32 +0000";
layers = (
{
anchors = (
{
name = bin;
position = "{183, 1257}";
},
{
name = bottom;
position = "{787, -65}";
},
{
name = top;
position = "{872, 1257}";
}
);
layerId = "81641B54-5DFF-4E7E-9A9F-73CB636BC82D";
paths = (
{
closed = 1;
nodes = (
"-23 1123 LINE",
"747 1123 LINE",
"757 1021 OFFCURVE",
"760 940 OFFCURVE",
"760 881 CURVE SMOOTH",
"760 818 OFFCURVE",
"757 760 OFFCURVE",
"747 710 CURVE",
"629 710 LINE SMOOTH",
"553 710 OFFCURVE",
"502 661 OFFCURVE",
"502 610 CURVE SMOOTH",
"502 550 OFFCURVE",
"585 406 OFFCURVE",
"641 406 CURVE SMOOTH",
"689 406 OFFCURVE",
"760 443 OFFCURVE",
"846 532 CURVE",
"850 532 LINE",
"904 473 OFFCURVE",
"940 387 OFFCURVE",
"940 311 CURVE SMOOTH",
"940 175 OFFCURVE",
"810 63 OFFCURVE",
"655 63 CURVE SMOOTH",
"478 63 OFFCURVE",
"248 263 OFFCURVE",
"248 431 CURVE SMOOTH",
"248 454 OFFCURVE",
"282 542 OFFCURVE",
"282 567 CURVE SMOOTH",
"282 616 OFFCURVE",
"210 732 OFFCURVE",
"167 732 CURVE SMOOTH",
"130 732 OFFCURVE",
"119 709 OFFCURVE",
"119 661 CURVE SMOOTH",
"119 228 OFFCURVE",
"426 -120 OFFCURVE",
"796 -120 CURVE SMOOTH",
"958 -120 OFFCURVE",
"1080 33 OFFCURVE",
"1080 208 CURVE SMOOTH",
"1080 364 OFFCURVE",
"999 511 OFFCURVE",
"891 585 CURVE",
"922 616 OFFCURVE",
"932 783 OFFCURVE",
"932 994 CURVE SMOOTH",
"932 1066 OFFCURVE",
"949 1123 OFFCURVE",
"973 1123 CURVE SMOOTH",
"1257 1123 LINE",
"1257 1264 LINE",
"994 1264 LINE",
"913 1360 OFFCURVE",
"844 1400 OFFCURVE",
"812 1400 CURVE SMOOTH",
"775 1400 OFFCURVE",
"747 1341 OFFCURVE",
"747 1264 CURVE",
"-23 1264 LINE"
);
}
);
width = 877;
}
);
unicode = 0909;
},
{
glyphname = "uu-deva";
lastChange = "2021-08-22 03:02:32 +0000";
layers = (
{
anchors = (
{
name = bin;
position = "{1451, 1257}";
},
{
name = bottom;
position = "{760, -58}";
},
{
name = top;
position = "{899, 1257}";
}
);
background = {
paths = (
{
closed = 0;
nodes = (
"1159 442 LINE"
);
},
{
closed = 0;
nodes = (
"1159 442 LINE"
);
}
);
};
components = (
{
name = "u-deva";
}
);
layerId = "81641B54-5DFF-4E7E-9A9F-73CB636BC82D";
paths = (
{
closed = 1;
nodes = (
"1254 1264 LINE",
"1254 1123 LINE",
"1747 1123 LINE",
"1742 1264 LINE"
);
},
{
closed = 1;
nodes = (
"1054 353 OFFCURVE",
"1059 364 OFFCURVE",
"1065 374 CURVE SMOOTH",
"1149 532 OFFCURVE",
"1285 652 OFFCURVE",
"1388 652 CURVE SMOOTH",
"1467 652 OFFCURVE",
"1524 567 OFFCURVE",
"1524 473 CURVE SMOOTH",
"1524 274 OFFCURVE",
"1413 98 OFFCURVE",
"1254 49 CURVE",
"1281 -35 OFFCURVE",
"1329 -95 OFFCURVE",
"1378 -95 CURVE SMOOTH",
"1526 -95 OFFCURVE",
"1642 116 OFFCURVE",
"1642 347 CURVE SMOOTH",
"1642 547 OFFCURVE",
"1476 805 OFFCURVE",
"1327 805 CURVE SMOOTH",
"1176 805 OFFCURVE",
"1040 684 OFFCURVE",
"950 497 CURVE",
"1049 343 LINE"
);
}
);
width = 1727;
}
);
unicode = 090A;
},
{
glyphname = "rVocalic-deva";
lastChange = "2021-08-22 03:02:32 +0000";
layers = (
{
anchors = (
{
name = bin;
position = "{1811, 1257}";
},
{
name = bottom;
position = "{1185, -68}";
},
{
name = top;
position = "{1240, 1262}";
}
);
layerId = "81641B54-5DFF-4E7E-9A9F-73CB636BC82D";
paths = (
{
closed = 1;
nodes = (
"633 49 CURVE SMOOTH",
"590 49 OFFCURVE",
"544 76 OFFCURVE",
"544 116 CURVE SMOOTH",
"544 175 OFFCURVE",
"664 263 OFFCURVE",
"765 299 CURVE",
"765 187 OFFCURVE",
"691 49 OFFCURVE"
);
},
{
closed = 1;
nodes = (
"1340 1264 LINE",
"1295 1332 OFFCURVE",
"1236 1390 OFFCURVE",
"1211 1390 CURVE SMOOTH",
"1173 1390 OFFCURVE",
"1152 1357 OFFCURVE",
"1152 1264 CURVE",
"-63 1264 LINE",
"-63 1123 LINE",
"1152 1123 LINE",
"1152 932 LINE SMOOTH",
"1152 753 OFFCURVE",
"1157 605 OFFCURVE",
"1176 497 CURVE",
"1171 497 LINE",
"1132 540 OFFCURVE",
"1070 557 OFFCURVE",
"1009 557 CURVE SMOOTH",
"960 557 OFFCURVE",
"922 552 OFFCURVE",
"871 532 CURVE",
"834 724 OFFCURVE",
"686 874 OFFCURVE",
"511 874 CURVE SMOOTH",
"292 874 OFFCURVE",
"91 722 OFFCURVE",
"91 557 CURVE SMOOTH",
"91 491 OFFCURVE",
"198 374 OFFCURVE",
"258 374 CURVE SMOOTH",
"282 374 OFFCURVE",
"292 391 OFFCURVE",
"292 418 CURVE SMOOTH",
"292 433 OFFCURVE",
"244 461 OFFCURVE",
"244 489 CURVE SMOOTH",
"244 592 OFFCURVE",
"439 722 OFFCURVE",
"580 722 CURVE SMOOTH",
"679 722 OFFCURVE",
"750 610 OFFCURVE",
"750 489 CURVE",
"560 381 OFFCURVE",
"443 237 OFFCURVE",
"443 142 CURVE SMOOTH",
"443 66 OFFCURVE",
"540 -81 OFFCURVE",
"615 -81 CURVE SMOOTH",
"729 -81 OFFCURVE",
"853 105 OFFCURVE",
"897 347 CURVE",
"899 347 LINE",
"928 368 OFFCURVE",
"967 374 OFFCURVE",
"1040 374 CURVE SMOOTH",
"1087 374 OFFCURVE",
"1138 368 OFFCURVE",
"1174 347 CURVE",
"1176 347 LINE",
"1176 210 OFFCURVE",
"1158 61 OFFCURVE",
"1100 61 CURVE SMOOTH",
"1096 61 OFFCURVE",
"1060 71 OFFCURVE",
"1058 71 CURVE SMOOTH",
"1038 71 OFFCURVE",
"1023 59 OFFCURVE",
"1023 33 CURVE SMOOTH",
"1023 -38 OFFCURVE",
"1138 -120 OFFCURVE",
"1192 -120 CURVE SMOOTH",
"1283 -120 OFFCURVE",
"1330 39 OFFCURVE",
"1330 222 CURVE SMOOTH",
"1330 364 LINE",
"1335 364 LINE SMOOTH",
"1402 364 OFFCURVE",
"1485 374 OFFCURVE",
"1536 406 CURVE",
"1551 344 OFFCURVE",
"1594 284 OFFCURVE",
"1675 223 CURVE SMOOTH",
"1738 177 OFFCURVE",
"1767 134 OFFCURVE",
"1767 101 CURVE SMOOTH",
"1767 -57 OFFCURVE",
"1538 35 OFFCURVE",
"1538 -114 CURVE SMOOTH",
"1538 -167 OFFCURVE",
"1555 -210 OFFCURVE",
"1606 -210 CURVE SMOOTH",
"1778 -210 OFFCURVE",
"1922 -84 OFFCURVE",
"1922 63 CURVE SMOOTH",
"1922 136 OFFCURVE",
"1854 225 OFFCURVE",
"1740 305 CURVE",
"1697 326 OFFCURVE",
"1666 400 OFFCURVE",
"1666 489 CURVE",
"1752 535 OFFCURVE",
"1807 621 OFFCURVE",
"1807 710 CURVE SMOOTH",
"1807 804 OFFCURVE",
"1735 874 OFFCURVE",
"1644 874 CURVE SMOOTH",
"1555 874 OFFCURVE",
"1496 796 OFFCURVE",
"1496 694 CURVE SMOOTH",
"1496 660 OFFCURVE",
"1501 616 OFFCURVE",
"1520 567 CURVE",
"1454 547 OFFCURVE",
"1365 532 OFFCURVE",
"1330 532 CURVE SMOOTH",
"1312 532 OFFCURVE",
"1309 868 OFFCURVE",
"1309 916 CURVE SMOOTH",
"1309 1002 OFFCURVE",
"1315 1087 OFFCURVE",
"1337 1123 CURVE",
"2087 1123 LINE",
"2087 1264 LINE"
);
}
);
width = 2067;
}
);
unicode = 090B;
},
{
glyphname = "rrVocalic-deva";
lastChange = "2021-08-22 03:02:32 +0000";
layers = (
{
anchors = (
{
name = bin;
position = "{1833, 1257}";
},
{
name = bottom;
position = "{1176, -60}";
},
{
name = top;
position = "{1237, 1262}";
}
);
layerId = "81641B54-5DFF-4E7E-9A9F-73CB636BC82D";
paths = (
{
closed = 1;
nodes = (
"641 49 CURVE SMOOTH",
"590 49 OFFCURVE",
"544 76 OFFCURVE",
"544 116 CURVE SMOOTH",
"544 175 OFFCURVE",
"664 263 OFFCURVE",
"765 299 CURVE",
"765 187 OFFCURVE",
"691 49 OFFCURVE"
);
},
{
closed = 1;
nodes = (
"1351 1264 LINE",
"1305 1320 OFFCURVE",
"1246 1398 OFFCURVE",
"1211 1398 CURVE SMOOTH",
"1168 1398 OFFCURVE",
"1154 1367 OFFCURVE",
"1154 1312 CURVE SMOOTH",
"1154 1264 LINE",
"-36 1264 LINE",
"-36 1123 LINE",
"1156 1123 LINE",
"1156 932 LINE SMOOTH",
"1156 753 OFFCURVE",
"1162 605 OFFCURVE",
"1176 497 CURVE",
"1173 497 LINE",
"1132 540 OFFCURVE",
"1076 557 OFFCURVE",
"1009 557 CURVE SMOOTH",
"963 557 OFFCURVE",
"922 552 OFFCURVE",
"871 532 CURVE",
"864 532 LINE",
"834 724 OFFCURVE",
"686 874 OFFCURVE",
"515 874 CURVE SMOOTH",
"292 874 OFFCURVE",
"94 722 OFFCURVE",
"94 557 CURVE SMOOTH",
"94 491 OFFCURVE",
"203 374 OFFCURVE",
"258 374 CURVE SMOOTH",
"282 374 OFFCURVE",
"293 391 OFFCURVE",
"293 418 CURVE SMOOTH",
"293 433 OFFCURVE",
"244 461 OFFCURVE",
"244 489 CURVE SMOOTH",
"244 592 OFFCURVE",
"439 722 OFFCURVE",
"580 722 CURVE SMOOTH",
"679 722 OFFCURVE",
"751 610 OFFCURVE",
"751 489 CURVE",
"750 489 LINE",
"560 381 OFFCURVE",
"443 237 OFFCURVE",
"443 142 CURVE SMOOTH",
"443 66 OFFCURVE",
"542 -81 OFFCURVE",
"616 -81 CURVE SMOOTH",
"732 -81 OFFCURVE",
"853 105 OFFCURVE",
"897 347 CURVE",
"928 368 OFFCURVE",
"967 374 OFFCURVE",
"1040 374 CURVE SMOOTH",
"1087 374 OFFCURVE",
"1138 368 OFFCURVE",
"1176 347 CURVE",
"1176 124 OFFCURVE",
"1168 40 OFFCURVE",
"1111 40 CURVE SMOOTH",
"1107 40 OFFCURVE",
"1070 53 OFFCURVE",
"1068 53 CURVE SMOOTH",
"1048 53 OFFCURVE",
"1033 39 OFFCURVE",
"1033 12 CURVE SMOOTH",
"1033 -59 OFFCURVE",
"1138 -120 OFFCURVE",
"1192 -120 CURVE SMOOTH",
"1283 -120 OFFCURVE",
"1337 39 OFFCURVE",
"1337 222 CURVE SMOOTH",
"1337 364 LINE",
"1402 364 OFFCURVE",
"1501 382 OFFCURVE",
"1577 431 CURVE",
"1583 431 LINE",
"1596 399 OFFCURVE",
"1639 364 OFFCURVE",
"1670 322 CURVE",
"1669 322 LINE",
"1546 256 OFFCURVE",
"1453 149 OFFCURVE",
"1453 49 CURVE SMOOTH",
"1453 -122 OFFCURVE",
"1646 -342 OFFCURVE",
"1795 -342 CURVE SMOOTH",
"1936 -342 OFFCURVE",
"2090 -250 OFFCURVE",
"2090 -149 CURVE SMOOTH",
"2090 -110 OFFCURVE",
"2057 -68 OFFCURVE",
"2015 -41 CURVE",
"1939 -155 OFFCURVE",
"1825 -232 OFFCURVE",
"1714 -232 CURVE SMOOTH",
"1631 -232 OFFCURVE",
"1565 -155 OFFCURVE",
"1565 -68 CURVE SMOOTH",
"1565 50 OFFCURVE",
"1660 163 OFFCURVE",
"1773 195 CURVE",
"1775 195 LINE",
"1796 200 OFFCURVE",
"1812 253 OFFCURVE",
"1812 270 CURVE SMOOTH",
"1812 354 OFFCURVE",
"1685 427 OFFCURVE",
"1678 489 CURVE",
"1679 489 LINE",
"1740 535 OFFCURVE",
"1783 605 OFFCURVE",
"1783 706 CURVE SMOOTH",
"1783 798 OFFCURVE",
"1723 864 OFFCURVE",
"1649 864 CURVE SMOOTH",
"1575 864 OFFCURVE",
"1526 790 OFFCURVE",
"1526 688 CURVE SMOOTH",
"1526 657 OFFCURVE",
"1532 615 OFFCURVE",
"1546 563 CURVE",
"1544 563 LINE",
"1494 547 OFFCURVE",
"1361 523 OFFCURVE",
"1328 523 CURVE",
"1325 553 OFFCURVE",
"1315 868 OFFCURVE",
"1315 916 CURVE SMOOTH",
"1315 1002 OFFCURVE",
"1315 1123 OFFCURVE",
"1328 1123 CURVE SMOOTH",
"2179 1123 LINE",
"2179 1264 LINE"
);
}
);
width = 2159;
}
);
unicode = 0960;
},
{
glyphname = "lVocalic-deva";
lastChange = "2021-08-22 03:02:32 +0000";
layers = (
{
anchors = (
{
name = bin;
position = "{1460, 1257}";
},
{
name = bottom;
position = "{900, -353}";
},
{
name = top;
position = "{932, 1257}";
}
);
layerId = "81641B54-5DFF-4E7E-9A9F-73CB636BC82D";
paths = (
{
closed = 1;
nodes = (
"-29 1123 LINE",
"843 1123 LINE",
"849 1093 OFFCURVE",
"853 1047 OFFCURVE",
"853 973 CURVE SMOOTH",
"853 881 OFFCURVE",
"790 788 OFFCURVE",
"712 722 CURVE",
"706 722 LINE",
"674 846 OFFCURVE",
"578 942 OFFCURVE",
"476 942 CURVE SMOOTH",
"289 942 OFFCURVE",
"146 760 OFFCURVE",
"146 547 CURVE SMOOTH",
"146 167 OFFCURVE",
"318 -76 OFFCURVE",
"570 -76 CURVE SMOOTH",
"592 -76 OFFCURVE",
"600 -52 OFFCURVE",
"600 -23 CURVE SMOOTH",
"600 21 OFFCURVE",
"557 58 OFFCURVE",
"510 58 CURVE SMOOTH",
"356 58 OFFCURVE",
"292 201 OFFCURVE",
"292 431 CURVE SMOOTH",
"292 607 OFFCURVE",
"397 753 OFFCURVE",
"523 753 CURVE SMOOTH",
"560 753 OFFCURVE",
"623 716 OFFCURVE",
"661 661 CURVE",
"633 623 OFFCURVE",
"621 585 OFFCURVE",
"621 557 CURVE SMOOTH",
"621 511 OFFCURVE",
"702 418 OFFCURVE",
"747 418 CURVE SMOOTH",
"755 418 OFFCURVE",
"765 431 OFFCURVE",
"769 454 CURVE SMOOTH",
"805 595 OFFCURVE",
"913 694 OFFCURVE",
"1021 694 CURVE SMOOTH",
"1114 694 OFFCURVE",
"1186 605 OFFCURVE",
"1186 497 CURVE SMOOTH",
"1186 346 OFFCURVE",
"1092 208 OFFCURVE",
"973 208 CURVE SMOOTH",
"846 208 OFFCURVE",
"745 103 OFFCURVE",
"745 -39 CURVE SMOOTH",
"745 -287 OFFCURVE",
"936 -481 OFFCURVE",
"1144 -481 CURVE SMOOTH",
"1181 -481 LINE SMOOTH",
"1347 -481 OFFCURVE",
"1435 -450 OFFCURVE",
"1435 -392 CURVE SMOOTH",
"1435 -359 OFFCURVE",
"1355 -287 OFFCURVE",
"1320 -287 CURVE SMOOTH",
"1280 -287 OFFCURVE",
"1159 -342 OFFCURVE",
"1111 -342 CURVE SMOOTH",
"963 -342 OFFCURVE",
"863 -279 OFFCURVE",
"863 -173 CURVE SMOOTH",
"863 -25 OFFCURVE",
"946 49 OFFCURVE",
"1084 49 CURVE SMOOTH",
"1223 49 OFFCURVE",
"1350 212 OFFCURVE",
"1350 418 CURVE SMOOTH",
"1350 623 OFFCURVE",
"1181 804 OFFCURVE",
"977 841 CURVE SMOOTH",
"973 841 LINE",
"994 899 OFFCURVE",
"993 1123 OFFCURVE",
"1035 1123 CURVE SMOOTH",
"1497 1123 LINE",
"1497 1264 LINE",
"1047 1264 LINE",
"993 1341 OFFCURVE",
"938 1400 OFFCURVE",
"881 1400 CURVE SMOOTH",
"849 1400 OFFCURVE",
"831 1363 OFFCURVE",
"831 1264 CURVE",
"-29 1264 LINE"
);
}
);
width = 1477;
}
);
unicode = 090C;
},
{
glyphname = "llVocalic-deva";
lastChange = "2021-08-22 03:02:32 +0000";
layers = (
{
anchors = (
{
name = bin;
position = "{1501, 1264}";
},
{
name = bottom;
position = "{702, -290}";
},
{
name = top;
position = "{941, 1257}";
}
);
layerId = "81641B54-5DFF-4E7E-9A9F-73CB636BC82D";
paths = (
{
closed = 1;
nodes = (
"1040 1264 LINE",
"993 1320 OFFCURVE",
"934 1398 OFFCURVE",
"899 1398 CURVE SMOOTH",
"856 1398 OFFCURVE",
"843 1367 OFFCURVE",
"843 1312 CURVE SMOOTH",
"843 1264 LINE",
"-14 1264 LINE",
"-14 1123 LINE",
"843 1123 LINE",
"849 1093 OFFCURVE",
"853 1047 OFFCURVE",
"853 973 CURVE SMOOTH",
"853 881 OFFCURVE",
"790 788 OFFCURVE",
"712 722 CURVE",
"706 722 LINE",
"674 846 OFFCURVE",
"578 942 OFFCURVE",
"476 942 CURVE SMOOTH",
"289 942 OFFCURVE",
"146 760 OFFCURVE",
"146 547 CURVE SMOOTH",
"146 167 OFFCURVE",
"373 -173 OFFCURVE",
"625 -173 CURVE SMOOTH",
"647 -173 OFFCURVE",
"655 -149 OFFCURVE",
"655 -120 CURVE SMOOTH",
"655 -76 OFFCURVE",
"612 -39 OFFCURVE",
"565 -39 CURVE SMOOTH",
"411 -39 OFFCURVE",
"292 181 OFFCURVE",
"292 431 CURVE SMOOTH",
"292 607 OFFCURVE",
"397 753 OFFCURVE",
"523 753 CURVE SMOOTH",
"560 753 OFFCURVE",
"623 716 OFFCURVE",
"661 661 CURVE",
"633 623 OFFCURVE",
"621 585 OFFCURVE",
"621 557 CURVE SMOOTH",
"621 511 OFFCURVE",
"702 418 OFFCURVE",
"747 418 CURVE SMOOTH",
"755 418 OFFCURVE",
"765 431 OFFCURVE",
"769 454 CURVE SMOOTH",
"805 595 OFFCURVE",
"913 694 OFFCURVE",
"1021 694 CURVE SMOOTH",
"1114 694 OFFCURVE",
"1186 605 OFFCURVE",
"1186 497 CURVE SMOOTH",
"1186 326 OFFCURVE",
"1083 208 OFFCURVE",
"967 208 CURVE SMOOTH",
"853 208 OFFCURVE",
"760 119 OFFCURVE",
"760 35 CURVE SMOOTH",
"760 -66 OFFCURVE",
"810 -153 OFFCURVE",
"894 -187 CURVE",
"863 -220 OFFCURVE",
"846 -263 OFFCURVE",
"846 -303 CURVE SMOOTH",
"846 -411 OFFCURVE",
"1008 -533 OFFCURVE",
"1159 -533 CURVE SMOOTH",
"1408 -533 OFFCURVE",
"1630 -437 OFFCURVE",
"1630 -342 CURVE SMOOTH",
"1630 -273 OFFCURVE",
"1594 -222 OFFCURVE",
"1555 -222 CURVE SMOOTH",
"1551 -222 OFFCURVE",
"1538 -225 OFFCURVE",
"1528 -232 CURVE",
"1481 -275 LINE",
"1375 -352 OFFCURVE",
"1247 -392 OFFCURVE",
"1097 -392 CURVE SMOOTH",
"1030 -392 OFFCURVE",
"970 -359 OFFCURVE",
"970 -320 CURVE SMOOTH",
"970 -277 OFFCURVE",
"1015 -244 OFFCURVE",
"1080 -244 CURVE SMOOTH",
"1223 -244 LINE SMOOTH",
"1262 -244 OFFCURVE",
"1283 -230 OFFCURVE",
"1283 -210 CURVE SMOOTH",
"1283 -163 OFFCURVE",
"1216 -95 OFFCURVE",
"1188 -95 CURVE SMOOTH",
"1159 -95 OFFCURVE",
"1038 -120 OFFCURVE",
"1002 -120 CURVE SMOOTH",
"940 -120 OFFCURVE",
"885 -89 OFFCURVE",
"885 -53 CURVE SMOOTH",
"885 -5 OFFCURVE",
"905 49 OFFCURVE",
"987 49 CURVE SMOOTH",
"1233 49 OFFCURVE",
"1363 184 OFFCURVE",
"1363 399 CURVE SMOOTH",
"1363 602 OFFCURVE",
"1181 804 OFFCURVE",
"977 841 CURVE SMOOTH",
"973 841 LINE",
"993 891 OFFCURVE",
"1008 967 OFFCURVE",
"1008 1052 CURVE SMOOTH",
"1008 1092 OFFCURVE",
"1020 1123 OFFCURVE",
"1038 1123 CURVE SMOOTH",
"1501 1123 LINE",
"1501 1264 LINE"
);
}
);
width = 1490;
}
);
unicode = 0961;
},
{
glyphname = "e-deva";
lastChange = "2021-08-22 03:02:32 +0000";
layers = (
{
anchors = (
{
name = bin;
position = "{601, 1257}";
},
{
name = bottom;
position = "{468, -96}";
},
{
name = top;
position = "{1028, 1257}";
}
);
layerId = "81641B54-5DFF-4E7E-9A9F-73CB636BC82D";
paths = (
{
closed = 1;
nodes = (
"-5 1123 LINE",
"240 1123 LINE",
"223 1076 OFFCURVE",
"212 1028 OFFCURVE",
"212 987 CURVE SMOOTH",
"212 934 OFFCURVE",
"228 779 OFFCURVE",
"228 732 CURVE SMOOTH",
"228 607 OFFCURVE",
"189 473 OFFCURVE",
"139 400 CURVE",
"139 392 OFFCURVE",
"134 382 OFFCURVE",
"134 374 CURVE SMOOTH",
"134 347 OFFCURVE",
"159 317 OFFCURVE",
"210 299 CURVE",
"416 179 OFFCURVE",
"639 43 OFFCURVE",
"844 -79 CURVE",
"993 -185 OFFCURVE",
"1083 -297 OFFCURVE",
"1083 -378 CURVE SMOOTH",
"1083 -423 OFFCURVE",
"1070 -454 OFFCURVE",
"1048 -478 CURVE",
"1097 -555 OFFCURVE",
"1138 -590 OFFCURVE",
"1171 -590 CURVE SMOOTH",
"1201 -590 OFFCURVE",
"1231 -523 OFFCURVE",
"1231 -431 CURVE SMOOTH",
"1231 -240 OFFCURVE",
"993 -29 OFFCURVE",
"349 322 CURVE",
"347 322 LINE",
"384 371 OFFCURVE",
"400 448 OFFCURVE",
"400 547 CURVE SMOOTH",
"400 598 OFFCURVE",
"387 815 OFFCURVE",
"387 874 CURVE SMOOTH",
"387 1002 OFFCURVE",
"406 1092 OFFCURVE",
"439 1123 CURVE",
"846 1123 LINE",
"846 1028 LINE SMOOTH",
"846 973 OFFCURVE",
"856 792 OFFCURVE",
"856 732 CURVE SMOOTH",
"856 657 OFFCURVE",
"808 585 OFFCURVE",
"757 585 CURVE SMOOTH",
"736 585 OFFCURVE",
"660 623 OFFCURVE",
"647 623 CURVE SMOOTH",
"625 623 OFFCURVE",
"610 612 OFFCURVE",
"610 596 CURVE SMOOTH",
"610 526 OFFCURVE",
"753 406 OFFCURVE",
"810 406 CURVE SMOOTH",
"1133 406 OFFCURVE",
"932 1123 OFFCURVE",
"1097 1123 CURVE SMOOTH",
"1213 1123 LINE",
"1213 1264 LINE",
"-5 1264 LINE"
);
}
);
width = 1191;
}
);
unicode = 090F;
},
{
glyphname = "oe-deva";
lastChange = "2021-08-22 03:02:32 +0000";
layers = (
{
components = (
{
name = "a-deva";
}
);
layerId = "81641B54-5DFF-4E7E-9A9F-73CB636BC82D";
paths = (
{
closed = 1;
nodes = (
"1384 1264 LINE",
"1539 1264 LINE",
"1539 1665 LINE",
"1384 1665 LINE"
);
}
);
width = 1773;
}
);
unicode = 0973;
},
{
glyphname = "ooe-deva";
lastChange = "2021-08-22 03:02:32 +0000";
layers = (
{
components = (
{
name = "aa-deva";
}
);
layerId = "81641B54-5DFF-4E7E-9A9F-73CB636BC82D";
paths = (
{
closed = 1;
nodes = (
"1885 1264 LINE",
"2040 1264 LINE",
"2040 1665 LINE",
"1885 1665 LINE"
);
}
);
width = 2237;
}
);
unicode = 0974;
},
{
glyphname = "aw-deva";
lastChange = "2021-08-22 03:02:32 +0000";
layers = (
{
components = (
{
name = "aa-deva";
}
);
layerId = "81641B54-5DFF-4E7E-9A9F-73CB636BC82D";
paths = (
{
closed = 1;
nodes = (
"2129 1555 OFFCURVE",
"2018 1813 OFFCURVE",
"1768 1813 CURVE SMOOTH",
"1601 1813 OFFCURVE",
"1354 1783 OFFCURVE",
"1354 1889 CURVE SMOOTH",
"1354 1921 OFFCURVE",
"1317 1951 OFFCURVE",
"1272 1951 CURVE SMOOTH",
"1232 1951 OFFCURVE",
"1198 1917 OFFCURVE",
"1198 1879 CURVE SMOOTH",
"1198 1662 OFFCURVE",
"1525 1697 OFFCURVE",
"1770 1697 CURVE SMOOTH",
"1927 1697 OFFCURVE",
"2030 1464 OFFCURVE",
"2030 1264 CURVE",
"1941 1264 LINE",
"1923 1404 OFFCURVE",
"1846 1583 OFFCURVE",
"1644 1583 CURVE SMOOTH",
"1416 1583 OFFCURVE",
"1178 1559 OFFCURVE",
"1178 1669 CURVE SMOOTH",
"1178 1703 OFFCURVE",
"1138 1728 OFFCURVE",
"1099 1728 CURVE SMOOTH",
"1061 1728 OFFCURVE",
"1024 1699 OFFCURVE",
"1024 1651 CURVE SMOOTH",
"1024 1439 OFFCURVE",
"1345 1464 OFFCURVE",
"1636 1464 CURVE SMOOTH",
"1781 1464 OFFCURVE",
"1819 1337 OFFCURVE",
"1846 1264 CURVE",
"2014 1200 LINE",
"2131 1264 LINE"
);
}
);
width = 2237;
},
{
associatedMasterId = "81641B54-5DFF-4E7E-9A9F-73CB636BC82D";
components = (
{
name = "aa-deva";
}
);
layerId = "959211E7-FDC9-4679-8737-F310E355C6B0";
name = "Regular Feb 19 15, 14:49";
paths = (
{
closed = 1;
nodes = (
"1027 1793 OFFCURVE",
"1016 1762 OFFCURVE",
"1016 1733 CURVE SMOOTH",
"1016 1659 OFFCURVE",
"1081 1589 OFFCURVE",
"1204 1568 CURVE SMOOTH",
"1452 1527 LINE SMOOTH",
"1602 1500 OFFCURVE",
"1679 1465 OFFCURVE",
"1679 1354 CURVE SMOOTH",
"1679 1323 OFFCURVE",
"1676 1284 OFFCURVE",
"1654 1229 CURVE",
"1713 1195 LINE",
"1765 1277 OFFCURVE",
"1785 1348 OFFCURVE",
"1785 1409 CURVE SMOOTH",
"1785 1540 OFFCURVE",
"1688 1610 OFFCURVE",
"1508 1641 CURVE SMOOTH",
"1287 1677 LINE SMOOTH",
"1158 1699 OFFCURVE",
"1121 1730 OFFCURVE",
"1118 1779 CURVE SMOOTH",
"1118 1788 OFFCURVE",
"1118 1798 OFFCURVE",
"1120 1808 CURVE",
"1051 1822 LINE"
);
},
{
closed = 1;
nodes = (
"887 1647 OFFCURVE",
"879 1612 OFFCURVE",
"879 1579 CURVE SMOOTH",
"879 1478 OFFCURVE",
"953 1387 OFFCURVE",
"1121 1366 CURVE SMOOTH",
"1425 1328 LINE SMOOTH",
"1576 1307 OFFCURVE",
"1610 1286 OFFCURVE",
"1610 1194 CURVE SMOOTH",
"1610 1172 OFFCURVE",
"1608 1146 OFFCURVE",
"1606 1115 CURVE",
"1662 1098 LINE",
"1676 1146 OFFCURVE",
"1686 1193 OFFCURVE",
"1686 1233 CURVE SMOOTH",
"1686 1367 OFFCURVE",
"1616 1416 OFFCURVE",
"1427 1445 CURVE SMOOTH",
"1165 1485 LINE SMOOTH",
"1015 1508 OFFCURVE",
"980 1563 OFFCURVE",
"978 1631 CURVE SMOOTH",
"978 1642 OFFCURVE",
"979 1654 OFFCURVE",
"981 1666 CURVE",
"904 1680 LINE"
);
}
);
visible = 1;
width = 1942;
}
);
unicode = 0975;
},
{
glyphname = "aaMatra-deva";
lastChange = "2021-08-22 03:02:32 +0000";
layers = (
{
anchors = (
{
name = top;
position = "{215, 1257}";
}
);
layerId = "81641B54-5DFF-4E7E-9A9F-73CB636BC82D";
paths = (
{
closed = 1;
nodes = (
"-11 1123 LINE",
"105 1123 LINE",
"105 283 LINE SMOOTH",
"105 157 OFFCURVE",
"61 49 OFFCURVE",
"-13 49 CURVE SMOOTH",
"-33 49 OFFCURVE",
"-60 36 OFFCURVE",
"-60 14 CURVE SMOOTH",
"-60 -29 OFFCURVE",
"58 -120 OFFCURVE",
"101 -120 CURVE SMOOTH",
"181 -120 OFFCURVE",
"259 -2 OFFCURVE",
"259 142 CURVE SMOOTH",
"259 955 LINE SMOOTH",
"259 1050 OFFCURVE",
"299 1123 OFFCURVE",
"339 1123 CURVE SMOOTH",
"484 1123 LINE",
"484 1264 LINE",
"336 1264 LINE",
"218 1367 LINE SMOOTH",
"186 1396 OFFCURVE",
"167 1396 OFFCURVE",
"157 1400 CURVE",
"117 1400 OFFCURVE",
"78 1367 OFFCURVE",
"78 1312 CURVE SMOOTH",
"78 1264 LINE",
"-11 1264 LINE"
);
}
);
width = 464;
}
);
unicode = 093E;
},
{
glyphname = "iMatra-deva";
lastChange = "2021-08-22 03:02:32 +0000";
layers = (
{
anchors = (
{
name = bin;
position = "{1345, 1257}";
},
{
name = imatra;
position = "{1228, 1427}";
},
{
name = top;
position = "{1302, 1425}";
}
);
layerId = "81641B54-5DFF-4E7E-9A9F-73CB636BC82D";
paths = (
{
closed = 1;
nodes = (
"8 1123 LINE",
"287 1123 LINE",
"287 283 LINE SMOOTH",
"287 157 OFFCURVE",
"247 49 OFFCURVE",
"169 49 CURVE SMOOTH",
"149 49 OFFCURVE",
"122 36 OFFCURVE",
"122 14 CURVE SMOOTH",
"122 -29 OFFCURVE",
"244 -120 OFFCURVE",
"283 -120 CURVE SMOOTH",
"363 -120 OFFCURVE",
"441 -2 OFFCURVE",
"441 142 CURVE SMOOTH",
"441 955 LINE SMOOTH",
"441 1050 OFFCURVE",
"481 1123 OFFCURVE",
"521 1123 CURVE SMOOTH",
"686 1123 LINE",
"686 1264 LINE",
"443 1264 LINE",
"363 1282 OFFCURVE",
"305 1439 OFFCURVE",
"305 1532 CURVE SMOOTH",
"305 1713 OFFCURVE",
"426 1775 OFFCURVE",
"580 1775 CURVE SMOOTH",
"810 1775 OFFCURVE",
"1062 1670 OFFCURVE",
"1252 1474 CURVE",
"1282 1431 OFFCURVE",
"1312 1400 OFFCURVE",
"1337 1400 CURVE",
"1345 1406 OFFCURVE",
"1357 1425 OFFCURVE",
"1357 1461 CURVE",
"1297 1678 OFFCURVE",
"864 1948 OFFCURVE",
"525 1948 CURVE SMOOTH",
"299 1948 OFFCURVE",
"149 1780 OFFCURVE",
"149 1565 CURVE SMOOTH",
"149 1449 OFFCURVE",
"198 1328 OFFCURVE",
"284 1264 CURVE",
"8 1264 LINE"
);
}
);
width = 652;
}
);
unicode = 093F;
},
{
glyphname = "iiMatra-deva";
lastChange = "2021-08-22 03:02:32 +0000";
layers = (
{
anchors = (
{
name = bin;
position = "{625, 1257}";
},
{
name = iimatra;
position = "{379, 1257}";
},
{
name = top;
position = "{416, 1264}";
}
);
layerId = "81641B54-5DFF-4E7E-9A9F-73CB636BC82D";
paths = (
{
closed = 1;
nodes = (
"-363 1580 CURVE SMOOTH",
"-363 1431 OFFCURVE",
"-293 1286 OFFCURVE",
"-253 1264 CURVE",
"-114 1264 LINE",
"-179 1320 OFFCURVE",
"-198 1426 OFFCURVE",
"-198 1506 CURVE SMOOTH",
"-198 1733 OFFCURVE",
"-126 1786 OFFCURVE",
"-29 1786 CURVE SMOOTH",
"76 1786 OFFCURVE",
"258 1594 OFFCURVE",
"329 1264 CURVE",
"0 1264 LINE",
"0 1123 LINE",
"287 1123 LINE",
"287 283 LINE SMOOTH",
"287 157 OFFCURVE",
"247 49 OFFCURVE",
"169 49 CURVE SMOOTH",
"150 49 OFFCURVE",
"122 36 OFFCURVE",
"122 14 CURVE SMOOTH",
"122 -29 OFFCURVE",
"244 -120 OFFCURVE",
"283 -120 CURVE SMOOTH",
"364 -120 OFFCURVE",
"441 -2 OFFCURVE",
"441 142 CURVE SMOOTH",
"441 955 LINE SMOOTH",
"441 1050 OFFCURVE",
"450 1123 OFFCURVE",
"491 1123 CURVE SMOOTH",
"681 1123 LINE",
"681 1264 LINE",
"416 1264 LINE",
"349 1679 OFFCURVE",
"153 1948 OFFCURVE",
"-53 1948 CURVE SMOOTH",
"-189 1948 OFFCURVE",
"-363 1823 OFFCURVE"
);
}
);
width = 661;
}
);
unicode = 0940;
},
{
glyphname = "oMatra_anusvara-deva";
lastChange = "2021-08-22 03:02:32 +0000";
layers = (
{
components = (
{
name = "aaMatra-deva";
},
{
name = "eMatra-deva";
transform = "{1, 0, 0, 1, -51, 0}";
}
);
layerId = "81641B54-5DFF-4E7E-9A9F-73CB636BC82D";
paths = (
{
closed = 1;
nodes = (
"407 1693 CURVE SMOOTH",
"360 1693 OFFCURVE",
"303 1623 OFFCURVE",
"303 1560 CURVE SMOOTH",
"303 1468 OFFCURVE",
"376 1452 OFFCURVE",
"415 1452 CURVE SMOOTH",
"478 1452 OFFCURVE",
"508 1495 OFFCURVE",
"508 1577 CURVE SMOOTH",
"508 1669 OFFCURVE",
"452 1693 OFFCURVE"
);
}
);
width = 464;
}
);
},
{
glyphname = "prishthaMatraE-deva";
lastChange = "2021-08-22 03:02:32 +0000";
layers = (
{
anchors = (
{
name = bottom;
position = "{81, -21}";
},
{
name = top;
position = "{240, 1257}";
}
);
layerId = "81641B54-5DFF-4E7E-9A9F-73CB636BC82D";
paths = (
{
closed = 1;
nodes = (
"105 1123 LINE",
"105 283 LINE SMOOTH",
"105 157 OFFCURVE",
"61 49 OFFCURVE",
"-13 49 CURVE SMOOTH",
"-33 49 OFFCURVE",
"-60 36 OFFCURVE",
"-60 14 CURVE SMOOTH",
"-60 -29 OFFCURVE",
"58 -120 OFFCURVE",
"101 -120 CURVE SMOOTH",
"181 -120 OFFCURVE",
"259 -2 OFFCURVE",
"259 142 CURVE SMOOTH",
"259 955 LINE SMOOTH",
"259 1050 OFFCURVE",
"299 1123 OFFCURVE",
"339 1123 CURVE SMOOTH",
"484 1123 LINE",
"484 1264 LINE",
"336 1264 LINE",
"218 1367 LINE SMOOTH",
"186 1396 OFFCURVE",
"167 1396 OFFCURVE",
"157 1400 CURVE",
"117 1400 OFFCURVE",
"78 1367 OFFCURVE",
"78 1312 CURVE SMOOTH",
"78 1264 LINE"
);
}
);
width = 464;
}
);
unicode = 094E;
},
{
glyphname = "ooeMatra-deva";
lastChange = "2021-08-22 03:02:32 +0000";
layers = (
{
components = (
{
name = "aaMatra-deva";
}
);
layerId = "81641B54-5DFF-4E7E-9A9F-73CB636BC82D";
paths = (
{
closed = 1;
nodes = (
"80 1206 LINE",
"235 1206 LINE",
"235 1607 LINE",
"80 1607 LINE"
);
}
);
width = 464;
}
);
unicode = 093B;
},
{
glyphname = "awMatra-deva";
lastChange = "2021-08-22 03:02:32 +0000";
layers = (
{
components = (
{
name = "aaMatra-deva";
}
);
layerId = "81641B54-5DFF-4E7E-9A9F-73CB636BC82D";
paths = (
{
closed = 1;
nodes = (
"335 1548 OFFCURVE",
"208 1923 OFFCURVE",
"-42 1923 CURVE SMOOTH",
"-209 1923 OFFCURVE",
"-456 1893 OFFCURVE",
"-456 1999 CURVE SMOOTH",
"-456 2031 OFFCURVE",
"-493 2061 OFFCURVE",
"-538 2061 CURVE SMOOTH",
"-578 2061 OFFCURVE",
"-612 2027 OFFCURVE",
"-612 1989 CURVE SMOOTH",
"-612 1712 OFFCURVE",
"-285 1807 OFFCURVE",
"-40 1807 CURVE SMOOTH",
"117 1807 OFFCURVE",
"252 1465 OFFCURVE",
"252 1265 CURVE",
"163 1265 LINE",
"145 1405 OFFCURVE",
"36 1633 OFFCURVE",
"-166 1633 CURVE SMOOTH",
"-394 1633 OFFCURVE",
"-632 1609 OFFCURVE",
"-632 1719 CURVE SMOOTH",
"-632 1753 OFFCURVE",
"-672 1778 OFFCURVE",
"-711 1778 CURVE SMOOTH",
"-749 1778 OFFCURVE",
"-786 1749 OFFCURVE",
"-786 1701 CURVE SMOOTH",
"-786 1489 OFFCURVE",
"-465 1514 OFFCURVE",
"-174 1514 CURVE SMOOTH",
"-29 1514 OFFCURVE",
"54 1330 OFFCURVE",
"81 1257 CURVE",
"208 1226 LINE",
"337 1257 LINE"
);
}
);
width = 464;
}
);
unicode = 094F;
},
{
glyphname = "iMatra-deva.0";
lastChange = "2021-08-22 03:02:32 +0000";
layers = (
{
anchors = (
{
name = bin;
position = "{1049, 1257}";
},
{
name = imatra;
position = "{1100, 1257}";
},
{
name = top;
position = "{1019, 1347}";
}
);
layerId = "81641B54-5DFF-4E7E-9A9F-73CB636BC82D";
paths = (
{
closed = 1;
nodes = (
"-20 1123 LINE",
"287 1123 LINE",
"287 283 LINE SMOOTH",
"287 157 OFFCURVE",
"243 49 OFFCURVE",
"169 49 CURVE SMOOTH",
"149 49 OFFCURVE",
"122 36 OFFCURVE",
"122 14 CURVE SMOOTH",
"122 -29 OFFCURVE",
"240 -120 OFFCURVE",
"283 -120 CURVE SMOOTH",
"363 -120 OFFCURVE",
"441 -2 OFFCURVE",
"441 142 CURVE SMOOTH",
"441 955 LINE SMOOTH",
"441 1050 OFFCURVE",
"481 1123 OFFCURVE",
"521 1123 CURVE SMOOTH",
"678 1123 LINE",
"678 1264 LINE",
"450 1264 LINE",
"354 1286 OFFCURVE",
"299 1404 OFFCURVE",
"299 1520 CURVE SMOOTH",
"299 1666 OFFCURVE",
"399 1785 OFFCURVE",
"528 1785 CURVE SMOOTH",
"734 1785 OFFCURVE",
"863 1609 OFFCURVE",
"977 1355 CURVE",
"985 1335 OFFCURVE",
"1008 1325 OFFCURVE",
"1028 1325 CURVE SMOOTH",
"1033 1325 OFFCURVE",
"1038 1343 OFFCURVE",
"1038 1386 CURVE",
"998 1624 OFFCURVE",
"821 1948 OFFCURVE",
"505 1948 CURVE SMOOTH",
"287 1948 OFFCURVE",
"149 1783 OFFCURVE",
"149 1565 CURVE SMOOTH",
"149 1449 OFFCURVE",
"198 1328 OFFCURVE",
"284 1264 CURVE",
"-20 1264 LINE"
);
}
);
width = 656;
}
);
},
{
glyphname = "iMatra-deva.01";
lastChange = "2021-08-22 03:02:32 +0000";
layers = (
{
anchors = (
{
name = bin;
position = "{1477, 1332}";
},
{
name = imatra;
position = "{1339, 1384}";
},
{
name = top;
position = "{1436, 1281}";
}
);
layerId = "81641B54-5DFF-4E7E-9A9F-73CB636BC82D";
paths = (
{
closed = 1;
nodes = (
"-20 1123 LINE",
"287 1123 LINE",
"287 283 LINE SMOOTH",
"287 157 OFFCURVE",
"243 49 OFFCURVE",
"169 49 CURVE SMOOTH",
"149 49 OFFCURVE",
"122 36 OFFCURVE",
"122 14 CURVE SMOOTH",
"122 -29 OFFCURVE",
"240 -120 OFFCURVE",
"283 -120 CURVE SMOOTH",
"363 -120 OFFCURVE",
"441 -2 OFFCURVE",
"441 142 CURVE SMOOTH",
"441 955 LINE SMOOTH",
"441 1050 OFFCURVE",
"481 1123 OFFCURVE",
"521 1123 CURVE SMOOTH",
"678 1123 LINE",
"678 1264 LINE",
"450 1264 LINE",
"354 1286 OFFCURVE",
"299 1404 OFFCURVE",
"299 1520 CURVE SMOOTH",
"299 1666 OFFCURVE",
"429 1785 OFFCURVE",
"558 1785 CURVE SMOOTH",
"934 1785 OFFCURVE",
"1198 1609 OFFCURVE",
"1312 1355 CURVE",
"1320 1335 OFFCURVE",
"1343 1325 OFFCURVE",
"1363 1325 CURVE SMOOTH",
"1368 1325 OFFCURVE",
"1373 1343 OFFCURVE",
"1373 1386 CURVE",
"1333 1624 OFFCURVE",
"1015 1948 OFFCURVE",
"555 1948 CURVE SMOOTH",
"317 1948 OFFCURVE",
"149 1783 OFFCURVE",
"149 1565 CURVE SMOOTH",
"149 1449 OFFCURVE",
"198 1328 OFFCURVE",
"284 1264 CURVE",
"-20 1264 LINE"
);
}
);
width = 557;
}
);
},
{
glyphname = "iMatra-deva.02";
lastChange = "2021-08-22 03:02:32 +0000";
layers = (
{
anchors = (
{
name = bin;
position = "{1671, 1332}";
},
{
name = imatra;
position = "{1560, 1388}";
},
{
name = top;
position = "{1691, 1371}";
}
);
layerId = "81641B54-5DFF-4E7E-9A9F-73CB636BC82D";
paths = (
{
closed = 1;
nodes = (
"-20 1123 LINE",
"287 1123 LINE",
"287 283 LINE SMOOTH",
"287 157 OFFCURVE",
"243 49 OFFCURVE",
"169 49 CURVE SMOOTH",
"149 49 OFFCURVE",
"122 36 OFFCURVE",
"122 14 CURVE SMOOTH",
"122 -29 OFFCURVE",
"240 -120 OFFCURVE",
"283 -120 CURVE SMOOTH",
"363 -120 OFFCURVE",
"441 -2 OFFCURVE",
"441 142 CURVE SMOOTH",
"441 955 LINE SMOOTH",
"441 1050 OFFCURVE",
"481 1123 OFFCURVE",
"521 1123 CURVE SMOOTH",
"678 1123 LINE",
"678 1264 LINE",
"450 1264 LINE",
"354 1286 OFFCURVE",
"299 1404 OFFCURVE",
"299 1520 CURVE SMOOTH",
"299 1666 OFFCURVE",
"489 1785 OFFCURVE",
"638 1785 CURVE SMOOTH",
"1133 1785 OFFCURVE",
"1427 1609 OFFCURVE",
"1541 1355 CURVE",
"1549 1335 OFFCURVE",
"1572 1325 OFFCURVE",
"1592 1325 CURVE SMOOTH",
"1597 1325 OFFCURVE",
"1602 1343 OFFCURVE",
"1602 1386 CURVE",
"1562 1624 OFFCURVE",
"1173 1948 OFFCURVE",
"615 1948 CURVE SMOOTH",
"374 1948 OFFCURVE",
"149 1783 OFFCURVE",
"149 1565 CURVE SMOOTH",
"149 1449 OFFCURVE",
"198 1328 OFFCURVE",
"284 1264 CURVE",
"-20 1264 LINE"
);
}
);
width = 556;
}
);
},
{
glyphname = "iMatra-deva.03";
lastChange = "2021-08-22 03:02:32 +0000";
layers = (
{
anchors = (
{
name = bin;
position = "{1672, 1340}";
},
{
name = imatra;
position = "{1666, 1385}";
},
{
name = top;
position = "{1672, 1355}";
}
);
layerId = "81641B54-5DFF-4E7E-9A9F-73CB636BC82D";
paths = (
{
closed = 1;
nodes = (
"-20 1123 LINE",
"287 1123 LINE",
"287 283 LINE SMOOTH",
"287 157 OFFCURVE",
"243 49 OFFCURVE",
"169 49 CURVE SMOOTH",
"149 49 OFFCURVE",
"122 36 OFFCURVE",
"122 14 CURVE SMOOTH",
"122 -29 OFFCURVE",
"240 -120 OFFCURVE",
"283 -120 CURVE SMOOTH",
"363 -120 OFFCURVE",
"441 -2 OFFCURVE",
"441 142 CURVE SMOOTH",
"441 955 LINE SMOOTH",
"441 1050 OFFCURVE",
"481 1123 OFFCURVE",
"521 1123 CURVE SMOOTH",
"678 1123 LINE",
"678 1264 LINE",
"450 1264 LINE",
"354 1286 OFFCURVE",
"299 1404 OFFCURVE",
"299 1520 CURVE SMOOTH",
"299 1666 OFFCURVE",
"489 1785 OFFCURVE",
"638 1785 CURVE SMOOTH",
"1133 1785 OFFCURVE",
"1527 1609 OFFCURVE",
"1641 1355 CURVE",
"1649 1335 OFFCURVE",
"1672 1325 OFFCURVE",
"1692 1325 CURVE SMOOTH",
"1697 1325 OFFCURVE",
"1702 1343 OFFCURVE",
"1702 1386 CURVE",
"1662 1624 OFFCURVE",
"1173 1948 OFFCURVE",
"615 1948 CURVE SMOOTH",
"374 1948 OFFCURVE",
"149 1783 OFFCURVE",
"149 1565 CURVE SMOOTH",
"149 1449 OFFCURVE",
"198 1328 OFFCURVE",
"284 1264 CURVE",
"-20 1264 LINE"
);
}
);
width = 556;
}
);
},
{
glyphname = "iMatra-deva.05";
lastChange = "2021-08-22 03:02:32 +0000";
layers = (
{
anchors = (
{
name = bin;
position = "{1852, 1332}";
},
{
name = imatra;
position = "{1781, 1384}";
},
{
name = top;
position = "{1856, 1371}";
}
);
layerId = "81641B54-5DFF-4E7E-9A9F-73CB636BC82D";
paths = (
{
closed = 1;
nodes = (
"-20 1123 LINE",
"287 1123 LINE",
"287 283 LINE SMOOTH",
"287 157 OFFCURVE",
"243 49 OFFCURVE",
"169 49 CURVE SMOOTH",
"149 49 OFFCURVE",
"122 36 OFFCURVE",
"122 14 CURVE SMOOTH",
"122 -29 OFFCURVE",
"240 -120 OFFCURVE",
"283 -120 CURVE SMOOTH",
"363 -120 OFFCURVE",
"441 -2 OFFCURVE",
"441 142 CURVE SMOOTH",
"441 955 LINE SMOOTH",
"441 1050 OFFCURVE",
"481 1123 OFFCURVE",
"521 1123 CURVE SMOOTH",
"678 1123 LINE",
"678 1264 LINE",
"450 1264 LINE",
"354 1286 OFFCURVE",
"299 1404 OFFCURVE",
"299 1520 CURVE SMOOTH",
"299 1666 OFFCURVE",
"449 1785 OFFCURVE",
"678 1785 CURVE SMOOTH",
"1173 1785 OFFCURVE",
"1631 1609 OFFCURVE",
"1745 1355 CURVE",
"1753 1335 OFFCURVE",
"1776 1325 OFFCURVE",
"1796 1325 CURVE SMOOTH",
"1801 1325 OFFCURVE",
"1806 1343 OFFCURVE",
"1806 1386 CURVE",
"1766 1624 OFFCURVE",
"1213 1948 OFFCURVE",
"655 1948 CURVE SMOOTH",
"364 1948 OFFCURVE",
"149 1783 OFFCURVE",
"149 1565 CURVE SMOOTH",
"149 1449 OFFCURVE",
"198 1328 OFFCURVE",
"284 1264 CURVE",
"-20 1264 LINE"
);
}
);
width = 556;
}
);
},
{
glyphname = "iMatra-deva.08";
lastChange = "2021-08-22 03:02:32 +0000";
layers = (
{
anchors = (
{
name = bin;
position = "{1957, 1332}";
},
{
name = imatra;
position = "{1890, 1381}";
},
{
name = top;
position = "{1968, 1373}";
}
);
layerId = "81641B54-5DFF-4E7E-9A9F-73CB636BC82D";
paths = (
{
closed = 1;
nodes = (
"-20 1123 LINE",
"287 1123 LINE",
"287 283 LINE SMOOTH",
"287 157 OFFCURVE",
"243 49 OFFCURVE",
"169 49 CURVE SMOOTH",
"149 49 OFFCURVE",
"122 36 OFFCURVE",
"122 14 CURVE SMOOTH",
"122 -29 OFFCURVE",
"240 -120 OFFCURVE",
"283 -120 CURVE SMOOTH",
"363 -120 OFFCURVE",
"441 -2 OFFCURVE",
"441 142 CURVE SMOOTH",
"441 955 LINE SMOOTH",
"441 1050 OFFCURVE",
"481 1123 OFFCURVE",
"521 1123 CURVE SMOOTH",
"678 1123 LINE",
"678 1264 LINE",
"450 1264 LINE",
"354 1286 OFFCURVE",
"299 1404 OFFCURVE",
"299 1520 CURVE SMOOTH",
"299 1666 OFFCURVE",
"449 1785 OFFCURVE",
"678 1785 CURVE SMOOTH",
"1248 1785 OFFCURVE",
"1741 1609 OFFCURVE",
"1855 1355 CURVE",
"1863 1335 OFFCURVE",
"1886 1325 OFFCURVE",
"1906 1325 CURVE SMOOTH",
"1911 1325 OFFCURVE",
"1916 1343 OFFCURVE",
"1916 1386 CURVE",
"1876 1624 OFFCURVE",
"1344 1948 OFFCURVE",
"655 1948 CURVE SMOOTH",
"364 1948 OFFCURVE",
"149 1783 OFFCURVE",
"149 1565 CURVE SMOOTH",
"149 1449 OFFCURVE",
"198 1328 OFFCURVE",
"284 1264 CURVE",
"-20 1264 LINE"
);
}
);
width = 556;
}
);
},
{
glyphname = "iMatra-deva.10";
lastChange = "2021-08-22 03:02:32 +0000";
layers = (
{
anchors = (
{
name = bin;
position = "{2056, 1332}";
},
{
name = imatra;
position = "{1998, 1387}";
},
{
name = top;
position = "{2080, 1368}";
}
);
layerId = "81641B54-5DFF-4E7E-9A9F-73CB636BC82D";
paths = (
{
closed = 1;
nodes = (
"-20 1123 LINE",
"287 1123 LINE",
"287 283 LINE SMOOTH",
"287 157 OFFCURVE",
"243 49 OFFCURVE",
"169 49 CURVE SMOOTH",
"149 49 OFFCURVE",
"122 36 OFFCURVE",
"122 14 CURVE SMOOTH",
"122 -29 OFFCURVE",
"240 -120 OFFCURVE",
"283 -120 CURVE SMOOTH",
"363 -120 OFFCURVE",
"441 -2 OFFCURVE",
"441 142 CURVE SMOOTH",
"441 955 LINE SMOOTH",
"441 1050 OFFCURVE",
"481 1123 OFFCURVE",
"521 1123 CURVE SMOOTH",
"678 1123 LINE",
"678 1264 LINE",
"450 1264 LINE",
"354 1286 OFFCURVE",
"299 1404 OFFCURVE",
"299 1520 CURVE SMOOTH",
"299 1666 OFFCURVE",
"449 1785 OFFCURVE",
"678 1785 CURVE SMOOTH",
"1353 1785 OFFCURVE",
"1805 1553 OFFCURVE",
"1965 1355 CURVE",
"1973 1335 OFFCURVE",
"1996 1325 OFFCURVE",
"2016 1325 CURVE SMOOTH",
"2021 1325 OFFCURVE",
"2026 1343 OFFCURVE",
"2026 1386 CURVE",
"1993 1567 OFFCURVE",
"1484 1948 OFFCURVE",
"655 1948 CURVE SMOOTH",
"364 1948 OFFCURVE",
"149 1783 OFFCURVE",
"149 1565 CURVE SMOOTH",
"149 1449 OFFCURVE",
"198 1328 OFFCURVE",
"284 1264 CURVE",
"-20 1264 LINE"
);
}
);
width = 556;
}
);
},
{
glyphname = "iMatra-deva.15";
lastChange = "2021-08-22 03:02:32 +0000";
layers = (
{
anchors = (
{
name = bin;
position = "{2179, 1332}";
},
{
name = imatra;
position = "{2106, 1379}";
},
{
name = top;
position = "{2202, 1372}";
}
);
layerId = "81641B54-5DFF-4E7E-9A9F-73CB636BC82D";
paths = (
{
closed = 1;
nodes = (
"-20 1123 LINE",
"287 1123 LINE",
"287 283 LINE SMOOTH",
"287 157 OFFCURVE",
"243 49 OFFCURVE",
"169 49 CURVE SMOOTH",
"149 49 OFFCURVE",
"122 36 OFFCURVE",
"122 14 CURVE SMOOTH",
"122 -29 OFFCURVE",
"240 -120 OFFCURVE",
"283 -120 CURVE SMOOTH",
"363 -120 OFFCURVE",
"441 -2 OFFCURVE",
"441 142 CURVE SMOOTH",
"441 955 LINE SMOOTH",
"441 1050 OFFCURVE",
"481 1123 OFFCURVE",
"521 1123 CURVE SMOOTH",
"678 1123 LINE",
"678 1264 LINE",
"450 1264 LINE",
"354 1286 OFFCURVE",
"299 1404 OFFCURVE",
"299 1520 CURVE SMOOTH",
"299 1666 OFFCURVE",
"449 1785 OFFCURVE",
"678 1785 CURVE SMOOTH",
"1353 1785 OFFCURVE",
"1925 1553 OFFCURVE",
"2085 1355 CURVE",
"2093 1335 OFFCURVE",
"2116 1325 OFFCURVE",
"2136 1325 CURVE SMOOTH",
"2141 1325 OFFCURVE",
"2146 1343 OFFCURVE",
"2146 1386 CURVE",
"2113 1567 OFFCURVE",
"1484 1948 OFFCURVE",
"655 1948 CURVE SMOOTH",
"364 1948 OFFCURVE",
"149 1783 OFFCURVE",
"149 1565 CURVE SMOOTH",
"149 1449 OFFCURVE",
"198 1328 OFFCURVE",
"284 1264 CURVE",
"-20 1264 LINE"
);
}
);
width = 556;
}
);
},
{
glyphname = "iMatra-deva.20";
lastChange = "2021-08-22 03:02:32 +0000";
layers = (
{
anchors = (
{
name = bin;
position = "{2294, 1332}";
},
{
name = imatra;
position = "{2219, 1380}";
},
{
name = top;
position = "{2369, 1382}";
}
);
layerId = "81641B54-5DFF-4E7E-9A9F-73CB636BC82D";
paths = (
{
closed = 1;
nodes = (
"-20 1123 LINE",
"287 1123 LINE",
"287 283 LINE SMOOTH",
"287 157 OFFCURVE",
"243 49 OFFCURVE",
"169 49 CURVE SMOOTH",
"149 49 OFFCURVE",
"122 36 OFFCURVE",
"122 14 CURVE SMOOTH",
"122 -29 OFFCURVE",
"240 -120 OFFCURVE",
"283 -120 CURVE SMOOTH",
"363 -120 OFFCURVE",
"441 -2 OFFCURVE",
"441 142 CURVE SMOOTH",
"441 955 LINE SMOOTH",
"441 1050 OFFCURVE",
"481 1123 OFFCURVE",
"521 1123 CURVE SMOOTH",
"678 1123 LINE",
"678 1264 LINE",
"450 1264 LINE",
"354 1286 OFFCURVE",
"299 1404 OFFCURVE",
"299 1520 CURVE SMOOTH",
"299 1666 OFFCURVE",
"449 1785 OFFCURVE",
"678 1785 CURVE SMOOTH",
"1353 1785 OFFCURVE",
"2035 1553 OFFCURVE",
"2195 1355 CURVE",
"2203 1335 OFFCURVE",
"2226 1325 OFFCURVE",
"2246 1325 CURVE SMOOTH",
"2251 1325 OFFCURVE",
"2256 1343 OFFCURVE",
"2256 1386 CURVE",
"2223 1567 OFFCURVE",
"1484 1948 OFFCURVE",
"655 1948 CURVE SMOOTH",
"364 1948 OFFCURVE",
"149 1783 OFFCURVE",
"149 1565 CURVE SMOOTH",
"149 1449 OFFCURVE",
"198 1328 OFFCURVE",
"284 1264 CURVE",
"-20 1264 LINE"
);
}
);
width = 556;
}
);
},
{
glyphname = "iMatra-deva.25";
lastChange = "2021-08-22 03:02:32 +0000";
layers = (
{
anchors = (
{
name = bin;
position = "{2463, 1340}";
},
{
name = imatra;
position = "{2461, 1439}";
},
{
name = top;
position = "{2460, 1386}";
}
);
layerId = "81641B54-5DFF-4E7E-9A9F-73CB636BC82D";
paths = (
{
closed = 1;
nodes = (
"-20 1123 LINE",
"287 1123 LINE",
"287 283 LINE SMOOTH",
"287 157 OFFCURVE",
"243 49 OFFCURVE",
"169 49 CURVE SMOOTH",
"149 49 OFFCURVE",
"122 36 OFFCURVE",
"122 14 CURVE SMOOTH",
"122 -29 OFFCURVE",
"240 -120 OFFCURVE",
"283 -120 CURVE SMOOTH",
"363 -120 OFFCURVE",
"441 -2 OFFCURVE",
"441 142 CURVE SMOOTH",
"441 955 LINE SMOOTH",
"441 1050 OFFCURVE",
"481 1123 OFFCURVE",
"521 1123 CURVE SMOOTH",
"678 1123 LINE",
"678 1264 LINE",
"450 1264 LINE",
"354 1286 OFFCURVE",
"299 1404 OFFCURVE",
"299 1520 CURVE SMOOTH",
"299 1666 OFFCURVE",
"449 1785 OFFCURVE",
"678 1785 CURVE SMOOTH",
"1353 1785 OFFCURVE",
"2145 1553 OFFCURVE",
"2305 1355 CURVE",
"2313 1335 OFFCURVE",
"2336 1325 OFFCURVE",
"2356 1325 CURVE SMOOTH",
"2361 1325 OFFCURVE",
"2366 1343 OFFCURVE",
"2366 1386 CURVE",
"2333 1567 OFFCURVE",
"1484 1948 OFFCURVE",
"655 1948 CURVE SMOOTH",
"364 1948 OFFCURVE",
"149 1783 OFFCURVE",
"149 1565 CURVE SMOOTH",
"149 1449 OFFCURVE",
"198 1328 OFFCURVE",
"284 1264 CURVE",
"-20 1264 LINE"
);
}
);
width = 556;
}
);
},
{
glyphname = "iMatra-deva.30";
lastChange = "2021-08-22 03:02:32 +0000";
layers = (
{
anchors = (
{
name = bin;
position = "{2492, 1332}";
},
{
name = imatra;
position = "{2439, 1383}";
},
{
name = top;
position = "{2533, 1368}";
}
);
layerId = "81641B54-5DFF-4E7E-9A9F-73CB636BC82D";
paths = (
{
closed = 1;
nodes = (
"-20 1123 LINE",
"287 1123 LINE",
"287 283 LINE SMOOTH",
"287 157 OFFCURVE",
"243 49 OFFCURVE",
"169 49 CURVE SMOOTH",
"149 49 OFFCURVE",
"122 36 OFFCURVE",
"122 14 CURVE SMOOTH",
"122 -29 OFFCURVE",
"240 -120 OFFCURVE",
"283 -120 CURVE SMOOTH",
"363 -120 OFFCURVE",
"441 -2 OFFCURVE",
"441 142 CURVE SMOOTH",
"441 955 LINE SMOOTH",
"441 1050 OFFCURVE",
"481 1123 OFFCURVE",
"521 1123 CURVE SMOOTH",
"678 1123 LINE",
"678 1264 LINE",
"450 1264 LINE",
"354 1286 OFFCURVE",
"299 1404 OFFCURVE",
"299 1520 CURVE SMOOTH",
"299 1666 OFFCURVE",
"449 1785 OFFCURVE",
"678 1785 CURVE SMOOTH",
"1353 1785 OFFCURVE",
"2260 1553 OFFCURVE",
"2420 1355 CURVE",
"2428 1335 OFFCURVE",
"2451 1325 OFFCURVE",
"2471 1325 CURVE SMOOTH",
"2476 1325 OFFCURVE",
"2481 1343 OFFCURVE",
"2481 1386 CURVE",
"2448 1567 OFFCURVE",
"1484 1948 OFFCURVE",
"655 1948 CURVE SMOOTH",
"364 1948 OFFCURVE",
"149 1783 OFFCURVE",
"149 1565 CURVE SMOOTH",
"149 1449 OFFCURVE",
"198 1328 OFFCURVE",
"284 1264 CURVE",
"-20 1264 LINE"
);
}
);
width = 556;
}
);
},
{
glyphname = "iMatra-deva.35";
lastChange = "2021-08-22 03:02:32 +0000";
layers = (
{
anchors = (
{
name = bin;
position = "{2577, 1332}";
},
{
name = imatra;
position = "{2545, 1382}";
},
{
name = top;
position = "{2651, 1376}";
}
);
layerId = "81641B54-5DFF-4E7E-9A9F-73CB636BC82D";
paths = (
{
closed = 1;
nodes = (
"-20 1123 LINE",
"287 1123 LINE",
"287 283 LINE SMOOTH",
"287 157 OFFCURVE",
"243 49 OFFCURVE",
"169 49 CURVE SMOOTH",
"149 49 OFFCURVE",
"122 36 OFFCURVE",
"122 14 CURVE SMOOTH",
"122 -29 OFFCURVE",
"240 -120 OFFCURVE",
"283 -120 CURVE SMOOTH",
"363 -120 OFFCURVE",
"441 -2 OFFCURVE",
"441 142 CURVE SMOOTH",
"441 955 LINE SMOOTH",
"441 1050 OFFCURVE",
"481 1123 OFFCURVE",
"521 1123 CURVE SMOOTH",
"678 1123 LINE",
"678 1264 LINE",
"450 1264 LINE",
"354 1286 OFFCURVE",
"299 1404 OFFCURVE",
"299 1520 CURVE SMOOTH",
"299 1666 OFFCURVE",
"449 1785 OFFCURVE",
"678 1785 CURVE SMOOTH",
"1353 1785 OFFCURVE",
"2364 1553 OFFCURVE",
"2524 1355 CURVE",
"2532 1335 OFFCURVE",
"2555 1325 OFFCURVE",
"2575 1325 CURVE SMOOTH",
"2580 1325 OFFCURVE",
"2585 1343 OFFCURVE",
"2585 1386 CURVE",
"2552 1567 OFFCURVE",
"1484 1948 OFFCURVE",
"655 1948 CURVE SMOOTH",
"364 1948 OFFCURVE",
"149 1783 OFFCURVE",
"149 1565 CURVE SMOOTH",
"149 1449 OFFCURVE",
"198 1328 OFFCURVE",
"284 1264 CURVE",
"-20 1264 LINE"
);
}
);
width = 556;
}
);
},
{
glyphname = "iiMatra-deva.02";
lastChange = "2021-08-22 03:02:32 +0000";
layers = (
{
anchors = (
{
name = bin;
position = "{632, 1262}";
},
{
name = iimatra;
position = "{-725, 1257}";
},
{
name = top;
position = "{439, 1262}";
}
);
layerId = "81641B54-5DFF-4E7E-9A9F-73CB636BC82D";
paths = (
{
closed = 1;
nodes = (
"-894 1532 CURVE SMOOTH",
"-894 1436 OFFCURVE",
"-836 1309 OFFCURVE",
"-777 1262 CURVE",
"-674 1262 LINE",
"-732 1343 OFFCURVE",
"-753 1451 OFFCURVE",
"-753 1515 CURVE SMOOTH",
"-753 1685 OFFCURVE",
"-581 1770 OFFCURVE",
"-448 1770 CURVE SMOOTH",
"-95 1770 OFFCURVE",
"172 1522 OFFCURVE",
"264 1264 CURVE",
"-68 1264 LINE",
"-68 1123 LINE",
"227 1123 LINE",
"227 283 LINE SMOOTH",
"227 157 OFFCURVE",
"183 49 OFFCURVE",
"109 49 CURVE SMOOTH",
"89 49 OFFCURVE",
"62 36 OFFCURVE",
"62 14 CURVE SMOOTH",
"62 -29 OFFCURVE",
"180 -120 OFFCURVE",
"223 -120 CURVE SMOOTH",
"303 -120 OFFCURVE",
"381 -2 OFFCURVE",
"381 142 CURVE SMOOTH",
"381 955 LINE SMOOTH",
"381 1050 OFFCURVE",
"421 1123 OFFCURVE",
"461 1123 CURVE SMOOTH",
"601 1123 LINE",
"601 1264 LINE",
"353 1264 LINE",
"222 1642 OFFCURVE",
"-105 1948 OFFCURVE",
"-466 1948 CURVE SMOOTH",
"-736 1948 OFFCURVE",
"-894 1775 OFFCURVE"
);
}
);
width = 581;
}
);
},
{
glyphname = "ka-deva";
lastChange = "2021-08-22 03:02:32 +0000";
layers = (
{
anchors = (
{
name = bin;
position = "{1038, 1266}";
},
{
name = bottom;
position = "{975, -120}";
},
{
name = nukta;
position = "{184, 108}";
},
{
name = top;
position = "{1076, 1267}";
}
);
layerId = "81641B54-5DFF-4E7E-9A9F-73CB636BC82D";
paths = (
{
closed = 1;
nodes = (
"-59 1123 LINE",
"977 1123 LINE",
"977 732 LINE",
"901 846 OFFCURVE",
"745 916 OFFCURVE",
"574 916 CURVE SMOOTH",
"297 916 OFFCURVE",
"112 800 OFFCURVE",
"112 623 CURVE SMOOTH",
"112 468 OFFCURVE",
"392 232 OFFCURVE",
"592 232 CURVE SMOOTH",
"729 232 OFFCURVE",
"856 283 OFFCURVE",
"977 364 CURVE",
"977 232 LINE SMOOTH",
"977 144 OFFCURVE",
"924 63 OFFCURVE",
"836 63 CURVE SMOOTH",
"815 63 OFFCURVE",
"786 50 OFFCURVE",
"786 35 CURVE SMOOTH",
"786 -25 OFFCURVE",
"901 -120 OFFCURVE",
"946 -120 CURVE SMOOTH",
"1062 -120 OFFCURVE",
"1133 -8 OFFCURVE",
"1133 142 CURVE SMOOTH",
"1133 567 LINE",
"1213 615 OFFCURVE",
"1325 639 OFFCURVE",
"1433 639 CURVE SMOOTH",
"1504 639 OFFCURVE",
"1563 582 OFFCURVE",
"1563 497 CURVE SMOOTH",
"1563 359 OFFCURVE",
"1467 232 OFFCURVE",
"1337 232 CURVE SMOOTH",
"1312 232 OFFCURVE",
"1288 218 OFFCURVE",
"1288 195 CURVE SMOOTH",
"1288 183 OFFCURVE",
"1297 160 OFFCURVE",
"1310 149 CURVE",
"1381 76 LINE",
"1538 76 OFFCURVE",
"1679 203 OFFCURVE",
"1679 364 CURVE SMOOTH",
"1679 540 OFFCURVE",
"1470 805 OFFCURVE",
"1318 805 CURVE SMOOTH",
"1246 805 OFFCURVE",
"1176 798 OFFCURVE",
"1138 777 CURVE",
"1133 1013 LINE SMOOTH",
"1133 1076 OFFCURVE",
"1147 1123 OFFCURVE",
"1202 1123 CURVE SMOOTH",
"1837 1123 LINE",
"1837 1264 LINE",
"1176 1264 LINE",
"1123 1347 OFFCURVE",
"1070 1396 OFFCURVE",
"1021 1396 CURVE SMOOTH",
"999 1396 OFFCURVE",
"977 1355 OFFCURVE",
"977 1302 CURVE SMOOTH",
"977 1264 LINE",
"-59 1264 LINE"
);
},
{
closed = 1;
nodes = (
"491 387 CURVE SMOOTH",
"342 387 OFFCURVE",
"218 468 OFFCURVE",
"218 547 CURVE SMOOTH",
"218 639 OFFCURVE",
"436 732 OFFCURVE",
"629 732 CURVE SMOOTH",
"745 732 OFFCURVE",
"977 652 OFFCURVE",
"977 596 CURVE SMOOTH",
"977 517 OFFCURVE",
"661 387 OFFCURVE"
);
}
);
width = 1817;
}
);
unicode = 0915;
},
{
glyphname = "kha-deva";
lastChange = "2021-08-22 03:02:32 +0000";
layers = (
{
anchors = (
{
name = bin;
position = "{862, 1262}";
},
{
name = bottom;
position = "{1617, -79}";
},
{
name = nukta;
position = "{159, 58}";
},
{
name = top;
position = "{1726, 1257}";
}
);
layerId = "81641B54-5DFF-4E7E-9A9F-73CB636BC82D";
paths = (
{
closed = 1;
nodes = (
"745 14 CURVE SMOOTH",
"625 14 OFFCURVE",
"491 109 OFFCURVE",
"391 268 CURVE",
"437 268 LINE SMOOTH",
"563 268 OFFCURVE",
"647 418 OFFCURVE",
"647 652 CURVE SMOOTH",
"647 706 OFFCURVE",
"639 866 OFFCURVE",
"639 916 CURVE SMOOTH",
"639 1020 OFFCURVE",
"643 1084 OFFCURVE",
"664 1123 CURVE",
"1628 1123 LINE",
"1628 955 LINE SMOOTH",
"1628 875 OFFCURVE",
"1656 596 OFFCURVE",
"1656 517 CURVE",
"1649 517 LINE",
"1557 724 OFFCURVE",
"1402 860 OFFCURVE",
"1243 860 CURVE SMOOTH",
"1025 860 OFFCURVE",
"849 722 OFFCURVE",
"849 557 CURVE SMOOTH",
"849 406 OFFCURVE",
"999 238 OFFCURVE",
"1183 155 CURVE",
"1060 74 OFFCURVE",
"901 14 OFFCURVE"
);
},
{
closed = 1;
nodes = (
"1157 322 CURVE SMOOTH",
"1060 322 OFFCURVE",
"967 382 OFFCURVE",
"967 473 CURVE SMOOTH",
"967 592 OFFCURVE",
"1133 694 OFFCURVE",
"1337 694 CURVE SMOOTH",
"1470 694 OFFCURVE",
"1573 598 OFFCURVE",
"1588 473 CURVE",
"1587 473 LINE",
"1494 371 OFFCURVE",
"1340 322 OFFCURVE"
);
},
{
closed = 1;
nodes = (
"293 406 CURVE SMOOTH",
"254 406 OFFCURVE",
"218 448 OFFCURVE",
"218 517 CURVE SMOOTH",
"218 612 OFFCURVE",
"289 694 OFFCURVE",
"371 694 CURVE SMOOTH",
"408 694 OFFCURVE",
"454 661 OFFCURVE",
"489 623 CURVE",
"491 623 LINE",
"476 497 OFFCURVE",
"387 406 OFFCURVE"
);
},
{
closed = 1;
nodes = (
"1809 1264 LINE",
"1765 1355 OFFCURVE",
"1714 1400 OFFCURVE",
"1675 1400 CURVE SMOOTH",
"1649 1400 OFFCURVE",
"1628 1372 OFFCURVE",
"1628 1264 CURVE",
"655 1264 LINE",
"610 1355 OFFCURVE",
"562 1400 OFFCURVE",
"521 1400 CURVE SMOOTH",
"495 1400 OFFCURVE",
"473 1372 OFFCURVE",
"473 1264 CURVE",
"-18 1264 LINE",
"-18 1123 LINE",
"473 1123 LINE",
"473 942 OFFCURVE",
"478 829 OFFCURVE",
"491 777 CURVE",
"483 777 LINE",
"416 805 OFFCURVE",
"349 818 OFFCURVE",
"317 818 CURVE SMOOTH",
"210 818 OFFCURVE",
"114 726 OFFCURVE",
"114 610 CURVE SMOOTH",
"114 481 OFFCURVE",
"205 334 OFFCURVE",
"378 149 CURVE SMOOTH",
"557 -43 OFFCURVE",
"715 -130 OFFCURVE",
"831 -130 CURVE SMOOTH",
"1025 -130 OFFCURVE",
"1318 12 OFFCURVE",
"1651 299 CURVE",
"1656 299 LINE",
"1659 279 OFFCURVE",
"1659 263 OFFCURVE",
"1659 244 CURVE SMOOTH",
"1659 139 OFFCURVE",
"1587 49 OFFCURVE",
"1512 49 CURVE SMOOTH",
"1494 49 OFFCURVE",
"1487 33 OFFCURVE",
"1487 -2 CURVE SMOOTH",
"1487 -43 OFFCURVE",
"1587 -130 OFFCURVE",
"1652 -130 CURVE SMOOTH",
"1760 -130 OFFCURVE",
"1812 71 OFFCURVE",
"1812 311 CURVE SMOOTH",
"1812 413 OFFCURVE",
"1783 773 OFFCURVE",
"1783 874 CURVE SMOOTH",
"1783 983 OFFCURVE",
"1786 1123 OFFCURVE",
"1804 1123 CURVE SMOOTH",
"2080 1123 LINE",
"2080 1264 LINE"
);
}
);
width = 2060;
}
);
unicode = 0916;
},
{
glyphname = "ga-deva";
lastChange = "2021-08-22 03:02:32 +0000";
layers = (
{
anchors = (
{
name = bin;
position = "{428, 1257}";
},
{
name = bottom;
position = "{831, -93}";
},
{
name = nukta;
position = "{253, 49}";
},
{
name = top;
position = "{953, 1267}";
}
);
layerId = "81641B54-5DFF-4E7E-9A9F-73CB636BC82D";
paths = (
{
closed = 1;
nodes = (
"-20 1123 LINE",
"336 1123 LINE",
"336 777 LINE",
"329 777 LINE",
"317 798 OFFCURVE",
"281 805 OFFCURVE",
"234 805 CURVE SMOOTH",
"159 805 OFFCURVE",
"104 726 OFFCURVE",
"104 639 CURVE SMOOTH",
"104 483 OFFCURVE",
"281 311 OFFCURVE",
"438 311 CURVE SMOOTH",
"532 311 OFFCURVE",
"491 532 OFFCURVE",
"560 532 CURVE SMOOTH",
"576 532 OFFCURVE",
"611 497 OFFCURVE",
"621 497 CURVE SMOOTH",
"637 497 OFFCURVE",
"651 523 OFFCURVE",
"651 547 CURVE SMOOTH",
"651 580 OFFCURVE",
"625 596 OFFCURVE",
"506 661 CURVE",
"505 899 LINE SMOOTH",
"503 1020 OFFCURVE",
"540 1123 OFFCURVE",
"611 1123 CURVE SMOOTH",
"864 1123 LINE",
"864 283 LINE SMOOTH",
"864 155 OFFCURVE",
"805 49 OFFCURVE",
"727 49 CURVE SMOOTH",
"706 49 OFFCURVE",
"677 36 OFFCURVE",
"677 14 CURVE SMOOTH",
"677 -29 OFFCURVE",
"805 -120 OFFCURVE",
"859 -120 CURVE SMOOTH",
"948 -120 OFFCURVE",
"1028 -2 OFFCURVE",
"1028 142 CURVE SMOOTH",
"1028 955 LINE SMOOTH",
"1028 1050 OFFCURVE",
"1058 1123 OFFCURVE",
"1091 1123 CURVE SMOOTH",
"1310 1123 LINE",
"1310 1264 LINE",
"1089 1264 LINE",
"985 1367 LINE",
"950 1394 OFFCURVE",
"932 1398 OFFCURVE",
"922 1400 CURVE",
"885 1400 OFFCURVE",
"844 1367 OFFCURVE",
"844 1312 CURVE SMOOTH",
"844 1264 LINE",
"566 1264 LINE",
"517 1347 OFFCURVE",
"448 1400 OFFCURVE",
"393 1400 CURVE SMOOTH",
"362 1400 OFFCURVE",
"336 1372 OFFCURVE",
"336 1330 CURVE SMOOTH",
"336 1264 LINE",
"-20 1264 LINE"
);
},
{
closed = 1;
nodes = (
"293 473 CURVE SMOOTH",
"236 473 OFFCURVE",
"188 535 OFFCURVE",
"188 610 CURVE SMOOTH",
"188 652 OFFCURVE",
"220 694 OFFCURVE",
"257 694 CURVE SMOOTH",
"302 694 OFFCURVE",
"336 664 OFFCURVE",
"336 639 CURVE SMOOTH",
"336 574 OFFCURVE",
"314 473 OFFCURVE"
);
}
);
width = 1290;
}
);
unicode = 0917;
},
